<?xml version="1.0" encoding="UTF-8" standalone="no"?>
<!-- Created with Inkscape (http://www.inkscape.org/) -->

<svg
   width="7.5973697mm"
   height="8.2648153mm"
   viewBox="0 0 7.5973697 8.2648153"
   version="1.1"
   id="svg1"
   inkscape:version="1.3.2 (091e20e, 2023-11-25, custom)"
   sodipodi:docname="icon.svg"
   xmlns:inkscape="http://www.inkscape.org/namespaces/inkscape"
   xmlns:sodipodi="http://sodipodi.sourceforge.net/DTD/sodipodi-0.dtd"
   xmlns="http://www.w3.org/2000/svg"
   xmlns:svg="http://www.w3.org/2000/svg">
  <sodipodi:namedview
     id="namedview1"
     pagecolor="#ffffff"
     bordercolor="#000000"
     borderopacity="0.25"
     inkscape:showpageshadow="2"
     inkscape:pageopacity="0.0"
     inkscape:pagecheckerboard="0"
     inkscape:deskcolor="#d1d1d1"
     inkscape:document-units="mm"
     inkscape:zoom="0.69219276"
     inkscape:cx="374.89557"
     inkscape:cy="546.813"
     inkscape:window-width="1920"
     inkscape:window-height="991"
     inkscape:window-x="-9"
     inkscape:window-y="-9"
     inkscape:window-maximized="1"
     inkscape:current-layer="layer1" />
  <defs
     id="defs1" />
  <g
     inkscape:label="Layer 1"
     inkscape:groupmode="layer"
     id="layer1"
     transform="translate(-5.7250239,-3.6382017)">
    <g
       id="g9889"
       transform="matrix(0.03592137,0,0,0.03666524,4.7012649,3.033745)"
       style="isolation:isolate">
      <path
         d="m 105.5,47.608 c -14.85,8.01 -29.25,15.736 -32,17.17 -17.273,9.006 -18.552,7.143 18,26.223 5.5,2.871 14.05,7.37 19,9.997 4.95,2.627 11.651,6.178 14.891,7.889 7.149,3.778 9.77,3.861 15.609,0.494 2.475,-1.427 7.65,-4.196 11.5,-6.155 3.85,-1.958 12.625,-6.702 19.5,-10.541 6.875,-3.84 13.635,-7.478 15.022,-8.083 19.191,-8.381 22.721,-12.911 13.65,-17.515 -8.707,-4.419 -3.594,-6.484 -59.484,24.015 -2.921,1.594 -5.745,2.898 -6.275,2.898 -0.961,0 -35.837,-18.262 -39.162,-20.506 -1.521,-1.027 -0.521,-1.861 7.69,-6.41 l 9.439,-5.229 12.757,6.658 c 14.714,7.679 17.952,7.76 27.16,0.675 l 2.296,-1.767 -4.296,-2.307 c -2.363,-1.269 -8.231,-4.37 -13.039,-6.89 l -8.743,-4.583 7.243,-4.309 c 3.983,-2.37 7.735,-4.315 8.337,-4.321 6.176,-0.063 4.729,-5.119 -2.549,-8.907 -8.126,-4.229 -6.325,-4.796 -36.546,11.504 M 43.667,98.667 C 43.3,99.033 43,116.739 43,138.012 c 0,43.912 -0.968,39.306 9.428,44.835 8.871,4.719 8.572,5.059 8.572,-9.765 0,-18.46 -1.071,-17.677 13.409,-9.802 5,2.72 12.241,6.557 16.091,8.528 11.156,5.712 10.5,4.418 10.5,20.711 0,16.526 0.13,16.785 10.969,21.966 8.383,4.007 7.998,5.82 8.016,-37.78 l 0.015,-37.796 -2.438,-2.438 c -13.03,-13.03 -15.673,-10.018 -16.485,18.779 -0.103,3.671 -1.981,3.545 -8.946,-0.602 -3.097,-1.844 -10.581,-5.957 -16.631,-9.14 -15.834,-8.331 -14.597,-6.307 -14.415,-23.595 0.181,-17.139 0.704,-15.746 -7.623,-20.323 -6.516,-3.582 -8.535,-4.184 -9.795,-2.923 m 170.861,3.294 c -7.456,4.388 -7.526,4.58 -7.543,20.48 -0.017,15.639 0.086,15.286 -5.485,18.74 C 196.792,144.1 168.431,159 167.582,159 167.262,159 167,152.502 167,144.559 c 0,-8.271 -0.415,-14.698 -0.972,-15.042 -1.083,-0.669 -12.547,4.741 -15.278,7.21 -2.181,1.973 -2.763,80.273 -0.596,80.273 1.743,0 14.172,-7.129 15.564,-8.927 0.819,-1.057 1.234,-6.162 1.266,-15.573 0.055,-16.601 -0.699,-15.095 10.516,-20.992 4.95,-2.603 13.159,-6.961 18.242,-9.684 11.593,-6.212 11.479,-6.293 11.24,8.039 -0.259,15.483 -0.305,15.137 2.033,15.137 3.314,0 12.939,-6.009 14.518,-9.065 1.511,-2.922 2.295,-71.614 0.86,-75.353 -0.908,-2.367 -4.309,-1.892 -9.865,1.379"
         stroke="none"
         fill="#44a41a"
         fill-rule="evenodd"
         id="path1-2" />
      <path
         d="M 98.5,34.135 C 79.25,44.594 56.525,56.83 47.999,61.326 c -8.525,4.496 -16.396,8.702 -17.49,9.348 -1.95,1.151 -1.99,2.339 -2,58.302 L 28.5,186.104 81,214.528 c 60.206,32.597 52.744,29.993 65.5,22.854 5.5,-3.077 18.775,-10.434 29.5,-16.348 10.725,-5.913 25.125,-13.9 32,-17.747 6.875,-3.847 16.888,-9.349 22.25,-12.227 L 240,185.827 V 128.01 70.193 l -7.25,-3.682 C 225.719,62.94 197.875,48.139 156.249,25.846 131.803,12.753 140.021,11.574 98.5,34.135 m 7,13.473 c -14.85,8.01 -29.25,15.736 -32,17.17 -17.273,9.006 -18.552,7.143 18,26.223 5.5,2.871 14.05,7.37 19,9.997 4.95,2.627 11.651,6.178 14.891,7.889 7.149,3.778 9.77,3.861 15.609,0.494 2.475,-1.427 7.65,-4.196 11.5,-6.155 3.85,-1.958 12.625,-6.702 19.5,-10.541 6.875,-3.84 13.635,-7.478 15.022,-8.083 19.191,-8.381 22.721,-12.911 13.65,-17.515 -8.707,-4.419 -3.594,-6.484 -59.484,24.015 -2.921,1.594 -5.745,2.898 -6.275,2.898 -0.961,0 -35.837,-18.262 -39.162,-20.506 -1.521,-1.027 -0.521,-1.861 7.69,-6.41 l 9.439,-5.229 12.757,6.658 c 14.714,7.679 17.952,7.76 27.16,0.675 l 2.296,-1.767 -4.296,-2.307 c -2.363,-1.269 -8.231,-4.37 -13.039,-6.89 l -8.743,-4.583 7.243,-4.309 c 3.983,-2.37 7.735,-4.315 8.337,-4.321 6.176,-0.063 4.729,-5.119 -2.549,-8.907 -8.126,-4.229 -6.325,-4.796 -36.546,11.504 M 43.667,98.667 C 43.3,99.033 43,116.739 43,138.012 c 0,43.912 -0.968,39.306 9.428,44.835 8.871,4.719 8.572,5.059 8.572,-9.765 0,-18.46 -1.071,-17.677 13.409,-9.802 5,2.72 12.241,6.557 16.091,8.528 11.156,5.712 10.5,4.418 10.5,20.711 0,16.526 0.13,16.785 10.969,21.966 8.383,4.007 7.998,5.82 8.016,-37.78 l 0.015,-37.796 -2.438,-2.438 c -13.03,-13.03 -15.673,-10.018 -16.485,18.779 -0.103,3.671 -1.981,3.545 -8.946,-0.602 -3.097,-1.844 -10.581,-5.957 -16.631,-9.14 -15.834,-8.331 -14.597,-6.307 -14.415,-23.595 0.181,-17.139 0.704,-15.746 -7.623,-20.323 -6.516,-3.582 -8.535,-4.184 -9.795,-2.923 m 170.861,3.294 c -7.456,4.388 -7.526,4.58 -7.543,20.48 -0.017,15.639 0.086,15.286 -5.485,18.74 C 196.792,144.1 168.431,159 167.582,159 167.262,159 167,152.502 167,144.559 c 0,-8.271 -0.415,-14.698 -0.972,-15.042 -1.083,-0.669 -12.547,4.741 -15.278,7.21 -2.181,1.973 -2.763,80.273 -0.596,80.273 1.743,0 14.172,-7.129 15.564,-8.927 0.819,-1.057 1.234,-6.162 1.266,-15.573 0.055,-16.601 -0.699,-15.095 10.516,-20.992 4.95,-2.603 13.159,-6.961 18.242,-9.684 11.593,-6.212 11.479,-6.293 11.24,8.039 -0.259,15.483 -0.305,15.137 2.033,15.137 3.314,0 12.939,-6.009 14.518,-9.065 1.511,-2.922 2.295,-71.614 0.86,-75.353 -0.908,-2.367 -4.309,-1.892 -9.865,1.379"
         stroke="none"
         fill="#cad6cc"
         fill-rule="evenodd"
         id="path2-63"
         style="fill:#ffffff" />
    </g>
  </g>
</svg>
