<?xml version="1.0" encoding="UTF-8" standalone="no"?>
<svg
   style="isolation:isolate"
   viewBox="66.993 897.484 600 600.00001"
   version="1.1"
   id="svg11"
   sodipodi:docname="design.svg"
   xml:space="preserve"
   inkscape:export-filename="216333102-4d10c195-be66-4fa0-97ca-70a71756b25e.png"
   inkscape:export-xdpi="3733.2917"
   inkscape:export-ydpi="3733.2917"
   inkscape:version="1.3.2 (091e20e, 2023-11-25, custom)"
   width="600"
   height="600"
   xmlns:inkscape="http://www.inkscape.org/namespaces/inkscape"
   xmlns:sodipodi="http://sodipodi.sourceforge.net/DTD/sodipodi-0.dtd"
   xmlns:xlink="http://www.w3.org/1999/xlink"
   xmlns="http://www.w3.org/2000/svg"
   xmlns:svg="http://www.w3.org/2000/svg"><defs
     id="defs15"><linearGradient
       id="linearGradient5"
       inkscape:collect="always"><stop
         style="stop-color:#cad6cc;stop-opacity:1;"
         offset="0"
         id="stop3" /><stop
         style="stop-color:#656b66;stop-opacity:0.49803922;"
         offset="0.5"
         id="stop7" /><stop
         style="stop-color:#000000;stop-opacity:0;"
         offset="1"
         id="stop5" /></linearGradient><linearGradient
       id="linearGradient11"
       inkscape:collect="always"><stop
         style="stop-color:#cad6cc;stop-opacity:1;"
         offset="0"
         id="stop11" /><stop
         style="stop-color:#000000;stop-opacity:0;"
         offset="1"
         id="stop12" /></linearGradient><linearGradient
       id="linearGradient9947"
       x1="0.14773831"
       x2="0.84543866"
       y1="0.85134232"
       y2="0.15443686"
       gradientTransform="matrix(26.301,0,0,26.331,90.673535,911.7572)"
       gradientUnits="userSpaceOnUse"><stop
         offset="0"
         stop-color="#004ba6"
         id="stop9943"
         style="stop-color:#0071ff;stop-opacity:1;" /><stop
         offset="1"
         stop-color="#00bfe1"
         id="stop9945"
         style="stop-color:#01aee6;stop-opacity:1;" /></linearGradient><linearGradient
       id="linearGradient9775"
       x1="0.045312501"
       x2="0.95468748"
       y1="0.95468748"
       y2="0.045312501"
       gradientTransform="matrix(32,0,0,32,231.02995,929.98044)"
       gradientUnits="userSpaceOnUse"><stop
         offset="0"
         stop-color="#004ba6"
         id="stop9771"
         style="stop-color:#0071ff;stop-opacity:1;" /><stop
         offset="1"
         stop-color="#00bfe1"
         id="stop9773"
         style="stop-color:#01aee6;stop-opacity:1;" /></linearGradient><linearGradient
       id="linearGradient5424"
       x1="0.14773831"
       x2="0.84543866"
       y1="0.85134232"
       y2="0.15443686"
       gradientTransform="matrix(26.301,0,0,26.331,90.673535,911.7572)"
       gradientUnits="userSpaceOnUse"><stop
         offset="0"
         stop-color="#004ba6"
         id="stop5420"
         style="stop-color:#0071ff;stop-opacity:1;" /><stop
         offset="1"
         stop-color="#00bfe1"
         id="stop5422"
         style="stop-color:#01aee6;stop-opacity:1;" /></linearGradient><linearGradient
       id="linearGradient1258"
       x1="0.045312501"
       x2="0.95468748"
       y1="0.95468748"
       y2="0.045312501"
       gradientTransform="matrix(32,0,0,32,231.02995,929.98044)"
       gradientUnits="userSpaceOnUse"><stop
         offset="0"
         stop-color="#004ba6"
         id="stop1254"
         style="stop-color:#0071ff;stop-opacity:1;" /><stop
         offset="1"
         stop-color="#00bfe1"
         id="stop1256"
         style="stop-color:#01aee6;stop-opacity:1;" /></linearGradient><linearGradient
       id="linearGradient1228"
       x1="0.045312501"
       x2="0.95468748"
       y1="0.95468748"
       y2="0.045312501"
       gradientTransform="matrix(32,0,0,32,231.02995,929.98044)"
       gradientUnits="userSpaceOnUse"><stop
         offset="0"
         stop-color="#004ba6"
         id="stop1224"
         style="stop-color:#0071ff;stop-opacity:1;" /><stop
         offset="100%"
         stop-color="#00bfe1"
         id="stop1226" /></linearGradient><rect
       x="34.072868"
       y="7.5261359"
       width="62.535347"
       height="16.146982"
       id="rect9005" /><linearGradient
       id="a-3"
       x1="0.045312501"
       x2="0.95468748"
       y1="0.95468748"
       y2="0.045312501"
       gradientTransform="matrix(32,0,0,32,231.02995,929.98044)"
       gradientUnits="userSpaceOnUse"><stop
         offset="0%"
         stop-color="#004ba6"
         id="stop294" /><stop
         offset="100%"
         stop-color="#00bfe1"
         id="stop296" /></linearGradient><linearGradient
       inkscape:collect="always"
       xlink:href="#linearGradient11"
       id="linearGradient12"
       x1="288.99322"
       y1="1014.1026"
       x2="317.70768"
       y2="1014.1026"
       gradientUnits="userSpaceOnUse" /><linearGradient
       inkscape:collect="always"
       xlink:href="#linearGradient5"
       id="linearGradient1"
       gradientUnits="userSpaceOnUse"
       x1="288.99322"
       y1="1014.1026"
       x2="317.70768"
       y2="1014.1026" /><linearGradient
       inkscape:collect="always"
       xlink:href="#linearGradient11"
       id="linearGradient7"
       gradientUnits="userSpaceOnUse"
       x1="288.99322"
       y1="1014.1026"
       x2="317.70768"
       y2="1014.1026" /><linearGradient
       inkscape:collect="always"
       xlink:href="#linearGradient11"
       id="linearGradient8"
       gradientUnits="userSpaceOnUse"
       x1="288.99322"
       y1="1014.1026"
       x2="317.70768"
       y2="1014.1026" /><linearGradient
       inkscape:collect="always"
       xlink:href="#linearGradient11"
       id="linearGradient9"
       gradientUnits="userSpaceOnUse"
       x1="288.99322"
       y1="1014.1026"
       x2="317.70768"
       y2="1014.1026" /></defs><sodipodi:namedview
     id="namedview13"
     pagecolor="#ffffff"
     bordercolor="#000000"
     borderopacity="0.25"
     inkscape:showpageshadow="2"
     inkscape:pageopacity="0.0"
     inkscape:pagecheckerboard="0"
     inkscape:deskcolor="#d1d1d1"
     showgrid="false"
     inkscape:zoom="1.8436908"
     inkscape:cx="155.39482"
     inkscape:cy="104.95252"
     inkscape:window-width="1920"
     inkscape:window-height="991"
     inkscape:window-x="-9"
     inkscape:window-y="-9"
     inkscape:window-maximized="1"
     inkscape:current-layer="svg11"
     showguides="true" /><linearGradient
     id="a"
     x1="0.14773831"
     x2="0.84543866"
     y1="0.85134232"
     y2="0.15443686"
     gradientTransform="matrix(26.301,0,0,26.331,90.673535,911.7572)"
     gradientUnits="userSpaceOnUse"><stop
       offset="0"
       stop-color="#004ba6"
       id="stop4"
       style="stop-color:#0071ff;stop-opacity:1;" /><stop
       offset="1"
       stop-color="#00bfe1"
       id="stop6"
       style="stop-color:#00bfe1;stop-opacity:1;" /></linearGradient><text
     xml:space="preserve"
     transform="translate(66.993,897.484)"
     id="text9003"
     style="white-space:pre;shape-inside:url(#rect9005);display:inline;fill:#0071ff"
     inkscape:label="text9003" /><g
     id="g9825"
     transform="translate(-74.123318,-7.4609904)"><g
       id="g9821"
       transform="translate(42.333011,90.667253)" /></g><path
     style="fill:#000000;stroke-width:1"
     id="path2240"
     d=""
     inkscape:label="path2240" /><g
     id="g2"
     transform="translate(-2.9831467,1.8983661)"><g
       id="g9759"
       transform="translate(18.35032,5.5050959)"><g
         id="g8359"><text
           xml:space="preserve"
           style="font-style:normal;font-variant:normal;font-weight:normal;font-stretch:normal;font-size:21.3333px;font-family:Asap;-inkscape-font-specification:Asap;fill:#0071ff"
           x="98.192268"
           y="917.46295"
           id="text9011"><tspan
             sodipodi:role="line"
             id="tspan9009"
             x="98.192268"
             y="917.46295"
             style="font-style:normal;font-variant:normal;font-weight:600;font-stretch:normal;font-size:21.3333px;font-family:Nunito;-inkscape-font-specification:'Nunito Semi-Bold';fill:#000000">HamrahYar</tspan></text></g></g><g
       id="g1"
       transform="matrix(0.13576581,0,0,0.13857729,77.784319,897.20858)"><path
         d="m 105.5,47.608 c -14.85,8.01 -29.25,15.736 -32,17.17 -17.273,9.006 -18.552,7.143 18,26.223 5.5,2.871 14.05,7.37 19,9.997 4.95,2.627 11.651,6.178 14.891,7.889 7.149,3.778 9.77,3.861 15.609,0.494 2.475,-1.427 7.65,-4.196 11.5,-6.155 3.85,-1.958 12.625,-6.702 19.5,-10.541 6.875,-3.84 13.635,-7.478 15.022,-8.083 19.191,-8.381 22.721,-12.911 13.65,-17.515 -8.707,-4.419 -3.594,-6.484 -59.484,24.015 -2.921,1.594 -5.745,2.898 -6.275,2.898 -0.961,0 -35.837,-18.262 -39.162,-20.506 -1.521,-1.027 -0.521,-1.861 7.69,-6.41 l 9.439,-5.229 12.757,6.658 c 14.714,7.679 17.952,7.76 27.16,0.675 l 2.296,-1.767 -4.296,-2.307 c -2.363,-1.269 -8.231,-4.37 -13.039,-6.89 l -8.743,-4.583 7.243,-4.309 c 3.983,-2.37 7.735,-4.315 8.337,-4.321 6.176,-0.063 4.729,-5.119 -2.549,-8.907 -8.126,-4.229 -6.325,-4.796 -36.546,11.504 M 43.667,98.667 C 43.3,99.033 43,116.739 43,138.012 c 0,43.912 -0.968,39.306 9.428,44.835 8.871,4.719 8.572,5.059 8.572,-9.765 0,-18.46 -1.071,-17.677 13.409,-9.802 5,2.72 12.241,6.557 16.091,8.528 11.156,5.712 10.5,4.418 10.5,20.711 0,16.526 0.13,16.785 10.969,21.966 8.383,4.007 7.998,5.82 8.016,-37.78 l 0.015,-37.796 -2.438,-2.438 c -13.03,-13.03 -15.673,-10.018 -16.485,18.779 -0.103,3.671 -1.981,3.545 -8.946,-0.602 -3.097,-1.844 -10.581,-5.957 -16.631,-9.14 -15.834,-8.331 -14.597,-6.307 -14.415,-23.595 0.181,-17.139 0.704,-15.746 -7.623,-20.323 -6.516,-3.582 -8.535,-4.184 -9.795,-2.923 m 170.861,3.294 c -7.456,4.388 -7.526,4.58 -7.543,20.48 -0.017,15.639 0.086,15.286 -5.485,18.74 C 196.792,144.1 168.431,159 167.582,159 167.262,159 167,152.502 167,144.559 c 0,-8.271 -0.415,-14.698 -0.972,-15.042 -1.083,-0.669 -12.547,4.741 -15.278,7.21 -2.181,1.973 -2.763,80.273 -0.596,80.273 1.743,0 14.172,-7.129 15.564,-8.927 0.819,-1.057 1.234,-6.162 1.266,-15.573 0.055,-16.601 -0.699,-15.095 10.516,-20.992 4.95,-2.603 13.159,-6.961 18.242,-9.684 11.593,-6.212 11.479,-6.293 11.24,8.039 -0.259,15.483 -0.305,15.137 2.033,15.137 3.314,0 12.939,-6.009 14.518,-9.065 1.511,-2.922 2.295,-71.614 0.86,-75.353 -0.908,-2.367 -4.309,-1.892 -9.865,1.379"
         stroke="none"
         fill="#44a41a"
         fill-rule="evenodd"
         id="path1" /><path
         d="M 98.5,34.135 C 79.25,44.594 56.525,56.83 47.999,61.326 c -8.525,4.496 -16.396,8.702 -17.49,9.348 -1.95,1.151 -1.99,2.339 -2,58.302 L 28.5,186.104 81,214.528 c 60.206,32.597 52.744,29.993 65.5,22.854 5.5,-3.077 18.775,-10.434 29.5,-16.348 10.725,-5.913 25.125,-13.9 32,-17.747 6.875,-3.847 16.888,-9.349 22.25,-12.227 L 240,185.827 V 128.01 70.193 l -7.25,-3.682 C 225.719,62.94 197.875,48.139 156.249,25.846 131.803,12.753 140.021,11.574 98.5,34.135 m 7,13.473 c -14.85,8.01 -29.25,15.736 -32,17.17 -17.273,9.006 -18.552,7.143 18,26.223 5.5,2.871 14.05,7.37 19,9.997 4.95,2.627 11.651,6.178 14.891,7.889 7.149,3.778 9.77,3.861 15.609,0.494 2.475,-1.427 7.65,-4.196 11.5,-6.155 3.85,-1.958 12.625,-6.702 19.5,-10.541 6.875,-3.84 13.635,-7.478 15.022,-8.083 19.191,-8.381 22.721,-12.911 13.65,-17.515 -8.707,-4.419 -3.594,-6.484 -59.484,24.015 -2.921,1.594 -5.745,2.898 -6.275,2.898 -0.961,0 -35.837,-18.262 -39.162,-20.506 -1.521,-1.027 -0.521,-1.861 7.69,-6.41 l 9.439,-5.229 12.757,6.658 c 14.714,7.679 17.952,7.76 27.16,0.675 l 2.296,-1.767 -4.296,-2.307 c -2.363,-1.269 -8.231,-4.37 -13.039,-6.89 l -8.743,-4.583 7.243,-4.309 c 3.983,-2.37 7.735,-4.315 8.337,-4.321 6.176,-0.063 4.729,-5.119 -2.549,-8.907 -8.126,-4.229 -6.325,-4.796 -36.546,11.504 M 43.667,98.667 C 43.3,99.033 43,116.739 43,138.012 c 0,43.912 -0.968,39.306 9.428,44.835 8.871,4.719 8.572,5.059 8.572,-9.765 0,-18.46 -1.071,-17.677 13.409,-9.802 5,2.72 12.241,6.557 16.091,8.528 11.156,5.712 10.5,4.418 10.5,20.711 0,16.526 0.13,16.785 10.969,21.966 8.383,4.007 7.998,5.82 8.016,-37.78 l 0.015,-37.796 -2.438,-2.438 c -13.03,-13.03 -15.673,-10.018 -16.485,18.779 -0.103,3.671 -1.981,3.545 -8.946,-0.602 -3.097,-1.844 -10.581,-5.957 -16.631,-9.14 -15.834,-8.331 -14.597,-6.307 -14.415,-23.595 0.181,-17.139 0.704,-15.746 -7.623,-20.323 -6.516,-3.582 -8.535,-4.184 -9.795,-2.923 m 170.861,3.294 c -7.456,4.388 -7.526,4.58 -7.543,20.48 -0.017,15.639 0.086,15.286 -5.485,18.74 C 196.792,144.1 168.431,159 167.582,159 167.262,159 167,152.502 167,144.559 c 0,-8.271 -0.415,-14.698 -0.972,-15.042 -1.083,-0.669 -12.547,4.741 -15.278,7.21 -2.181,1.973 -2.763,80.273 -0.596,80.273 1.743,0 14.172,-7.129 15.564,-8.927 0.819,-1.057 1.234,-6.162 1.266,-15.573 0.055,-16.601 -0.699,-15.095 10.516,-20.992 4.95,-2.603 13.159,-6.961 18.242,-9.684 11.593,-6.212 11.479,-6.293 11.24,8.039 -0.259,15.483 -0.305,15.137 2.033,15.137 3.314,0 12.939,-6.009 14.518,-9.065 1.511,-2.922 2.295,-71.614 0.86,-75.353 -0.908,-2.367 -4.309,-1.892 -9.865,1.379"
         stroke="none"
         fill="#cad6cc"
         fill-rule="evenodd"
         id="path2" /></g></g><g
     id="g9521"
     style="isolation:isolate;mix-blend-mode:normal;stroke:url(#linearGradient12)"
     inkscape:label="g9521"
     transform="translate(-206.6507,-59.120542)"><path
       d="m 298.4966,1000.9298 c -2.61349,1.4494 -5.69877,3.145 -6.85631,3.768 -1.1574,0.6231 -2.22601,1.2059 -2.37454,1.2955 -0.26474,0.1595 -0.27017,0.3241 -0.27153,8.0793 l -10e-4,7.9166 7.1277,3.9389 c 8.17392,4.5173 7.16083,4.1564 8.89266,3.1671 0.74671,-0.4264 2.549,-1.4459 4.00509,-2.2655 1.45609,-0.8194 3.41112,-1.9262 4.34451,-2.4593 0.93339,-0.5331 2.29281,-1.2956 3.02079,-1.6944 l 1.32371,-0.7252 v -8.0121 -8.0121 l -0.9843,-0.5102 c -0.95457,-0.4949 -4.73483,-2.546 -10.38622,-5.63529 -3.31893,-1.81439 -2.20321,-1.97778 -7.84034,1.14869 m 0.95036,1.867 c -2.01612,1.11 -3.97115,2.1807 -4.3445,2.3794 -2.34509,1.248 -2.51873,0.9899 2.44378,3.6339 0.74671,0.3979 1.90751,1.0213 2.57955,1.3854 0.67204,0.364 1.58181,0.8561 2.02169,1.0932 0.97059,0.5236 1.32643,0.5351 2.11917,0.069 0.33602,-0.1978 1.03861,-0.5815 1.56131,-0.853 0.52269,-0.2713 1.71404,-0.9287 2.64743,-1.4607 0.93339,-0.5322 1.85117,-1.0363 2.03947,-1.1201 2.60548,-1.1615 3.08474,-1.7892 1.85321,-2.4272 -1.18212,-0.6124 -0.48795,-0.8986 -8.0759,3.3279 -0.39657,0.2209 -0.77997,0.4016 -0.85193,0.4016 -0.13047,0 -4.86544,-2.5307 -5.31686,-2.8417 -0.2065,-0.1423 -0.0707,-0.2579 1.04404,-0.8882 l 1.28149,-0.7247 1.73197,0.9227 c 1.99766,1.0641 2.43727,1.0753 3.6874,0.093 l 0.31172,-0.2448 -0.58325,-0.3197 c -0.32082,-0.1759 -1.11749,-0.6056 -1.77025,-0.9548 l -1.187,-0.6351 0.98335,-0.5972 c 0.54075,-0.3284 1.05015,-0.5979 1.13188,-0.5988 0.83849,-0.01 0.64203,-0.7093 -0.34607,-1.2343 -1.10323,-0.586 -0.85872,-0.6646 -4.9617,1.5942 m -8.3948,7.0756 c -0.0498,0.051 -0.0906,2.5044 -0.0906,5.4524 0,6.0852 -0.13142,5.4469 1.28,6.2131 1.20438,0.6539 1.16378,0.701 1.16378,-1.3532 0,-2.5582 -0.1454,-2.4497 1.82049,-1.3584 0.67883,0.377 1.66191,0.9087 2.18461,1.1818 1.5146,0.7916 1.42554,0.6123 1.42554,2.8701 0,2.2901 0.0177,2.326 1.48921,3.044 1.13813,0.5553 1.08586,0.8065 1.0883,-5.2355 l 0.002,-5.2376 -0.331,-0.3379 c -1.76903,-1.8056 -2.12786,-1.3882 -2.2381,2.6024 -0.014,0.5087 -0.26895,0.4912 -1.21456,-0.084 -0.42047,-0.2555 -1.43654,-0.8255 -2.25792,-1.2666 -2.14972,-1.1544 -1.98177,-0.874 -1.95707,-3.2697 0.0246,-2.3751 0.0956,-2.182 -1.03494,-2.8163 -0.88465,-0.4964 -1.15876,-0.5798 -1.32982,-0.4051 m 23.19708,0.4565 c -1.01227,0.6081 -1.02178,0.6347 -1.02408,2.8381 -0.002,2.1672 0.0117,2.1183 -0.74468,2.5969 -0.63918,0.4045 -4.48964,2.4693 -4.6049,2.4693 -0.0435,0 -0.079,-0.9004 -0.079,-2.0012 0,-1.1461 -0.0563,-2.0368 -0.13196,-2.0844 -0.14704,-0.093 -1.70346,0.6569 -2.07423,0.9991 -0.29611,0.2734 -0.37513,11.124 -0.0809,11.124 0.23664,0 1.92407,-0.9879 2.11306,-1.2371 0.11119,-0.1464 0.16753,-0.8539 0.17188,-2.158 0.007,-2.3006 -0.0949,-2.0919 1.42771,-2.909 0.67204,-0.3608 1.78654,-0.9647 2.47664,-1.342 1.57393,-0.8609 1.55846,-0.8721 1.52601,1.114 -0.0352,2.1456 -0.0414,2.0976 0.27601,2.0976 0.44993,0 1.75667,-0.8327 1.97105,-1.2562 0.20514,-0.4049 0.31158,-9.924 0.11676,-10.4422 -0.12328,-0.328 -0.58502,-0.2622 -1.33933,0.1911"
       stroke="none"
       fill-rule="evenodd"
       id="path2-6"
       style="isolation:isolate;stroke-width:0.137164;stroke:url(#linearGradient12);fill:#44a41a"
       fill="#cad6cc" /><path
       d="m 299.44696,1002.7968 c -2.01612,1.11 -3.97115,2.1807 -4.3445,2.3794 -2.34509,1.248 -2.51873,0.9899 2.44378,3.6339 0.74671,0.3979 1.90751,1.0213 2.57955,1.3854 0.67204,0.364 1.58181,0.8561 2.02169,1.0932 0.97059,0.5236 1.32643,0.5351 2.11917,0.069 0.33602,-0.1978 1.03861,-0.5815 1.56131,-0.853 0.52269,-0.2713 1.71404,-0.9287 2.64743,-1.4607 0.93339,-0.5322 1.85117,-1.0363 2.03947,-1.1201 2.60548,-1.1615 3.08474,-1.7892 1.85321,-2.4272 -1.18212,-0.6124 -0.48795,-0.8986 -8.0759,3.3279 -0.39657,0.2209 -0.77997,0.4016 -0.85193,0.4016 -0.13047,0 -4.86544,-2.5307 -5.31686,-2.8417 -0.2065,-0.1423 -0.0707,-0.2579 1.04404,-0.8882 l 1.28149,-0.7247 1.73197,0.9227 c 1.99766,1.0641 2.43727,1.0753 3.6874,0.093 l 0.31172,-0.2448 -0.58325,-0.3197 c -0.32082,-0.1759 -1.11749,-0.6056 -1.77025,-0.9548 l -1.187,-0.6351 0.98335,-0.5972 c 0.54075,-0.3284 1.05015,-0.5979 1.13188,-0.5988 0.83849,-0.01 0.64203,-0.7093 -0.34607,-1.2343 -1.10323,-0.586 -0.85872,-0.6646 -4.9617,1.5942 m -8.3948,7.0756 c -0.0498,0.051 -0.0906,2.5044 -0.0906,5.4524 0,6.0852 -0.13142,5.4469 1.28,6.2131 1.20438,0.6539 1.16378,0.701 1.16378,-1.3532 0,-2.5582 -0.1454,-2.4497 1.82049,-1.3584 0.67883,0.377 1.66191,0.9087 2.18461,1.1818 1.5146,0.7916 1.42554,0.6123 1.42554,2.8701 0,2.2901 0.0177,2.326 1.48921,3.044 1.13813,0.5553 1.08586,0.8065 1.0883,-5.2355 l 0.002,-5.2376 -0.331,-0.3379 c -1.76903,-1.8056 -2.12786,-1.3882 -2.2381,2.6024 -0.014,0.5087 -0.26895,0.4912 -1.21456,-0.084 -0.42047,-0.2555 -1.43654,-0.8255 -2.25792,-1.2666 -2.14972,-1.1544 -1.98177,-0.874 -1.95707,-3.2697 0.0246,-2.3751 0.0956,-2.182 -1.03494,-2.8163 -0.88465,-0.4964 -1.15876,-0.5798 -1.32982,-0.4051 m 23.19708,0.4565 c -1.01227,0.6081 -1.02178,0.6347 -1.02408,2.8381 -0.002,2.1672 0.0117,2.1183 -0.74468,2.5969 -0.63918,0.4045 -4.48964,2.4693 -4.6049,2.4693 -0.0435,0 -0.079,-0.9004 -0.079,-2.0012 0,-1.1461 -0.0563,-2.0368 -0.13196,-2.0844 -0.14704,-0.093 -1.70346,0.6569 -2.07423,0.9991 -0.29611,0.2734 -0.37513,11.124 -0.0809,11.124 0.23664,0 1.92407,-0.9879 2.11306,-1.2371 0.11119,-0.1464 0.16753,-0.8539 0.17188,-2.158 0.007,-2.3006 -0.0949,-2.0919 1.42771,-2.909 0.67204,-0.3608 1.78654,-0.9647 2.47664,-1.342 1.57393,-0.8609 1.55846,-0.8721 1.52601,1.114 -0.0352,2.1456 -0.0414,2.0976 0.27601,2.0976 0.44993,0 1.75667,-0.8327 1.97105,-1.2562 0.20514,-0.4049 0.31158,-9.924 0.11676,-10.4422 -0.12328,-0.328 -0.58502,-0.2622 -1.33933,0.1911"
       stroke="none"
       fill-rule="evenodd"
       id="path1-5"
       style="isolation:isolate;fill:#cad6cc;stroke:url(#linearGradient1);stroke-width:0.137164"
       fill="#44a41a" /></g><g
     id="g9767"
     style="isolation:isolate;mix-blend-mode:normal;stroke:url(#linearGradient9)"
     inkscape:label="#g9521"
     transform="translate(-139.03275,-59.694707)"><path
       d="m 298.4966,1000.9298 c -2.61349,1.4494 -5.69877,3.145 -6.85631,3.768 -1.1574,0.6231 -2.22601,1.2059 -2.37454,1.2955 -0.26474,0.1595 -0.27017,0.3241 -0.27153,8.0793 l -10e-4,7.9166 7.1277,3.9389 c 8.17392,4.5173 7.16083,4.1564 8.89266,3.1671 0.74671,-0.4264 2.549,-1.4459 4.00509,-2.2655 1.45609,-0.8194 3.41112,-1.9262 4.34451,-2.4593 0.93339,-0.5331 2.29281,-1.2956 3.02079,-1.6944 l 1.32371,-0.7252 v -8.0121 -8.0121 l -0.9843,-0.5102 c -0.95457,-0.4949 -4.73483,-2.546 -10.38622,-5.63529 -3.31893,-1.81439 -2.20321,-1.97778 -7.84034,1.14869 m 0.95036,1.867 c -2.01612,1.11 -3.97115,2.1807 -4.3445,2.3794 -2.34509,1.248 -2.51873,0.9899 2.44378,3.6339 0.74671,0.3979 1.90751,1.0213 2.57955,1.3854 0.67204,0.364 1.58181,0.8561 2.02169,1.0932 0.97059,0.5236 1.32643,0.5351 2.11917,0.069 0.33602,-0.1978 1.03861,-0.5815 1.56131,-0.853 0.52269,-0.2713 1.71404,-0.9287 2.64743,-1.4607 0.93339,-0.5322 1.85117,-1.0363 2.03947,-1.1201 2.60548,-1.1615 3.08474,-1.7892 1.85321,-2.4272 -1.18212,-0.6124 -0.48795,-0.8986 -8.0759,3.3279 -0.39657,0.2209 -0.77997,0.4016 -0.85193,0.4016 -0.13047,0 -4.86544,-2.5307 -5.31686,-2.8417 -0.2065,-0.1423 -0.0707,-0.2579 1.04404,-0.8882 l 1.28149,-0.7247 1.73197,0.9227 c 1.99766,1.0641 2.43727,1.0753 3.6874,0.093 l 0.31172,-0.2448 -0.58325,-0.3197 c -0.32082,-0.1759 -1.11749,-0.6056 -1.77025,-0.9548 l -1.187,-0.6351 0.98335,-0.5972 c 0.54075,-0.3284 1.05015,-0.5979 1.13188,-0.5988 0.83849,-0.01 0.64203,-0.7093 -0.34607,-1.2343 -1.10323,-0.586 -0.85872,-0.6646 -4.9617,1.5942 m -8.3948,7.0756 c -0.0498,0.051 -0.0906,2.5044 -0.0906,5.4524 0,6.0852 -0.13142,5.4469 1.28,6.2131 1.20438,0.6539 1.16378,0.701 1.16378,-1.3532 0,-2.5582 -0.1454,-2.4497 1.82049,-1.3584 0.67883,0.377 1.66191,0.9087 2.18461,1.1818 1.5146,0.7916 1.42554,0.6123 1.42554,2.8701 0,2.2901 0.0177,2.326 1.48921,3.044 1.13813,0.5553 1.08586,0.8065 1.0883,-5.2355 l 0.002,-5.2376 -0.331,-0.3379 c -1.76903,-1.8056 -2.12786,-1.3882 -2.2381,2.6024 -0.014,0.5087 -0.26895,0.4912 -1.21456,-0.084 -0.42047,-0.2555 -1.43654,-0.8255 -2.25792,-1.2666 -2.14972,-1.1544 -1.98177,-0.874 -1.95707,-3.2697 0.0246,-2.3751 0.0956,-2.182 -1.03494,-2.8163 -0.88465,-0.4964 -1.15876,-0.5798 -1.32982,-0.4051 m 23.19708,0.4565 c -1.01227,0.6081 -1.02178,0.6347 -1.02408,2.8381 -0.002,2.1672 0.0117,2.1183 -0.74468,2.5969 -0.63918,0.4045 -4.48964,2.4693 -4.6049,2.4693 -0.0435,0 -0.079,-0.9004 -0.079,-2.0012 0,-1.1461 -0.0563,-2.0368 -0.13196,-2.0844 -0.14704,-0.093 -1.70346,0.6569 -2.07423,0.9991 -0.29611,0.2734 -0.37513,11.124 -0.0809,11.124 0.23664,0 1.92407,-0.9879 2.11306,-1.2371 0.11119,-0.1464 0.16753,-0.8539 0.17188,-2.158 0.007,-2.3006 -0.0949,-2.0919 1.42771,-2.909 0.67204,-0.3608 1.78654,-0.9647 2.47664,-1.342 1.57393,-0.8609 1.55846,-0.8721 1.52601,1.114 -0.0352,2.1456 -0.0414,2.0976 0.27601,2.0976 0.44993,0 1.75667,-0.8327 1.97105,-1.2562 0.20514,-0.4049 0.31158,-9.924 0.11676,-10.4422 -0.12328,-0.328 -0.58502,-0.2622 -1.33933,0.1911"
       stroke="none"
       fill-rule="evenodd"
       id="path2-6-1"
       style="isolation:isolate;fill:#44a41a;stroke:url(#linearGradient7);stroke-width:0.137164"
       fill="#cad6cc" /><path
       d="m 299.44696,1002.7968 c -2.01612,1.11 -3.97115,2.1807 -4.3445,2.3794 -2.34509,1.248 -2.51873,0.9899 2.44378,3.6339 0.74671,0.3979 1.90751,1.0213 2.57955,1.3854 0.67204,0.364 1.58181,0.8561 2.02169,1.0932 0.97059,0.5236 1.32643,0.5351 2.11917,0.069 0.33602,-0.1978 1.03861,-0.5815 1.56131,-0.853 0.52269,-0.2713 1.71404,-0.9287 2.64743,-1.4607 0.93339,-0.5322 1.85117,-1.0363 2.03947,-1.1201 2.60548,-1.1615 3.08474,-1.7892 1.85321,-2.4272 -1.18212,-0.6124 -0.48795,-0.8986 -8.0759,3.3279 -0.39657,0.2209 -0.77997,0.4016 -0.85193,0.4016 -0.13047,0 -4.86544,-2.5307 -5.31686,-2.8417 -0.2065,-0.1423 -0.0707,-0.2579 1.04404,-0.8882 l 1.28149,-0.7247 1.73197,0.9227 c 1.99766,1.0641 2.43727,1.0753 3.6874,0.093 l 0.31172,-0.2448 -0.58325,-0.3197 c -0.32082,-0.1759 -1.11749,-0.6056 -1.77025,-0.9548 l -1.187,-0.6351 0.98335,-0.5972 c 0.54075,-0.3284 1.05015,-0.5979 1.13188,-0.5988 0.83849,-0.01 0.64203,-0.7093 -0.34607,-1.2343 -1.10323,-0.586 -0.85872,-0.6646 -4.9617,1.5942 m -8.3948,7.0756 c -0.0498,0.051 -0.0906,2.5044 -0.0906,5.4524 0,6.0852 -0.13142,5.4469 1.28,6.2131 1.20438,0.6539 1.16378,0.701 1.16378,-1.3532 0,-2.5582 -0.1454,-2.4497 1.82049,-1.3584 0.67883,0.377 1.66191,0.9087 2.18461,1.1818 1.5146,0.7916 1.42554,0.6123 1.42554,2.8701 0,2.2901 0.0177,2.326 1.48921,3.044 1.13813,0.5553 1.08586,0.8065 1.0883,-5.2355 l 0.002,-5.2376 -0.331,-0.3379 c -1.76903,-1.8056 -2.12786,-1.3882 -2.2381,2.6024 -0.014,0.5087 -0.26895,0.4912 -1.21456,-0.084 -0.42047,-0.2555 -1.43654,-0.8255 -2.25792,-1.2666 -2.14972,-1.1544 -1.98177,-0.874 -1.95707,-3.2697 0.0246,-2.3751 0.0956,-2.182 -1.03494,-2.8163 -0.88465,-0.4964 -1.15876,-0.5798 -1.32982,-0.4051 m 23.19708,0.4565 c -1.01227,0.6081 -1.02178,0.6347 -1.02408,2.8381 -0.002,2.1672 0.0117,2.1183 -0.74468,2.5969 -0.63918,0.4045 -4.48964,2.4693 -4.6049,2.4693 -0.0435,0 -0.079,-0.9004 -0.079,-2.0012 0,-1.1461 -0.0563,-2.0368 -0.13196,-2.0844 -0.14704,-0.093 -1.70346,0.6569 -2.07423,0.9991 -0.29611,0.2734 -0.37513,11.124 -0.0809,11.124 0.23664,0 1.92407,-0.9879 2.11306,-1.2371 0.11119,-0.1464 0.16753,-0.8539 0.17188,-2.158 0.007,-2.3006 -0.0949,-2.0919 1.42771,-2.909 0.67204,-0.3608 1.78654,-0.9647 2.47664,-1.342 1.57393,-0.8609 1.55846,-0.8721 1.52601,1.114 -0.0352,2.1456 -0.0414,2.0976 0.27601,2.0976 0.44993,0 1.75667,-0.8327 1.97105,-1.2562 0.20514,-0.4049 0.31158,-9.924 0.11676,-10.4422 -0.12328,-0.328 -0.58502,-0.2622 -1.33933,0.1911"
       stroke="none"
       fill-rule="evenodd"
       id="path1-5-3"
       style="isolation:isolate;fill:#cad6cc;stroke:url(#linearGradient8);stroke-width:0.137164"
       fill="#44a41a" /></g><path
     d="m 94.902511,985.96639 c -2.01612,1.11 -3.97115,2.18065 -4.3445,2.37937 -2.34509,1.24803 -2.51873,0.98986 2.44378,3.63391 0.74671,0.39786 1.90751,1.02132 2.57955,1.38536 0.67204,0.36404 1.58181,0.85613 2.02169,1.09324 0.97059,0.52354 1.32643,0.53504 2.11917,0.0685 0.336019,-0.19775 1.038609,-0.58147 1.561309,-0.85294 0.52269,-0.27133 1.71404,-0.92875 2.64743,-1.46074 0.93339,-0.53214 1.85117,-1.03628 2.03947,-1.12012 2.60548,-1.16142 3.08474,-1.78918 1.85321,-2.42719 -1.18212,-0.61237 -0.48795,-0.89853 -8.075899,3.32794 -0.39657,0.22089 -0.77997,0.4016 -0.85193,0.4016 -0.13047,0 -4.86544,-2.5307 -5.31686,-2.84167 -0.2065,-0.14232 -0.0707,-0.25789 1.04404,-0.88828 l 1.28149,-0.72462 1.73197,0.92265 c 1.99766,1.06413 2.437269,1.07536 3.687399,0.0935 l 0.31172,-0.24487 -0.58325,-0.3197 c -0.32082,-0.17585 -1.117489,-0.60558 -1.770249,-0.9548 l -1.187,-0.6351 0.98335,-0.59713 c 0.54075,-0.32842 1.050149,-0.59796 1.131879,-0.59879 0.83849,-0.009 0.64203,-0.70937 -0.346069,-1.23431 -1.10323,-0.58604 -0.85872,-0.66461 -4.9617,1.5942 m -8.3948,7.07562 c -0.0498,0.0507 -0.0906,2.50436 -0.0906,5.45232 0,6.08526 -0.13142,5.44696 1.28,6.21316 1.20438,0.6539 1.16378,0.701 1.16378,-1.3532 0,-2.5582 -0.1454,-2.4497 1.82049,-1.3584 0.67883,0.377 1.66191,0.9087 2.18461,1.1818 1.5146,0.7916 1.42554,0.6122 1.42554,2.8701 0,2.2901 0.0177,2.326 1.48921,3.044 1.13813,0.5552 1.08586,0.8065 1.0883,-5.2355 l 0.002,-5.23766 -0.331,-0.33785 c -1.76903,-1.80566 -2.12786,-1.38827 -2.2381,2.60231 -0.014,0.5088 -0.26895,0.4913 -1.21456,-0.083 -0.42047,-0.2556 -1.43654,-0.82551 -2.25792,-1.26661 -2.14972,-1.15448 -1.98177,-0.874 -1.95707,-3.26973 0.0246,-2.37507 0.0956,-2.18203 -1.03494,-2.8163 -0.88465,-0.49639 -1.15876,-0.57981 -1.32982,-0.40506 m 23.197079,0.45647 c -1.01227,0.60808 -1.02178,0.63468 -1.02408,2.83806 -0.002,2.16721 0.0117,2.11829 -0.74468,2.59694 -0.63918,0.40451 -4.48964,2.46923 -4.6049,2.46923 -0.0434,0 -0.079,-0.9004 -0.079,-2.00112 0,-1.14617 -0.0563,-2.0368 -0.13196,-2.08448 -0.14704,-0.0927 -1.70346,0.657 -2.07423,0.99915 -0.29611,0.27341 -0.37513,11.12395 -0.0809,11.12395 0.23664,0 1.92407,-0.9879 2.11306,-1.2371 0.11119,-0.1465 0.16753,-0.8539 0.17188,-2.1581 0.007,-2.3004 -0.0949,-2.0918 1.42771,-2.9089 0.67204,-0.3608 1.78654,-0.9647 2.47664,-1.342 1.57393,-0.8609 1.55846,-0.8721 1.52601,1.114 -0.0352,2.1456 -0.0414,2.0976 0.27601,2.0976 0.44993,0 1.75667,-0.8327 1.97105,-1.2562 0.20514,-0.4049 0.31158,-9.92399 0.11676,-10.44213 -0.12328,-0.32801 -0.58502,-0.26219 -1.33933,0.1911"
     stroke="none"
     fill="#44a41a"
     fill-rule="evenodd"
     id="path9523"
     style="isolation:isolate;stroke-width:0.137164" /><path
     d="m 95.140462,1024.7177 c -2.01612,1.11 -3.97115,2.1806 -4.3445,2.3794 -2.34509,1.248 -2.51873,0.9898 2.44378,3.6339 0.74671,0.3979 1.90751,1.0213 2.57955,1.3854 0.67204,0.364 1.58181,0.8561 2.02169,1.0932 0.97059,0.5235 1.32643,0.535 2.11917,0.069 0.336018,-0.1978 1.038608,-0.5815 1.561308,-0.8529 0.52269,-0.2714 1.71404,-0.9288 2.64743,-1.4608 0.93339,-0.5321 1.85117,-1.0363 2.03947,-1.1201 2.60548,-1.1615 3.08474,-1.7892 1.85321,-2.4272 -1.18212,-0.6124 -0.48795,-0.8986 -8.075898,3.3279 -0.39657,0.2209 -0.77997,0.4016 -0.85193,0.4016 -0.13047,0 -4.86544,-2.5307 -5.31686,-2.8417 -0.2065,-0.1423 -0.0707,-0.2578 1.04404,-0.8882 l 1.28149,-0.7247 1.73197,0.9227 c 1.99766,1.0641 2.437268,1.0754 3.687398,0.093 l 0.31172,-0.2449 -0.58325,-0.3197 c -0.32082,-0.1758 -1.11749,-0.6056 -1.770248,-0.9548 l -1.187,-0.6351 0.98335,-0.5971 c 0.54075,-0.3284 1.050148,-0.598 1.131878,-0.5988 0.83849,-0.01 0.64203,-0.7094 -0.34607,-1.2343 -1.103228,-0.586 -0.858718,-0.6646 -4.961698,1.5942 m -8.3948,7.0756 c -0.0498,0.051 -0.0906,2.5044 -0.0906,5.4524 0,6.0852 -0.13142,5.4469 1.28,6.2131 1.20438,0.6539 1.16378,0.701 1.16378,-1.3532 0,-2.5582 -0.1454,-2.4497 1.82049,-1.3584 0.67883,0.377 1.66191,0.9087 2.18461,1.1818 1.5146,0.7916 1.42554,0.6122 1.42554,2.8701 0,2.2901 0.0177,2.326 1.48921,3.044 1.13813,0.5552 1.08586,0.8065 1.0883,-5.2355 l 0.002,-5.2376 -0.331,-0.3379 c -1.76903,-1.8057 -2.12786,-1.3883 -2.2381,2.6023 -0.014,0.5088 -0.26895,0.4913 -1.21456,-0.083 -0.42047,-0.2556 -1.43654,-0.8255 -2.25792,-1.2666 -2.14972,-1.1545 -1.98177,-0.874 -1.95707,-3.2697 0.0246,-2.3751 0.0956,-2.1821 -1.03494,-2.8163 -0.88465,-0.4964 -1.15876,-0.5798 -1.32982,-0.4051 m 23.197078,0.4565 c -1.01227,0.6081 -1.02178,0.6347 -1.02408,2.838 -0.002,2.1673 0.0117,2.1183 -0.74468,2.597 -0.63918,0.4045 -4.48964,2.4692 -4.6049,2.4692 -0.0434,0 -0.079,-0.9004 -0.079,-2.0011 0,-1.1462 -0.0563,-2.0368 -0.13196,-2.0845 -0.14704,-0.093 -1.70346,0.657 -2.07423,0.9992 -0.29611,0.2734 -0.37513,11.1239 -0.0809,11.1239 0.23664,0 1.92407,-0.9879 2.11306,-1.2371 0.11119,-0.1465 0.16753,-0.8539 0.17188,-2.1581 0.007,-2.3004 -0.0949,-2.0918 1.42771,-2.9089 0.67204,-0.3608 1.78654,-0.9647 2.47664,-1.342 1.57393,-0.8609 1.55846,-0.8721 1.52601,1.114 -0.0352,2.1456 -0.0414,2.0976 0.27601,2.0976 0.44993,0 1.75667,-0.8327 1.97105,-1.2562 0.20514,-0.4049 0.31158,-9.924 0.11676,-10.4421 -0.12328,-0.328 -0.58502,-0.2622 -1.33933,0.1911"
     stroke="none"
     fill="#44a41a"
     fill-rule="evenodd"
     id="path357"
     style="isolation:isolate;fill:#1a1a1a;stroke-width:0.137164" /><path
     d="m 17.617494,1022.7325 c -2.01612,1.11 -3.97115,2.1806 -4.3445,2.3794 -2.34509,1.248 -2.51873,0.9898 2.44378,3.6339 0.74671,0.3979 1.90751,1.0213 2.57955,1.3854 0.67204,0.364 1.58181,0.8561 2.02169,1.0932 0.97059,0.5235 1.32643,0.535 2.11917,0.069 0.336018,-0.1978 1.038608,-0.5815 1.561308,-0.8529 0.52269,-0.2714 1.71404,-0.9288 2.64743,-1.4608 0.93339,-0.5321 1.85117,-1.0363 2.03947,-1.1201 2.60548,-1.1615 3.08474,-1.7892 1.85321,-2.4272 -1.18212,-0.6124 -0.48795,-0.8986 -8.075898,3.3279 -0.39657,0.2209 -0.77997,0.4016 -0.85193,0.4016 -0.13047,0 -4.86544,-2.5307 -5.31686,-2.8417 -0.2065,-0.1423 -0.0707,-0.2578 1.04404,-0.8882 l 1.28149,-0.7247 1.73197,0.9227 c 1.99766,1.0641 2.437268,1.0754 3.687398,0.093 l 0.31172,-0.2449 -0.58325,-0.3197 c -0.32082,-0.1758 -1.11749,-0.6056 -1.770248,-0.9548 l -1.187,-0.6351 0.98335,-0.5971 c 0.54075,-0.3284 1.050148,-0.598 1.131878,-0.5988 0.83849,-0.01 0.64203,-0.7094 -0.34607,-1.2343 -1.103228,-0.586 -0.858718,-0.6646 -4.961698,1.5942 m -8.3948004,7.0756 c -0.0498,0.051 -0.0906,2.5044 -0.0906,5.4524 0,6.0852 -0.13142,5.4469 1.2800004,6.2131 1.20438,0.6539 1.16378,0.701 1.16378,-1.3532 0,-2.5582 -0.1454,-2.4497 1.82049,-1.3584 0.67883,0.377 1.66191,0.9087 2.18461,1.1818 1.5146,0.7916 1.42554,0.6122 1.42554,2.8701 0,2.2901 0.0177,2.326 1.48921,3.044 1.13813,0.5552 1.08586,0.8065 1.0883,-5.2355 l 0.002,-5.2376 -0.331,-0.3379 c -1.76903,-1.8057 -2.12786,-1.3883 -2.2381,2.6023 -0.014,0.5088 -0.26895,0.4913 -1.21456,-0.083 -0.42047,-0.2556 -1.43654,-0.8255 -2.25792,-1.2666 -2.14972,-1.1545 -1.98177,-0.874 -1.95707,-3.2697 0.0246,-2.3751 0.0956,-2.1821 -1.03494,-2.8163 -0.8846504,-0.4964 -1.1587604,-0.5798 -1.3298204,-0.4051 m 23.1970784,0.4565 c -1.01227,0.6081 -1.02178,0.6347 -1.02408,2.838 -0.002,2.1673 0.0117,2.1183 -0.74468,2.597 -0.63918,0.4045 -4.48964,2.4692 -4.6049,2.4692 -0.0434,0 -0.079,-0.9004 -0.079,-2.0011 0,-1.1462 -0.0563,-2.0368 -0.13196,-2.0845 -0.14704,-0.093 -1.70346,0.657 -2.07423,0.9992 -0.29611,0.2734 -0.37513,11.1239 -0.0809,11.1239 0.23664,0 1.92407,-0.9879 2.11306,-1.2371 0.11119,-0.1465 0.16753,-0.8539 0.17188,-2.1581 0.007,-2.3004 -0.0949,-2.0918 1.42771,-2.9089 0.67204,-0.3608 1.78654,-0.9647 2.47664,-1.342 1.57393,-0.8609 1.55846,-0.8721 1.52601,1.114 -0.0352,2.1456 -0.0414,2.0976 0.27601,2.0976 0.44993,0 1.75667,-0.8327 1.97105,-1.2562 0.20514,-0.4049 0.31158,-9.924 0.11676,-10.4421 -0.12328,-0.328 -0.58502,-0.2622 -1.33933,0.1911"
     stroke="none"
     fill="#44a41a"
     fill-rule="evenodd"
     id="path406"
     style="isolation:isolate;fill:#ffffff;stroke-width:0.137164" /><g
     id="g9889"
     transform="matrix(0.13576581,0,0,0.13857729,14.293235,948.89351)"
     style="isolation:isolate"><path
       d="m 105.5,47.608 c -14.85,8.01 -29.25,15.736 -32,17.17 -17.273,9.006 -18.552,7.143 18,26.223 5.5,2.871 14.05,7.37 19,9.997 4.95,2.627 11.651,6.178 14.891,7.889 7.149,3.778 9.77,3.861 15.609,0.494 2.475,-1.427 7.65,-4.196 11.5,-6.155 3.85,-1.958 12.625,-6.702 19.5,-10.541 6.875,-3.84 13.635,-7.478 15.022,-8.083 19.191,-8.381 22.721,-12.911 13.65,-17.515 -8.707,-4.419 -3.594,-6.484 -59.484,24.015 -2.921,1.594 -5.745,2.898 -6.275,2.898 -0.961,0 -35.837,-18.262 -39.162,-20.506 -1.521,-1.027 -0.521,-1.861 7.69,-6.41 l 9.439,-5.229 12.757,6.658 c 14.714,7.679 17.952,7.76 27.16,0.675 l 2.296,-1.767 -4.296,-2.307 c -2.363,-1.269 -8.231,-4.37 -13.039,-6.89 l -8.743,-4.583 7.243,-4.309 c 3.983,-2.37 7.735,-4.315 8.337,-4.321 6.176,-0.063 4.729,-5.119 -2.549,-8.907 -8.126,-4.229 -6.325,-4.796 -36.546,11.504 M 43.667,98.667 C 43.3,99.033 43,116.739 43,138.012 c 0,43.912 -0.968,39.306 9.428,44.835 8.871,4.719 8.572,5.059 8.572,-9.765 0,-18.46 -1.071,-17.677 13.409,-9.802 5,2.72 12.241,6.557 16.091,8.528 11.156,5.712 10.5,4.418 10.5,20.711 0,16.526 0.13,16.785 10.969,21.966 8.383,4.007 7.998,5.82 8.016,-37.78 l 0.015,-37.796 -2.438,-2.438 c -13.03,-13.03 -15.673,-10.018 -16.485,18.779 -0.103,3.671 -1.981,3.545 -8.946,-0.602 -3.097,-1.844 -10.581,-5.957 -16.631,-9.14 -15.834,-8.331 -14.597,-6.307 -14.415,-23.595 0.181,-17.139 0.704,-15.746 -7.623,-20.323 -6.516,-3.582 -8.535,-4.184 -9.795,-2.923 m 170.861,3.294 c -7.456,4.388 -7.526,4.58 -7.543,20.48 -0.017,15.639 0.086,15.286 -5.485,18.74 C 196.792,144.1 168.431,159 167.582,159 167.262,159 167,152.502 167,144.559 c 0,-8.271 -0.415,-14.698 -0.972,-15.042 -1.083,-0.669 -12.547,4.741 -15.278,7.21 -2.181,1.973 -2.763,80.273 -0.596,80.273 1.743,0 14.172,-7.129 15.564,-8.927 0.819,-1.057 1.234,-6.162 1.266,-15.573 0.055,-16.601 -0.699,-15.095 10.516,-20.992 4.95,-2.603 13.159,-6.961 18.242,-9.684 11.593,-6.212 11.479,-6.293 11.24,8.039 -0.259,15.483 -0.305,15.137 2.033,15.137 3.314,0 12.939,-6.009 14.518,-9.065 1.511,-2.922 2.295,-71.614 0.86,-75.353 -0.908,-2.367 -4.309,-1.892 -9.865,1.379"
       stroke="none"
       fill="#44a41a"
       fill-rule="evenodd"
       id="path1-2" /><path
       d="M 98.5,34.135 C 79.25,44.594 56.525,56.83 47.999,61.326 c -8.525,4.496 -16.396,8.702 -17.49,9.348 -1.95,1.151 -1.99,2.339 -2,58.302 L 28.5,186.104 81,214.528 c 60.206,32.597 52.744,29.993 65.5,22.854 5.5,-3.077 18.775,-10.434 29.5,-16.348 10.725,-5.913 25.125,-13.9 32,-17.747 6.875,-3.847 16.888,-9.349 22.25,-12.227 L 240,185.827 V 128.01 70.193 l -7.25,-3.682 C 225.719,62.94 197.875,48.139 156.249,25.846 131.803,12.753 140.021,11.574 98.5,34.135 m 7,13.473 c -14.85,8.01 -29.25,15.736 -32,17.17 -17.273,9.006 -18.552,7.143 18,26.223 5.5,2.871 14.05,7.37 19,9.997 4.95,2.627 11.651,6.178 14.891,7.889 7.149,3.778 9.77,3.861 15.609,0.494 2.475,-1.427 7.65,-4.196 11.5,-6.155 3.85,-1.958 12.625,-6.702 19.5,-10.541 6.875,-3.84 13.635,-7.478 15.022,-8.083 19.191,-8.381 22.721,-12.911 13.65,-17.515 -8.707,-4.419 -3.594,-6.484 -59.484,24.015 -2.921,1.594 -5.745,2.898 -6.275,2.898 -0.961,0 -35.837,-18.262 -39.162,-20.506 -1.521,-1.027 -0.521,-1.861 7.69,-6.41 l 9.439,-5.229 12.757,6.658 c 14.714,7.679 17.952,7.76 27.16,0.675 l 2.296,-1.767 -4.296,-2.307 c -2.363,-1.269 -8.231,-4.37 -13.039,-6.89 l -8.743,-4.583 7.243,-4.309 c 3.983,-2.37 7.735,-4.315 8.337,-4.321 6.176,-0.063 4.729,-5.119 -2.549,-8.907 -8.126,-4.229 -6.325,-4.796 -36.546,11.504 M 43.667,98.667 C 43.3,99.033 43,116.739 43,138.012 c 0,43.912 -0.968,39.306 9.428,44.835 8.871,4.719 8.572,5.059 8.572,-9.765 0,-18.46 -1.071,-17.677 13.409,-9.802 5,2.72 12.241,6.557 16.091,8.528 11.156,5.712 10.5,4.418 10.5,20.711 0,16.526 0.13,16.785 10.969,21.966 8.383,4.007 7.998,5.82 8.016,-37.78 l 0.015,-37.796 -2.438,-2.438 c -13.03,-13.03 -15.673,-10.018 -16.485,18.779 -0.103,3.671 -1.981,3.545 -8.946,-0.602 -3.097,-1.844 -10.581,-5.957 -16.631,-9.14 -15.834,-8.331 -14.597,-6.307 -14.415,-23.595 0.181,-17.139 0.704,-15.746 -7.623,-20.323 -6.516,-3.582 -8.535,-4.184 -9.795,-2.923 m 170.861,3.294 c -7.456,4.388 -7.526,4.58 -7.543,20.48 -0.017,15.639 0.086,15.286 -5.485,18.74 C 196.792,144.1 168.431,159 167.582,159 167.262,159 167,152.502 167,144.559 c 0,-8.271 -0.415,-14.698 -0.972,-15.042 -1.083,-0.669 -12.547,4.741 -15.278,7.21 -2.181,1.973 -2.763,80.273 -0.596,80.273 1.743,0 14.172,-7.129 15.564,-8.927 0.819,-1.057 1.234,-6.162 1.266,-15.573 0.055,-16.601 -0.699,-15.095 10.516,-20.992 4.95,-2.603 13.159,-6.961 18.242,-9.684 11.593,-6.212 11.479,-6.293 11.24,8.039 -0.259,15.483 -0.305,15.137 2.033,15.137 3.314,0 12.939,-6.009 14.518,-9.065 1.511,-2.922 2.295,-71.614 0.86,-75.353 -0.908,-2.367 -4.309,-1.892 -9.865,1.379"
       stroke="none"
       fill="#cad6cc"
       fill-rule="evenodd"
       id="path2-63"
       style="fill:#ffffff" /></g><g
     id="g340"
     transform="matrix(0.13576581,0,0,0.13857729,-45.791031,953.0283)"
     style="isolation:isolate"><path
       d="m 105.5,47.608 c -14.85,8.01 -29.25,15.736 -32,17.17 -17.273,9.006 -18.552,7.143 18,26.223 5.5,2.871 14.05,7.37 19,9.997 4.95,2.627 11.651,6.178 14.891,7.889 7.149,3.778 9.77,3.861 15.609,0.494 2.475,-1.427 7.65,-4.196 11.5,-6.155 3.85,-1.958 12.625,-6.702 19.5,-10.541 6.875,-3.84 13.635,-7.478 15.022,-8.083 19.191,-8.381 22.721,-12.911 13.65,-17.515 -8.707,-4.419 -3.594,-6.484 -59.484,24.015 -2.921,1.594 -5.745,2.898 -6.275,2.898 -0.961,0 -35.837,-18.262 -39.162,-20.506 -1.521,-1.027 -0.521,-1.861 7.69,-6.41 l 9.439,-5.229 12.757,6.658 c 14.714,7.679 17.952,7.76 27.16,0.675 l 2.296,-1.767 -4.296,-2.307 c -2.363,-1.269 -8.231,-4.37 -13.039,-6.89 l -8.743,-4.583 7.243,-4.309 c 3.983,-2.37 7.735,-4.315 8.337,-4.321 6.176,-0.063 4.729,-5.119 -2.549,-8.907 -8.126,-4.229 -6.325,-4.796 -36.546,11.504 M 43.667,98.667 C 43.3,99.033 43,116.739 43,138.012 c 0,43.912 -0.968,39.306 9.428,44.835 8.871,4.719 8.572,5.059 8.572,-9.765 0,-18.46 -1.071,-17.677 13.409,-9.802 5,2.72 12.241,6.557 16.091,8.528 11.156,5.712 10.5,4.418 10.5,20.711 0,16.526 0.13,16.785 10.969,21.966 8.383,4.007 7.998,5.82 8.016,-37.78 l 0.015,-37.796 -2.438,-2.438 c -13.03,-13.03 -15.673,-10.018 -16.485,18.779 -0.103,3.671 -1.981,3.545 -8.946,-0.602 -3.097,-1.844 -10.581,-5.957 -16.631,-9.14 -15.834,-8.331 -14.597,-6.307 -14.415,-23.595 0.181,-17.139 0.704,-15.746 -7.623,-20.323 -6.516,-3.582 -8.535,-4.184 -9.795,-2.923 m 170.861,3.294 c -7.456,4.388 -7.526,4.58 -7.543,20.48 -0.017,15.639 0.086,15.286 -5.485,18.74 C 196.792,144.1 168.431,159 167.582,159 167.262,159 167,152.502 167,144.559 c 0,-8.271 -0.415,-14.698 -0.972,-15.042 -1.083,-0.669 -12.547,4.741 -15.278,7.21 -2.181,1.973 -2.763,80.273 -0.596,80.273 1.743,0 14.172,-7.129 15.564,-8.927 0.819,-1.057 1.234,-6.162 1.266,-15.573 0.055,-16.601 -0.699,-15.095 10.516,-20.992 4.95,-2.603 13.159,-6.961 18.242,-9.684 11.593,-6.212 11.479,-6.293 11.24,8.039 -0.259,15.483 -0.305,15.137 2.033,15.137 3.314,0 12.939,-6.009 14.518,-9.065 1.511,-2.922 2.295,-71.614 0.86,-75.353 -0.908,-2.367 -4.309,-1.892 -9.865,1.379"
       stroke="none"
       fill="#44a41a"
       fill-rule="evenodd"
       id="path1-2-4" /><path
       d="M 98.5,34.135 C 79.25,44.594 56.525,56.83 47.999,61.326 c -8.525,4.496 -16.396,8.702 -17.49,9.348 -1.95,1.151 -1.99,2.339 -2,58.302 L 28.5,186.104 81,214.528 c 60.206,32.597 52.744,29.993 65.5,22.854 5.5,-3.077 18.775,-10.434 29.5,-16.348 10.725,-5.913 25.125,-13.9 32,-17.747 6.875,-3.847 16.888,-9.349 22.25,-12.227 L 240,185.827 V 128.01 70.193 l -7.25,-3.682 C 225.719,62.94 197.875,48.139 156.249,25.846 131.803,12.753 140.021,11.574 98.5,34.135 m 7,13.473 c -14.85,8.01 -29.25,15.736 -32,17.17 -17.273,9.006 -18.552,7.143 18,26.223 5.5,2.871 14.05,7.37 19,9.997 4.95,2.627 11.651,6.178 14.891,7.889 7.149,3.778 9.77,3.861 15.609,0.494 2.475,-1.427 7.65,-4.196 11.5,-6.155 3.85,-1.958 12.625,-6.702 19.5,-10.541 6.875,-3.84 13.635,-7.478 15.022,-8.083 19.191,-8.381 22.721,-12.911 13.65,-17.515 -8.707,-4.419 -3.594,-6.484 -59.484,24.015 -2.921,1.594 -5.745,2.898 -6.275,2.898 -0.961,0 -35.837,-18.262 -39.162,-20.506 -1.521,-1.027 -0.521,-1.861 7.69,-6.41 l 9.439,-5.229 12.757,6.658 c 14.714,7.679 17.952,7.76 27.16,0.675 l 2.296,-1.767 -4.296,-2.307 c -2.363,-1.269 -8.231,-4.37 -13.039,-6.89 l -8.743,-4.583 7.243,-4.309 c 3.983,-2.37 7.735,-4.315 8.337,-4.321 6.176,-0.063 4.729,-5.119 -2.549,-8.907 -8.126,-4.229 -6.325,-4.796 -36.546,11.504 M 43.667,98.667 C 43.3,99.033 43,116.739 43,138.012 c 0,43.912 -0.968,39.306 9.428,44.835 8.871,4.719 8.572,5.059 8.572,-9.765 0,-18.46 -1.071,-17.677 13.409,-9.802 5,2.72 12.241,6.557 16.091,8.528 11.156,5.712 10.5,4.418 10.5,20.711 0,16.526 0.13,16.785 10.969,21.966 8.383,4.007 7.998,5.82 8.016,-37.78 l 0.015,-37.796 -2.438,-2.438 c -13.03,-13.03 -15.673,-10.018 -16.485,18.779 -0.103,3.671 -1.981,3.545 -8.946,-0.602 -3.097,-1.844 -10.581,-5.957 -16.631,-9.14 -15.834,-8.331 -14.597,-6.307 -14.415,-23.595 0.181,-17.139 0.704,-15.746 -7.623,-20.323 -6.516,-3.582 -8.535,-4.184 -9.795,-2.923 m 170.861,3.294 c -7.456,4.388 -7.526,4.58 -7.543,20.48 -0.017,15.639 0.086,15.286 -5.485,18.74 C 196.792,144.1 168.431,159 167.582,159 167.262,159 167,152.502 167,144.559 c 0,-8.271 -0.415,-14.698 -0.972,-15.042 -1.083,-0.669 -12.547,4.741 -15.278,7.21 -2.181,1.973 -2.763,80.273 -0.596,80.273 1.743,0 14.172,-7.129 15.564,-8.927 0.819,-1.057 1.234,-6.162 1.266,-15.573 0.055,-16.601 -0.699,-15.095 10.516,-20.992 4.95,-2.603 13.159,-6.961 18.242,-9.684 11.593,-6.212 11.479,-6.293 11.24,8.039 -0.259,15.483 -0.305,15.137 2.033,15.137 3.314,0 12.939,-6.009 14.518,-9.065 1.511,-2.922 2.295,-71.614 0.86,-75.353 -0.908,-2.367 -4.309,-1.892 -9.865,1.379"
       stroke="none"
       fill="#cad6cc"
       fill-rule="evenodd"
       id="path2-63-7"
       style="fill:#ffffff" /></g><g
     id="g763"
     transform="matrix(0.13576581,0,0,0.13857729,-41.030581,900.84346)"
     style="isolation:isolate"><path
       d="m 105.5,47.608 c -14.85,8.01 -29.25,15.736 -32,17.17 -17.273,9.006 -18.552,7.143 18,26.223 5.5,2.871 14.05,7.37 19,9.997 4.95,2.627 11.651,6.178 14.891,7.889 7.149,3.778 9.77,3.861 15.609,0.494 2.475,-1.427 7.65,-4.196 11.5,-6.155 3.85,-1.958 12.625,-6.702 19.5,-10.541 6.875,-3.84 13.635,-7.478 15.022,-8.083 19.191,-8.381 22.721,-12.911 13.65,-17.515 -8.707,-4.419 -3.594,-6.484 -59.484,24.015 -2.921,1.594 -5.745,2.898 -6.275,2.898 -0.961,0 -35.837,-18.262 -39.162,-20.506 -1.521,-1.027 -0.521,-1.861 7.69,-6.41 l 9.439,-5.229 12.757,6.658 c 14.714,7.679 17.952,7.76 27.16,0.675 l 2.296,-1.767 -4.296,-2.307 c -2.363,-1.269 -8.231,-4.37 -13.039,-6.89 l -8.743,-4.583 7.243,-4.309 c 3.983,-2.37 7.735,-4.315 8.337,-4.321 6.176,-0.063 4.729,-5.119 -2.549,-8.907 -8.126,-4.229 -6.325,-4.796 -36.546,11.504 M 43.667,98.667 C 43.3,99.033 43,116.739 43,138.012 c 0,43.912 -0.968,39.306 9.428,44.835 8.871,4.719 8.572,5.059 8.572,-9.765 0,-18.46 -1.071,-17.677 13.409,-9.802 5,2.72 12.241,6.557 16.091,8.528 11.156,5.712 10.5,4.418 10.5,20.711 0,16.526 0.13,16.785 10.969,21.966 8.383,4.007 7.998,5.82 8.016,-37.78 l 0.015,-37.796 -2.438,-2.438 c -13.03,-13.03 -15.673,-10.018 -16.485,18.779 -0.103,3.671 -1.981,3.545 -8.946,-0.602 -3.097,-1.844 -10.581,-5.957 -16.631,-9.14 -15.834,-8.331 -14.597,-6.307 -14.415,-23.595 0.181,-17.139 0.704,-15.746 -7.623,-20.323 -6.516,-3.582 -8.535,-4.184 -9.795,-2.923 m 170.861,3.294 c -7.456,4.388 -7.526,4.58 -7.543,20.48 -0.017,15.639 0.086,15.286 -5.485,18.74 C 196.792,144.1 168.431,159 167.582,159 167.262,159 167,152.502 167,144.559 c 0,-8.271 -0.415,-14.698 -0.972,-15.042 -1.083,-0.669 -12.547,4.741 -15.278,7.21 -2.181,1.973 -2.763,80.273 -0.596,80.273 1.743,0 14.172,-7.129 15.564,-8.927 0.819,-1.057 1.234,-6.162 1.266,-15.573 0.055,-16.601 -0.699,-15.095 10.516,-20.992 4.95,-2.603 13.159,-6.961 18.242,-9.684 11.593,-6.212 11.479,-6.293 11.24,8.039 -0.259,15.483 -0.305,15.137 2.033,15.137 3.314,0 12.939,-6.009 14.518,-9.065 1.511,-2.922 2.295,-71.614 0.86,-75.353 -0.908,-2.367 -4.309,-1.892 -9.865,1.379"
       stroke="none"
       fill="#44a41a"
       fill-rule="evenodd"
       id="path1-2-4-3" /><path
       d="M 98.5,34.135 C 79.25,44.594 56.525,56.83 47.999,61.326 c -8.525,4.496 -16.396,8.702 -17.49,9.348 -1.95,1.151 -1.99,2.339 -2,58.302 L 28.5,186.104 81,214.528 c 60.206,32.597 52.744,29.993 65.5,22.854 5.5,-3.077 18.775,-10.434 29.5,-16.348 10.725,-5.913 25.125,-13.9 32,-17.747 6.875,-3.847 16.888,-9.349 22.25,-12.227 L 240,185.827 V 128.01 70.193 l -7.25,-3.682 C 225.719,62.94 197.875,48.139 156.249,25.846 131.803,12.753 140.021,11.574 98.5,34.135 m 7,13.473 c -14.85,8.01 -29.25,15.736 -32,17.17 -17.273,9.006 -18.552,7.143 18,26.223 5.5,2.871 14.05,7.37 19,9.997 4.95,2.627 11.651,6.178 14.891,7.889 7.149,3.778 9.77,3.861 15.609,0.494 2.475,-1.427 7.65,-4.196 11.5,-6.155 3.85,-1.958 12.625,-6.702 19.5,-10.541 6.875,-3.84 13.635,-7.478 15.022,-8.083 19.191,-8.381 22.721,-12.911 13.65,-17.515 -8.707,-4.419 -3.594,-6.484 -59.484,24.015 -2.921,1.594 -5.745,2.898 -6.275,2.898 -0.961,0 -35.837,-18.262 -39.162,-20.506 -1.521,-1.027 -0.521,-1.861 7.69,-6.41 l 9.439,-5.229 12.757,6.658 c 14.714,7.679 17.952,7.76 27.16,0.675 l 2.296,-1.767 -4.296,-2.307 c -2.363,-1.269 -8.231,-4.37 -13.039,-6.89 l -8.743,-4.583 7.243,-4.309 c 3.983,-2.37 7.735,-4.315 8.337,-4.321 6.176,-0.063 4.729,-5.119 -2.549,-8.907 -8.126,-4.229 -6.325,-4.796 -36.546,11.504 M 43.667,98.667 C 43.3,99.033 43,116.739 43,138.012 c 0,43.912 -0.968,39.306 9.428,44.835 8.871,4.719 8.572,5.059 8.572,-9.765 0,-18.46 -1.071,-17.677 13.409,-9.802 5,2.72 12.241,6.557 16.091,8.528 11.156,5.712 10.5,4.418 10.5,20.711 0,16.526 0.13,16.785 10.969,21.966 8.383,4.007 7.998,5.82 8.016,-37.78 l 0.015,-37.796 -2.438,-2.438 c -13.03,-13.03 -15.673,-10.018 -16.485,18.779 -0.103,3.671 -1.981,3.545 -8.946,-0.602 -3.097,-1.844 -10.581,-5.957 -16.631,-9.14 -15.834,-8.331 -14.597,-6.307 -14.415,-23.595 0.181,-17.139 0.704,-15.746 -7.623,-20.323 -6.516,-3.582 -8.535,-4.184 -9.795,-2.923 m 170.861,3.294 c -7.456,4.388 -7.526,4.58 -7.543,20.48 -0.017,15.639 0.086,15.286 -5.485,18.74 C 196.792,144.1 168.431,159 167.582,159 167.262,159 167,152.502 167,144.559 c 0,-8.271 -0.415,-14.698 -0.972,-15.042 -1.083,-0.669 -12.547,4.741 -15.278,7.21 -2.181,1.973 -2.763,80.273 -0.596,80.273 1.743,0 14.172,-7.129 15.564,-8.927 0.819,-1.057 1.234,-6.162 1.266,-15.573 0.055,-16.601 -0.699,-15.095 10.516,-20.992 4.95,-2.603 13.159,-6.961 18.242,-9.684 11.593,-6.212 11.479,-6.293 11.24,8.039 -0.259,15.483 -0.305,15.137 2.033,15.137 3.314,0 12.939,-6.009 14.518,-9.065 1.511,-2.922 2.295,-71.614 0.86,-75.353 -0.908,-2.367 -4.309,-1.892 -9.865,1.379"
       stroke="none"
       fill="#cad6cc"
       fill-rule="evenodd"
       id="path2-63-7-8"
       style="fill:#ffffff" /></g></svg>
