<svg id="svg" version="1.1" xmlns="http://www.w3.org/2000/svg" xmlns:xlink="http://www.w3.org/1999/xlink" width="400" height="114.61483081353491" viewBox="0, 0, 400,114.61483081353491"><g id="svgg"><path id="path0" d="M0.000 57.250 L 0.000 114.500 200.000 114.500 L 400.000 114.500 400.000 57.250 L 400.000 0.000 200.000 0.000 L 0.000 0.000 0.000 57.250 M202.355 10.216 C 202.939 10.519,205.929 12.120,209.000 13.775 C 215.263 17.151,222.200 20.831,224.833 22.175 C 225.796 22.666,226.715 23.176,226.875 23.310 C 227.254 23.624,227.335 52.395,226.958 52.860 C 226.844 53.002,226.000 53.514,225.083 53.998 C 224.167 54.482,221.354 56.021,218.833 57.417 C 216.313 58.813,212.037 61.176,209.333 62.667 C 206.629 64.159,203.704 65.795,202.833 66.304 C 200.130 67.882,201.085 68.229,186.750 60.463 C 183.450 58.676,179.100 56.327,177.083 55.245 C 175.067 54.162,173.285 53.165,173.125 53.029 C 172.577 52.564,172.780 24.134,173.335 23.606 C 173.472 23.476,175.383 22.415,177.583 21.247 C 182.894 18.429,187.117 16.152,192.667 13.113 C 199.664 9.281,200.225 9.113,202.355 10.216 M156.476 77.904 C 157.164 78.260,157.333 78.823,157.333 80.758 L 157.333 82.500 159.250 82.500 L 161.167 82.500 161.167 80.742 C 161.167 78.257,161.722 77.452,163.240 77.737 C 164.485 77.971,164.500 78.045,164.500 84.020 L 164.500 89.328 164.017 89.869 C 163.365 90.598,162.390 90.633,161.708 89.951 C 161.270 89.513,161.246 89.405,161.167 87.455 L 161.083 85.417 159.250 85.417 L 157.417 85.417 157.333 87.455 C 157.254 89.405,157.230 89.513,156.792 89.951 C 156.110 90.633,155.135 90.598,154.483 89.869 L 154.000 89.328 154.004 84.039 C 154.007 79.279,154.036 78.715,154.295 78.397 C 154.896 77.660,155.667 77.486,156.476 77.904 M209.142 77.904 C 209.802 78.245,210.000 78.827,210.000 80.425 C 210.000 81.995,209.987 81.976,210.677 81.466 C 211.910 80.555,214.326 80.997,215.223 82.298 C 216.374 83.968,216.341 89.705,215.176 90.328 C 213.598 91.173,212.882 90.234,212.805 87.218 C 212.736 84.579,212.499 84.000,211.485 84.000 C 210.249 84.000,210.000 84.531,210.000 87.167 C 210.000 89.867,209.673 90.500,208.276 90.500 C 207.833 90.500,207.594 90.379,207.265 89.987 L 206.833 89.474 206.833 84.058 L 206.833 78.641 207.321 78.154 C 207.862 77.612,208.428 77.535,209.142 77.904 M222.789 77.921 C 222.989 78.061,223.721 78.996,224.415 79.998 C 225.110 81.001,225.733 81.855,225.800 81.896 C 225.867 81.937,226.559 81.060,227.339 79.947 C 229.060 77.491,229.815 77.112,230.829 78.200 C 231.526 78.948,231.319 79.510,229.246 82.500 L 227.339 85.250 227.336 87.466 C 227.333 90.067,227.122 90.500,225.856 90.500 C 224.621 90.500,224.333 89.904,224.333 87.351 L 224.333 85.227 222.417 82.413 C 220.288 79.287,220.179 78.962,220.987 78.154 C 221.536 77.605,222.213 77.518,222.789 77.921 M171.683 81.190 C 173.631 81.842,173.992 82.685,173.996 86.602 L 174.000 89.621 173.561 90.061 C 173.006 90.616,172.077 90.656,171.437 90.153 L 170.996 89.806 170.279 90.153 C 167.400 91.546,164.399 88.991,165.657 86.219 C 166.285 84.838,168.350 84.121,170.217 84.636 C 170.771 84.789,170.833 84.774,170.833 84.490 C 170.833 83.836,170.124 83.610,168.389 83.714 C 166.151 83.847,165.104 82.677,166.520 81.625 C 167.323 81.028,170.421 80.767,171.683 81.190 M177.721 81.433 L 178.153 81.865 178.701 81.476 C 179.830 80.671,182.018 80.870,183.119 81.876 L 183.487 82.213 184.073 81.698 C 185.677 80.290,188.679 80.901,189.560 82.815 C 190.337 84.504,190.139 89.650,189.273 90.257 C 187.778 91.304,186.835 90.247,186.829 87.519 C 186.823 84.331,186.576 83.667,185.397 83.667 C 184.375 83.667,184.167 84.192,184.167 86.778 C 184.167 89.822,183.855 90.506,182.469 90.496 C 181.168 90.488,180.843 89.690,180.837 86.490 C 180.833 84.094,180.646 83.667,179.606 83.667 C 178.468 83.667,178.262 84.161,178.167 87.111 C 178.083 89.694,178.083 89.697,177.616 90.098 C 176.997 90.630,176.169 90.629,175.551 90.098 L 175.083 89.696 175.083 85.778 C 175.083 81.861,175.083 81.860,175.487 81.430 C 176.056 80.825,177.114 80.826,177.721 81.433 M193.641 81.421 L 194.141 81.841 194.823 81.486 C 196.055 80.844,197.167 81.382,197.167 82.620 C 197.167 83.322,196.711 83.775,195.767 84.013 C 194.433 84.349,194.263 84.691,194.167 87.221 C 194.061 90.016,193.806 90.500,192.442 90.500 C 192.000 90.500,191.761 90.379,191.431 89.987 L 191.000 89.474 191.000 85.678 L 191.000 81.882 191.409 81.441 C 191.966 80.840,192.941 80.831,193.641 81.421 M204.249 81.583 C 205.621 82.437,205.750 82.863,205.750 86.556 L 205.750 89.696 205.282 90.098 C 204.674 90.621,203.715 90.642,203.179 90.143 L 202.796 89.785 202.060 90.143 C 199.228 91.519,196.239 89.043,197.394 86.279 C 198.007 84.812,200.656 83.995,202.375 84.742 C 202.850 84.949,202.729 84.407,202.208 83.993 C 201.790 83.659,201.617 83.636,200.213 83.717 C 198.066 83.841,196.960 82.754,198.168 81.707 C 199.194 80.817,202.896 80.742,204.249 81.583 M236.948 81.406 C 238.554 82.154,238.740 82.646,238.804 86.334 L 238.859 89.444 238.414 89.972 C 237.863 90.628,236.964 90.698,236.256 90.142 L 235.800 89.783 235.062 90.142 C 232.287 91.490,229.309 89.119,230.344 86.386 C 230.911 84.890,233.353 84.009,235.096 84.671 C 235.628 84.874,235.734 84.808,235.593 84.364 C 235.418 83.811,234.629 83.608,233.085 83.717 C 231.037 83.862,230.040 82.796,231.208 81.709 C 232.089 80.890,235.458 80.712,236.948 81.406 M242.475 81.476 C 242.910 81.952,242.912 81.952,243.336 81.638 C 244.080 81.088,244.857 81.067,245.468 81.582 C 246.440 82.400,246.001 83.626,244.610 83.976 C 243.111 84.353,242.844 84.938,242.837 87.852 C 242.833 89.935,242.515 90.500,241.348 90.500 C 239.817 90.500,239.635 89.941,239.699 85.428 L 239.750 81.804 240.218 81.402 C 240.903 80.813,241.897 80.845,242.475 81.476 M169.171 86.686 C 168.447 86.975,168.339 87.339,168.833 87.833 C 169.589 88.589,171.404 87.893,170.869 87.052 C 170.589 86.612,169.789 86.439,169.171 86.686 M201.083 86.625 C 200.276 86.813,200.081 87.471,200.704 87.907 C 201.408 88.401,202.667 88.082,202.667 87.410 C 202.667 86.826,201.885 86.438,201.083 86.625 M234.032 86.623 C 233.821 86.661,233.561 86.883,233.455 87.116 C 233.109 87.875,234.165 88.412,235.216 88.013 C 236.391 87.566,235.380 86.380,234.032 86.623 M158.905 95.596 C 159.050 95.740,159.401 96.197,159.686 96.611 C 159.970 97.025,160.257 97.300,160.323 97.223 C 160.388 97.146,160.724 96.690,161.069 96.208 C 161.737 95.274,162.235 95.092,162.738 95.595 C 163.159 96.016,163.054 96.363,162.083 97.758 C 161.218 99.000,161.167 99.131,161.167 100.083 C 161.167 101.243,160.857 101.833,160.250 101.833 C 159.648 101.833,159.333 101.242,159.333 100.110 C 159.333 99.188,159.276 99.046,158.417 97.819 C 157.506 96.519,157.317 95.916,157.700 95.533 C 157.981 95.253,158.594 95.284,158.905 95.596 M214.238 95.595 C 214.455 95.812,214.500 96.327,214.500 98.583 C 214.500 100.839,214.455 101.355,214.238 101.571 C 213.929 101.880,213.314 101.914,213.038 101.638 C 212.888 101.488,212.742 101.488,212.413 101.638 C 210.863 102.344,209.335 101.211,209.334 99.353 C 209.333 97.552,210.700 96.490,212.292 97.056 C 212.632 97.177,212.667 97.138,212.667 96.632 C 212.667 95.549,213.586 94.943,214.238 95.595 M225.195 95.609 C 225.436 95.827,225.500 96.135,225.501 97.067 L 225.503 98.250 226.095 97.625 C 226.755 96.929,227.352 96.815,227.704 97.319 C 227.980 97.712,228.532 97.248,228.726 96.461 C 228.930 95.632,230.002 95.623,230.376 96.446 C 230.490 96.696,230.752 97.070,230.958 97.276 C 231.436 97.754,231.430 97.927,230.917 98.402 C 230.330 98.945,230.317 100.105,230.894 100.325 C 231.507 100.558,231.668 101.142,231.238 101.571 C 230.241 102.568,228.787 101.657,228.698 99.978 C 228.648 99.046,228.552 98.663,228.299 98.388 L 227.967 98.026 227.451 98.614 C 226.949 99.186,226.942 99.214,227.212 99.643 C 228.023 100.931,228.082 101.133,227.753 101.496 C 227.280 102.019,226.816 101.914,226.130 101.128 C 225.556 100.470,225.510 100.447,225.505 100.820 C 225.491 101.967,223.684 102.159,223.661 101.016 C 223.657 100.777,223.635 100.776,223.453 101.008 C 222.557 102.145,219.667 102.097,219.667 100.946 C 219.667 100.328,220.031 100.129,220.948 100.244 L 221.750 100.344 220.917 100.008 C 220.458 99.823,219.960 99.522,219.809 99.339 C 219.537 99.009,219.534 99.009,219.436 99.400 C 219.319 99.867,218.931 99.993,217.583 100.003 C 216.783 100.009,216.645 100.046,216.894 100.191 C 217.077 100.297,217.531 100.328,217.996 100.266 C 219.186 100.108,219.681 101.107,218.667 101.618 C 217.006 102.455,214.667 101.197,214.667 99.467 C 214.667 97.068,217.932 96.010,219.151 98.015 L 219.454 98.513 219.667 97.999 C 220.161 96.807,222.708 96.602,223.393 97.699 C 223.692 98.177,223.067 98.711,222.339 98.600 L 221.750 98.510 222.307 98.719 C 222.613 98.834,223.044 99.102,223.265 99.315 L 223.667 99.702 223.667 97.822 C 223.667 95.474,224.197 94.706,225.195 95.609 M201.679 96.477 C 201.824 96.786,202.068 97.108,202.222 97.194 C 202.620 97.417,202.584 98.277,202.167 98.500 C 201.644 98.780,201.689 100.120,202.227 100.325 C 203.232 100.707,202.738 101.833,201.566 101.833 C 200.396 101.833,200.000 101.336,200.000 99.867 C 200.000 98.930,199.939 98.663,199.667 98.417 C 199.483 98.251,199.333 97.942,199.333 97.730 C 199.333 97.516,199.481 97.266,199.667 97.167 C 199.850 97.069,200.000 96.818,200.000 96.611 C 200.000 95.647,201.243 95.549,201.679 96.477 M166.361 97.292 C 168.487 98.543,167.538 101.833,165.050 101.833 C 162.497 101.833,161.498 98.707,163.607 97.316 C 164.231 96.905,165.681 96.892,166.361 97.292 M169.407 97.370 C 169.578 97.615,169.667 98.115,169.667 98.837 C 169.667 100.206,169.993 100.650,170.571 100.071 C 170.761 99.882,170.833 99.478,170.833 98.605 C 170.833 97.280,170.983 97.000,171.691 97.000 C 172.461 97.000,172.667 97.510,172.667 99.417 C 172.667 101.443,172.446 101.930,171.604 101.759 C 170.993 101.635,170.842 101.635,169.792 101.767 C 168.415 101.940,167.833 101.169,167.833 99.172 C 167.833 97.073,168.591 96.205,169.407 97.370 M174.411 97.157 C 174.470 97.254,174.692 97.249,174.992 97.145 C 176.160 96.737,176.729 98.116,175.589 98.592 C 174.851 98.900,174.667 99.261,174.667 100.394 C 174.667 101.412,174.397 101.833,173.748 101.833 C 173.046 101.833,172.833 101.271,172.833 99.417 C 172.833 97.492,173.037 97.000,173.833 97.000 C 174.097 97.000,174.357 97.071,174.411 97.157 M179.917 97.176 C 180.008 97.178,180.278 97.133,180.515 97.076 C 181.572 96.820,181.893 98.187,180.875 98.611 C 180.066 98.947,180.006 99.060,180.003 100.237 C 179.999 101.665,179.277 102.287,178.471 101.558 C 178.211 101.321,178.167 101.011,178.167 99.403 C 178.167 97.243,178.327 96.893,179.235 97.071 C 179.518 97.127,179.825 97.174,179.917 97.176 M185.517 97.607 C 186.780 98.869,186.319 100.000,184.542 100.000 C 183.819 100.000,183.516 100.058,183.592 100.181 C 183.659 100.289,184.080 100.340,184.622 100.306 C 185.791 100.234,186.236 100.671,185.686 101.351 C 184.796 102.450,181.924 101.648,181.484 100.178 C 180.762 97.768,183.764 95.854,185.517 97.607 M188.083 97.165 C 188.175 97.161,188.608 97.114,189.045 97.062 C 189.628 96.991,189.951 97.039,190.257 97.240 C 190.635 97.487,190.710 97.489,191.041 97.257 C 191.877 96.671,193.349 97.038,193.814 97.947 C 194.119 98.544,194.054 101.165,193.724 101.529 C 192.948 102.386,192.168 101.623,192.164 100.005 C 192.159 97.862,191.298 97.802,191.167 99.935 C 191.008 102.502,189.333 102.731,189.333 100.187 C 189.333 97.959,188.290 97.800,188.200 100.013 C 188.147 101.329,187.892 101.833,187.279 101.833 C 186.495 101.833,186.333 101.417,186.333 99.403 C 186.333 97.243,186.494 96.893,187.402 97.071 C 187.685 97.127,187.992 97.169,188.083 97.165 M198.301 97.337 C 200.379 98.604,199.359 101.834,196.882 101.833 C 194.738 101.832,193.514 99.309,194.931 97.812 C 195.781 96.913,197.263 96.704,198.301 97.337 M206.686 97.647 C 207.991 98.951,207.555 100.000,205.708 100.000 C 204.964 100.000,204.682 100.056,204.763 100.188 C 204.838 100.309,205.196 100.343,205.773 100.283 C 207.268 100.129,207.768 101.153,206.444 101.656 C 205.062 102.182,203.352 101.611,202.824 100.449 C 201.702 97.976,204.781 95.742,206.686 97.647 M235.293 97.332 C 237.358 98.591,236.610 101.561,234.169 101.795 C 231.538 102.048,230.310 98.830,232.483 97.378 C 233.223 96.884,234.523 96.863,235.293 97.332 M238.115 97.182 C 238.247 97.314,238.392 97.314,238.638 97.182 C 240.072 96.415,241.689 97.441,241.797 99.187 C 241.907 100.968,241.016 101.919,239.375 101.770 C 238.501 101.691,238.500 101.691,238.500 102.179 C 238.500 103.085,237.728 103.558,237.037 103.074 C 236.623 102.784,236.460 98.031,236.839 97.322 C 237.030 96.966,237.814 96.880,238.115 97.182 M211.519 98.605 C 210.982 98.982,211.028 99.956,211.594 100.171 C 212.305 100.441,212.695 100.114,212.634 99.299 C 212.574 98.491,212.102 98.197,211.519 98.605 M164.706 98.611 C 163.940 98.920,164.175 100.167,165.000 100.167 C 165.830 100.167,166.069 99.060,165.325 98.662 C 165.158 98.573,164.998 98.506,164.969 98.513 C 164.940 98.520,164.822 98.564,164.706 98.611 M196.458 98.680 C 195.830 99.046,196.196 100.167,196.944 100.167 C 197.626 100.167,197.861 99.361,197.333 98.833 C 196.957 98.457,196.868 98.441,196.458 98.680 M233.534 98.762 C 232.881 99.219,233.148 100.167,233.930 100.167 C 234.697 100.167,234.913 99.173,234.242 98.730 C 233.952 98.538,233.846 98.543,233.534 98.762 M238.676 98.739 C 238.403 99.067,238.522 100.011,238.862 100.224 C 239.373 100.544,240.000 100.105,240.000 99.426 C 240.000 98.617,239.145 98.173,238.676 98.739 " stroke="none" fill="#e3e3e3" fill-rule="evenodd"></path><path id="path1" d="M199.333 14.239 C 198.435 14.570,196.385 15.627,190.755 18.661 C 187.911 20.194,184.881 21.809,184.023 22.250 C 180.453 24.087,180.347 23.941,188.265 28.095 C 191.007 29.533,194.375 31.310,195.750 32.043 C 200.286 34.463,199.145 34.678,208.333 29.667 C 210.304 28.593,213.131 27.101,214.614 26.352 C 218.213 24.535,218.708 23.971,217.544 23.011 C 215.544 21.362,215.310 21.436,205.435 26.817 C 199.971 29.795,200.335 29.672,198.979 28.998 C 194.808 26.924,190.000 24.246,190.000 23.997 C 190.000 23.595,190.364 23.321,192.417 22.185 C 194.677 20.933,194.201 20.893,197.606 22.616 C 201.468 24.571,202.155 24.639,204.208 23.276 C 205.257 22.579,205.397 22.728,202.042 20.986 C 198.569 19.183,198.597 19.202,198.855 18.891 C 199.162 18.521,202.299 16.798,202.884 16.679 C 203.975 16.455,203.363 15.413,201.608 14.505 C 200.543 13.953,200.212 13.915,199.333 14.239 M176.747 36.292 C 176.592 43.260,176.715 49.492,177.026 50.410 C 177.219 50.977,177.426 51.169,178.500 51.778 C 181.116 53.260,181.048 53.318,181.123 49.554 C 181.217 44.851,180.770 44.991,186.336 47.921 C 191.862 50.831,191.417 50.269,191.559 54.518 C 191.703 58.824,191.682 58.774,193.881 59.917 C 196.293 61.170,196.073 62.086,196.134 50.520 L 196.184 40.885 195.164 39.941 C 193.409 38.316,192.735 38.169,192.278 39.311 C 191.941 40.155,191.667 42.210,191.667 43.897 C 191.667 46.205,191.333 46.304,188.667 44.794 C 187.796 44.301,185.984 43.313,184.641 42.600 C 183.298 41.886,181.985 41.079,181.724 40.807 L 181.250 40.313 181.167 36.586 C 181.087 33.015,181.068 32.843,180.711 32.463 C 180.204 31.924,177.810 30.667,177.291 30.667 L 176.872 30.667 176.747 36.292 M221.618 31.086 C 219.195 31.987,218.936 32.500,218.819 36.637 C 218.708 40.552,218.651 40.766,217.515 41.481 C 214.771 43.210,208.743 46.211,208.533 45.952 C 208.443 45.841,208.341 44.234,208.305 42.379 C 208.266 40.293,208.173 38.940,208.063 38.830 C 207.730 38.497,204.480 40.043,204.249 40.645 C 203.845 41.700,203.773 60.173,204.172 60.572 C 204.531 60.931,207.902 58.896,208.088 58.208 C 208.156 57.956,208.258 56.233,208.314 54.378 L 208.417 51.006 208.917 50.513 C 209.473 49.964,217.063 45.879,217.800 45.732 C 218.653 45.561,218.741 45.872,218.833 49.400 L 218.917 52.583 219.333 52.536 C 220.532 52.401,222.566 50.952,222.838 50.040 C 223.077 49.238,223.272 32.332,223.051 31.500 C 222.872 30.824,222.563 30.734,221.618 31.086 M155.083 78.201 C 154.354 78.620,154.344 78.694,154.339 84.019 C 154.333 89.868,154.361 90.000,155.653 90.000 C 156.732 90.000,156.903 89.643,157.000 87.191 L 157.083 85.083 159.250 85.083 L 161.417 85.083 161.500 87.191 C 161.597 89.643,161.768 90.000,162.847 90.000 C 164.161 90.000,164.187 89.877,164.132 83.871 L 164.083 78.637 163.690 78.318 C 162.418 77.289,161.599 78.236,161.528 80.819 L 161.472 82.833 159.236 82.833 L 157.000 82.833 157.000 81.108 C 157.000 78.451,156.354 77.472,155.083 78.201 M207.576 78.409 L 207.167 78.818 207.167 84.053 C 207.167 89.901,207.217 90.167,208.327 90.167 C 209.406 90.167,209.574 89.786,209.667 87.140 C 209.760 84.472,209.880 84.103,210.778 83.728 C 212.409 83.046,213.063 83.975,213.139 87.083 C 213.210 90.002,213.965 91.035,215.157 89.843 C 215.734 89.266,215.868 84.559,215.345 83.250 C 214.565 81.296,211.752 80.662,210.433 82.144 C 209.807 82.845,209.667 82.622,209.667 80.928 C 209.667 78.297,208.769 77.216,207.576 78.409 M221.242 78.409 C 220.616 79.035,220.695 79.236,222.750 82.254 L 224.667 85.068 224.667 87.178 C 224.667 89.590,224.894 90.167,225.845 90.167 C 226.835 90.167,227.000 89.758,227.004 87.292 L 227.008 85.083 228.919 82.333 C 231.015 79.318,231.153 78.916,230.306 78.286 C 229.519 77.701,229.165 77.957,227.542 80.281 C 226.731 81.443,225.989 82.420,225.894 82.452 C 225.798 82.484,225.069 81.572,224.272 80.425 C 222.481 77.845,222.076 77.576,221.242 78.409 M167.917 81.437 C 165.678 81.988,165.819 83.702,168.073 83.335 C 169.935 83.032,171.167 83.577,171.167 84.704 C 171.167 85.196,171.157 85.202,170.542 85.060 C 167.755 84.420,165.765 85.433,165.772 87.487 C 165.780 89.687,168.127 90.886,170.223 89.760 L 171.028 89.328 171.527 89.747 C 172.187 90.303,172.875 90.295,173.321 89.728 C 173.821 89.092,173.837 84.142,173.343 83.053 C 172.719 81.680,170.098 80.899,167.917 81.437 M175.734 81.684 C 175.187 82.289,175.253 89.397,175.810 89.848 C 177.147 90.931,177.833 89.990,177.833 87.072 C 177.833 84.032,178.168 83.333,179.623 83.333 C 181.038 83.333,181.333 84.024,181.333 87.325 C 181.333 89.673,181.545 90.167,182.552 90.167 C 183.492 90.167,183.667 89.729,183.668 87.375 C 183.669 84.222,184.069 83.333,185.485 83.333 C 186.855 83.333,187.164 84.056,187.166 87.263 C 187.167 89.975,187.976 91.024,189.157 89.843 C 189.833 89.167,189.874 84.458,189.217 82.985 C 188.403 81.160,185.719 80.701,184.150 82.118 L 183.487 82.717 183.035 82.294 C 181.765 81.106,179.909 80.981,178.644 81.998 C 178.229 82.332,177.912 82.487,177.875 82.374 C 177.544 81.381,176.355 80.998,175.734 81.684 M191.673 81.698 C 191.112 82.300,191.152 89.271,191.719 89.804 C 193.009 91.016,193.833 89.883,193.833 86.898 C 193.833 84.666,194.173 84.039,195.570 83.687 C 196.431 83.471,196.833 83.125,196.833 82.603 C 196.833 81.543,195.653 81.256,194.600 82.059 C 194.009 82.510,193.667 82.525,193.667 82.099 C 193.667 81.364,192.250 81.079,191.673 81.698 M199.333 81.529 C 197.422 82.073,197.890 83.663,199.866 83.342 C 200.380 83.258,200.940 83.217,201.109 83.251 C 201.278 83.285,201.621 83.356,201.870 83.409 C 202.490 83.539,203.000 84.129,203.000 84.717 C 203.000 85.179,202.971 85.199,202.458 85.094 C 199.336 84.457,197.583 85.322,197.583 87.500 C 197.583 89.937,200.116 90.974,202.453 89.494 C 202.788 89.281,202.865 89.301,203.295 89.713 C 203.852 90.247,204.472 90.295,205.023 89.848 C 205.599 89.381,205.633 83.996,205.067 82.917 C 204.350 81.550,201.602 80.884,199.333 81.529 M232.333 81.522 C 230.393 82.098,230.893 83.663,232.911 83.334 C 234.799 83.027,236.000 83.581,236.000 84.758 C 236.000 85.162,235.955 85.195,235.542 85.096 C 232.542 84.380,230.602 85.319,230.589 87.492 C 230.576 89.717,232.925 90.905,235.066 89.755 L 235.881 89.317 236.325 89.742 C 236.934 90.325,237.694 90.313,238.168 89.711 C 238.761 88.957,238.614 83.690,237.973 82.722 C 237.184 81.530,234.344 80.926,232.333 81.522 M240.401 81.684 C 239.759 82.392,239.850 89.183,240.509 89.843 C 241.623 90.957,242.500 89.957,242.501 87.573 C 242.502 84.725,242.840 84.046,244.456 83.639 C 245.677 83.332,246.010 82.437,245.143 81.790 C 244.633 81.410,243.779 81.582,243.244 82.173 C 242.893 82.561,242.500 82.602,242.500 82.250 C 242.500 81.426,241.000 81.022,240.401 81.684 M170.479 86.351 C 171.935 86.859,171.379 88.500,169.750 88.500 C 168.185 88.500,167.570 86.984,168.900 86.405 C 169.540 86.126,169.808 86.117,170.479 86.351 M202.230 86.326 C 203.209 86.698,203.356 87.807,202.487 88.257 C 201.406 88.816,200.000 88.302,200.000 87.347 C 200.000 86.443,201.151 85.916,202.230 86.326 M235.230 86.326 C 235.785 86.537,236.224 87.223,236.085 87.660 C 235.831 88.461,234.213 88.764,233.439 88.155 C 232.249 87.218,233.695 85.742,235.230 86.326 M157.944 95.778 C 157.701 96.022,157.873 96.418,158.750 97.635 C 159.622 98.844,159.667 98.956,159.667 99.921 C 159.667 101.035,159.945 101.621,160.393 101.449 C 160.608 101.366,160.667 101.113,160.667 100.271 C 160.667 99.232,160.699 99.149,161.690 97.686 C 162.547 96.420,162.679 96.132,162.503 95.920 C 162.146 95.490,161.922 95.627,161.091 96.782 L 160.289 97.898 159.853 97.389 C 159.613 97.109,159.207 96.607,158.951 96.273 C 158.507 95.694,158.186 95.536,157.944 95.778 M213.173 95.989 C 213.078 96.166,213.000 96.625,213.000 97.008 C 213.000 97.656,212.974 97.697,212.625 97.584 C 210.784 96.986,209.667 97.663,209.667 99.376 C 209.667 100.944,210.971 101.894,212.273 101.273 C 212.844 101.001,212.891 101.001,213.197 101.278 C 213.442 101.500,213.587 101.527,213.801 101.392 C 214.155 101.169,214.316 96.298,213.984 95.897 C 213.714 95.572,213.375 95.611,213.173 95.989 M224.200 95.867 C 223.890 96.176,223.925 100.835,224.240 101.260 C 224.634 101.790,225.072 101.383,225.135 100.431 C 225.197 99.468,225.371 99.495,226.206 100.596 C 227.250 101.972,227.970 101.496,227.018 100.059 C 226.476 99.241,226.494 99.025,227.151 98.431 C 227.572 98.050,227.605 97.530,227.219 97.382 C 227.019 97.305,226.740 97.498,226.251 98.054 C 225.282 99.155,225.167 99.091,225.167 97.450 C 225.167 96.112,225.021 95.667,224.583 95.667 C 224.482 95.667,224.310 95.757,224.200 95.867 M200.451 96.271 C 200.386 96.336,200.333 96.563,200.333 96.776 C 200.333 96.989,200.183 97.258,200.000 97.372 C 199.817 97.487,199.667 97.663,199.667 97.764 C 199.667 97.866,199.817 98.084,200.000 98.250 C 200.271 98.496,200.333 98.763,200.333 99.692 C 200.333 101.055,200.643 101.500,201.589 101.500 C 202.512 101.500,202.539 100.763,201.627 100.459 C 201.104 100.285,201.377 98.167,201.923 98.167 C 202.289 98.167,202.216 97.538,201.835 97.417 C 201.645 97.357,201.446 97.086,201.367 96.781 C 201.235 96.269,200.733 95.989,200.451 96.271 M229.205 96.362 C 229.092 96.474,229.000 96.678,229.000 96.814 C 229.000 96.950,228.831 97.242,228.625 97.462 L 228.250 97.862 228.605 98.150 C 228.900 98.389,228.972 98.660,229.026 99.735 C 229.101 101.224,229.347 101.549,230.333 101.466 C 231.052 101.405,231.239 100.849,230.631 100.583 C 230.077 100.341,229.963 98.421,230.492 98.252 C 230.917 98.118,230.945 97.498,230.531 97.390 C 230.365 97.346,230.159 97.072,230.073 96.781 C 229.905 96.210,229.535 96.032,229.205 96.362 M163.812 97.614 C 162.832 98.222,162.513 99.715,163.181 100.564 C 164.512 102.256,167.167 101.463,167.167 99.375 C 167.167 97.796,165.190 96.759,163.812 97.614 M168.235 97.750 C 167.623 100.187,168.912 102.162,170.501 101.223 C 170.938 100.965,170.989 100.965,171.247 101.223 C 172.023 101.999,172.320 101.322,172.184 99.083 C 172.085 97.444,172.077 97.417,171.667 97.417 C 171.262 97.417,171.248 97.457,171.167 98.806 C 171.017 101.306,169.333 101.501,169.333 99.018 C 169.333 97.495,168.531 96.570,168.235 97.750 M173.444 97.444 C 173.194 97.695,173.322 101.340,173.585 101.441 C 174.068 101.626,174.333 101.174,174.333 100.169 C 174.333 99.090,174.700 98.445,175.414 98.266 C 175.678 98.199,175.833 98.043,175.833 97.844 C 175.833 97.421,175.513 97.331,174.975 97.602 C 174.599 97.791,174.503 97.788,174.330 97.579 C 174.118 97.324,173.638 97.251,173.444 97.444 M178.700 97.533 C 178.376 97.857,178.430 101.068,178.764 101.345 C 179.277 101.771,179.575 101.330,179.667 100.011 C 179.750 98.811,180.014 98.333,180.595 98.333 C 181.015 98.333,181.242 97.837,180.954 97.549 C 180.709 97.304,180.650 97.306,180.246 97.571 C 179.844 97.834,179.780 97.836,179.514 97.596 C 179.166 97.281,178.967 97.266,178.700 97.533 M182.537 97.744 C 180.579 99.392,182.596 102.298,185.042 101.352 C 185.896 101.022,185.615 100.667,184.500 100.667 C 182.364 100.667,182.334 99.638,184.466 99.500 L 185.750 99.417 185.723 98.852 C 185.658 97.505,183.651 96.807,182.537 97.744 M186.848 97.566 C 186.511 97.972,186.681 101.172,187.051 101.399 C 187.545 101.701,187.833 101.121,187.833 99.827 C 187.833 98.627,188.100 98.167,188.795 98.167 C 189.376 98.167,189.667 98.784,189.667 100.017 C 189.667 102.128,190.579 102.104,190.702 99.989 C 190.846 97.487,192.500 97.326,192.500 99.813 C 192.500 101.916,193.535 102.222,193.635 100.149 C 193.754 97.678,192.762 96.668,191.151 97.619 C 190.693 97.889,190.640 97.889,190.183 97.619 C 189.576 97.261,188.855 97.253,188.360 97.600 C 188.011 97.844,187.955 97.844,187.685 97.600 C 187.323 97.272,187.099 97.263,186.848 97.566 M195.917 97.492 C 195.289 97.752,194.797 98.454,194.722 99.198 C 194.517 101.211,197.068 102.279,198.458 100.763 C 200.025 99.053,198.108 96.586,195.917 97.492 M203.960 97.594 C 202.860 98.191,202.664 99.805,203.571 100.794 C 204.203 101.485,205.925 101.713,206.556 101.189 C 206.991 100.828,206.721 100.667,205.683 100.667 C 204.960 100.667,204.649 100.590,204.442 100.362 C 203.842 99.699,204.167 99.500,205.847 99.500 L 207.000 99.500 207.000 98.983 C 207.000 97.720,205.225 96.908,203.960 97.594 M215.743 97.890 C 213.991 99.642,215.991 102.274,218.375 101.352 C 219.215 101.027,218.950 100.667,217.870 100.667 C 216.882 100.667,216.167 100.355,216.167 99.925 C 216.167 99.598,216.556 99.500,217.852 99.500 C 219.164 99.500,219.346 99.336,218.991 98.477 C 218.482 97.250,216.704 96.929,215.743 97.890 M220.538 97.538 C 219.509 98.035,219.830 99.146,221.156 99.675 C 222.727 100.302,222.616 101.011,221.004 100.649 C 220.154 100.458,219.765 100.670,220.189 101.094 C 220.667 101.572,222.199 101.603,222.704 101.145 C 223.633 100.303,223.300 99.387,221.926 99.003 C 220.507 98.605,220.608 97.775,222.031 98.137 C 222.791 98.329,223.000 98.279,223.000 97.903 C 223.000 97.395,221.345 97.150,220.538 97.538 M232.698 97.671 C 230.558 98.976,232.226 102.084,234.674 101.351 C 236.967 100.664,236.339 97.335,233.917 97.335 C 233.541 97.335,233.009 97.482,232.698 97.671 M237.101 97.597 C 236.829 98.306,236.995 102.652,237.301 102.816 C 237.780 103.072,238.039 102.767,238.128 101.842 C 238.197 101.130,238.257 101.001,238.480 101.094 C 239.502 101.523,239.657 101.551,240.187 101.399 C 241.564 101.004,241.974 98.804,240.856 97.805 C 240.253 97.266,239.443 97.182,238.675 97.579 C 238.257 97.795,238.176 97.795,237.996 97.579 C 237.728 97.255,237.228 97.265,237.101 97.597 M184.357 98.322 C 184.879 98.748,184.597 99.041,183.732 98.970 C 182.962 98.906,182.738 98.427,183.363 98.176 C 183.903 97.960,183.916 97.962,184.357 98.322 M205.730 98.341 C 206.059 98.646,205.675 99.000,205.015 99.000 C 204.198 99.000,203.986 98.716,204.497 98.302 C 204.868 98.002,205.383 98.018,205.730 98.341 M212.508 98.254 C 213.662 98.851,212.951 100.865,211.685 100.587 C 210.557 100.340,210.352 98.698,211.387 98.198 C 211.880 97.959,211.944 97.963,212.508 98.254 M217.675 98.306 C 218.196 98.728,217.960 99.000,217.073 99.000 C 216.228 99.000,215.990 98.460,216.708 98.172 C 217.233 97.961,217.252 97.964,217.675 98.306 M165.758 98.576 C 166.551 99.370,166.113 100.500,165.011 100.500 C 163.927 100.500,163.457 99.362,164.224 98.594 C 164.761 98.057,165.233 98.052,165.758 98.576 M197.591 98.576 C 198.061 99.045,198.114 99.597,197.741 100.130 C 197.260 100.816,195.869 100.503,195.814 99.696 C 195.722 98.347,196.728 97.713,197.591 98.576 M234.386 98.358 C 235.439 98.912,235.112 100.500,233.946 100.500 C 232.746 100.500,232.365 98.962,233.417 98.366 C 233.841 98.125,233.942 98.125,234.386 98.358 M240.015 98.479 C 240.862 99.164,240.304 100.667,239.203 100.667 C 238.548 100.667,238.167 100.217,238.167 99.446 C 238.167 98.275,239.137 97.767,240.015 98.479 " stroke="none" fill="#45a41d" fill-rule="evenodd"></path><path id="path2" d="M201.542 24.448 C 201.702 24.490,201.965 24.490,202.125 24.448 C 202.285 24.406,202.154 24.372,201.833 24.372 C 201.512 24.372,201.381 24.406,201.542 24.448 M176.571 35.750 C 176.571 37.675,176.595 38.440,176.624 37.449 C 176.654 36.459,176.654 34.884,176.624 33.949 C 176.595 33.015,176.570 33.825,176.571 35.750 M218.564 37.667 C 218.564 38.813,218.591 39.281,218.623 38.708 C 218.656 38.135,218.656 37.198,218.623 36.625 C 218.591 36.052,218.564 36.521,218.564 37.667 M181.229 37.583 C 181.229 38.592,181.257 38.983,181.290 38.452 C 181.323 37.922,181.323 37.097,181.289 36.619 C 181.256 36.141,181.229 36.575,181.229 37.583 M195.493 40.042 C 196.184 40.778,196.333 40.910,196.333 40.785 C 196.333 40.758,195.977 40.402,195.542 39.993 L 194.750 39.250 195.493 40.042 M208.389 40.500 C 208.389 41.188,208.419 41.469,208.455 41.125 C 208.491 40.781,208.491 40.219,208.455 39.875 C 208.419 39.531,208.389 39.813,208.389 40.500 M196.411 49.250 C 196.411 53.833,196.432 55.684,196.458 53.363 C 196.484 51.042,196.484 47.292,196.458 45.030 C 196.432 42.768,196.411 44.667,196.411 49.250 M191.542 42.083 C 191.544 42.450,191.578 42.580,191.618 42.373 C 191.658 42.166,191.656 41.866,191.615 41.706 C 191.573 41.547,191.540 41.717,191.542 42.083 M203.872 42.500 C 203.872 42.821,203.906 42.952,203.948 42.792 C 203.990 42.631,203.990 42.369,203.948 42.208 C 203.906 42.048,203.872 42.179,203.872 42.500 M191.320 45.042 C 191.271 45.400,191.296 45.604,191.380 45.520 C 191.460 45.440,191.499 45.159,191.466 44.895 C 191.411 44.455,191.400 44.466,191.320 45.042 M223.218 46.083 C 223.219 46.633,223.250 46.838,223.287 46.539 C 223.325 46.239,223.324 45.789,223.286 45.539 C 223.248 45.288,223.217 45.533,223.218 46.083 M203.730 47.583 C 203.731 48.683,203.758 49.112,203.790 48.535 C 203.823 47.959,203.823 47.059,203.790 46.535 C 203.757 46.012,203.730 46.483,203.730 47.583 M181.235 49.500 C 181.235 51.012,181.260 51.631,181.291 50.875 C 181.322 50.119,181.322 48.881,181.291 48.125 C 181.260 47.369,181.235 47.987,181.235 49.500 M176.555 48.083 C 176.555 48.725,176.586 48.967,176.622 48.621 C 176.658 48.275,176.657 47.750,176.620 47.455 C 176.583 47.159,176.554 47.442,176.555 48.083 M218.562 50.417 C 218.563 51.425,218.590 51.816,218.623 51.286 C 218.657 50.755,218.656 49.930,218.623 49.452 C 218.589 48.974,218.562 49.408,218.562 50.417 M191.400 54.583 C 191.400 55.958,191.426 56.499,191.457 55.784 C 191.489 55.069,191.488 53.944,191.457 53.284 C 191.425 52.624,191.400 53.208,191.400 54.583 M218.809 52.709 C 218.893 52.793,219.139 52.834,219.356 52.800 C 219.689 52.747,219.666 52.724,219.203 52.647 C 218.872 52.592,218.716 52.616,218.809 52.709 M208.396 55.667 C 208.396 56.721,208.423 57.152,208.456 56.625 C 208.490 56.098,208.490 55.235,208.456 54.708 C 208.423 54.181,208.396 54.612,208.396 55.667 M203.726 57.417 C 203.725 58.242,203.754 58.600,203.788 58.213 C 203.823 57.827,203.824 57.152,203.789 56.713 C 203.755 56.275,203.726 56.592,203.726 57.417 M157.062 80.667 C 157.062 81.629,157.089 82.023,157.123 81.542 C 157.157 81.060,157.157 80.273,157.123 79.792 C 157.089 79.310,157.062 79.704,157.062 80.667 M161.395 80.667 C 161.395 81.629,161.423 82.023,161.456 81.542 C 161.490 81.060,161.490 80.273,161.456 79.792 C 161.423 79.310,161.395 79.704,161.395 80.667 M209.693 80.532 C 209.679 81.420,209.723 82.182,209.792 82.225 C 209.860 82.268,209.896 81.766,209.871 81.110 C 209.793 79.079,209.721 78.844,209.693 80.532 M183.782 82.089 C 183.525 82.315,183.381 82.500,183.462 82.500 C 183.542 82.500,183.785 82.313,184.000 82.083 C 184.498 81.553,184.388 81.556,183.782 82.089 M239.904 85.750 C 239.904 87.675,239.928 88.440,239.958 87.449 C 239.987 86.459,239.987 84.884,239.958 83.949 C 239.928 83.015,239.904 83.825,239.904 85.750 M158.298 82.790 C 158.875 82.823,159.775 82.823,160.298 82.790 C 160.822 82.757,160.350 82.730,159.250 82.730 C 158.150 82.731,157.722 82.758,158.298 82.790 M168.625 83.451 C 168.831 83.491,169.169 83.491,169.375 83.451 C 169.581 83.411,169.412 83.379,169.000 83.379 C 168.587 83.379,168.419 83.411,168.625 83.451 M200.460 83.451 C 200.668 83.491,200.968 83.490,201.127 83.448 C 201.286 83.406,201.117 83.374,200.750 83.375 C 200.383 83.377,200.253 83.411,200.460 83.451 M233.460 83.451 C 233.668 83.491,233.968 83.490,234.127 83.448 C 234.286 83.406,234.117 83.374,233.750 83.375 C 233.383 83.377,233.253 83.411,233.460 83.451 M189.734 86.667 C 189.734 88.087,189.759 88.669,189.791 87.958 C 189.822 87.248,189.822 86.085,189.791 85.375 C 189.759 84.665,189.734 85.246,189.734 86.667 M215.734 86.667 C 215.734 88.087,215.759 88.669,215.791 87.958 C 215.822 87.248,215.822 86.085,215.791 85.375 C 215.759 84.665,215.734 85.246,215.734 86.667 M183.898 86.917 C 183.898 88.108,183.925 88.574,183.957 87.951 C 183.989 87.329,183.989 86.354,183.957 85.785 C 183.924 85.216,183.898 85.725,183.898 86.917 M161.396 87.333 C 161.396 88.388,161.423 88.819,161.456 88.292 C 161.490 87.765,161.490 86.902,161.456 86.375 C 161.423 85.848,161.396 86.279,161.396 87.333 M209.730 87.417 C 209.731 88.517,209.758 88.945,209.790 88.368 C 209.823 87.792,209.823 86.892,209.790 86.368 C 209.757 85.845,209.730 86.317,209.730 87.417 M157.062 87.417 C 157.063 88.425,157.090 88.816,157.123 88.286 C 157.157 87.755,157.156 86.930,157.123 86.452 C 157.089 85.974,157.062 86.408,157.062 87.417 M193.895 87.500 C 193.895 88.462,193.923 88.856,193.956 88.375 C 193.990 87.894,193.990 87.106,193.956 86.625 C 193.923 86.144,193.895 86.537,193.895 87.500 M165.539 87.500 C 165.539 87.821,165.573 87.952,165.615 87.792 C 165.657 87.631,165.657 87.369,165.615 87.208 C 165.573 87.048,165.539 87.179,165.539 87.500 M212.879 96.667 C 212.879 97.079,212.911 97.248,212.951 97.042 C 212.991 96.835,212.991 96.498,212.951 96.292 C 212.911 96.085,212.879 96.254,212.879 96.667 M169.388 98.750 C 169.389 99.392,169.419 99.634,169.455 99.288 C 169.491 98.942,169.490 98.417,169.454 98.121 C 169.417 97.825,169.387 98.108,169.388 98.750 M172.395 99.500 C 172.395 100.462,172.423 100.856,172.456 100.375 C 172.490 99.894,172.490 99.106,172.456 98.625 C 172.423 98.144,172.395 98.537,172.395 99.500 M173.061 99.417 C 173.061 100.333,173.089 100.687,173.123 100.203 C 173.157 99.718,173.156 98.968,173.122 98.536 C 173.088 98.104,173.060 98.500,173.061 99.417 M201.568 98.564 C 201.519 98.691,201.504 99.123,201.535 99.523 C 201.589 100.227,201.593 100.219,201.670 99.291 C 201.751 98.319,201.727 98.148,201.568 98.564 M230.212 99.333 C 230.212 99.746,230.245 99.915,230.284 99.708 C 230.324 99.502,230.324 99.165,230.284 98.958 C 230.245 98.752,230.212 98.921,230.212 99.333 M181.539 99.333 C 181.539 99.654,181.573 99.785,181.615 99.625 C 181.657 99.465,181.657 99.202,181.615 99.042 C 181.573 98.881,181.539 99.013,181.539 99.333 M190.888 99.917 C 190.889 100.558,190.919 100.800,190.955 100.455 C 190.991 100.109,190.990 99.584,190.954 99.288 C 190.917 98.992,190.887 99.275,190.888 99.917 M212.872 99.333 C 212.872 99.654,212.906 99.785,212.948 99.625 C 212.990 99.465,212.990 99.202,212.948 99.042 C 212.906 98.881,212.872 99.013,212.872 99.333 M160.887 100.000 C 160.887 100.596,160.917 100.840,160.954 100.542 C 160.991 100.244,160.991 99.756,160.954 99.458 C 160.917 99.160,160.887 99.404,160.887 100.000 M159.553 100.167 C 159.553 100.763,159.584 101.006,159.621 100.708 C 159.658 100.410,159.658 99.923,159.621 99.625 C 159.584 99.327,159.553 99.571,159.553 100.167 M192.387 100.167 C 192.387 100.763,192.417 101.006,192.454 100.708 C 192.491 100.410,192.491 99.923,192.454 99.625 C 192.417 99.327,192.387 99.571,192.387 100.167 M183.109 99.792 C 183.066 99.860,183.418 99.895,183.891 99.869 C 185.423 99.784,185.610 99.717,184.385 99.692 C 183.726 99.678,183.151 99.723,183.109 99.792 M204.875 99.788 C 205.219 99.824,205.781 99.824,206.125 99.788 C 206.469 99.752,206.188 99.723,205.500 99.723 C 204.813 99.723,204.531 99.752,204.875 99.788 M216.408 99.848 C 216.346 99.948,216.384 100.116,216.491 100.223 C 216.640 100.371,216.661 100.349,216.578 100.133 C 216.484 99.884,216.622 99.841,217.693 99.791 L 218.917 99.733 217.718 99.700 C 217.000 99.680,216.475 99.739,216.408 99.848 M222.000 100.306 C 222.000 100.412,221.794 100.510,221.542 100.523 C 221.121 100.544,221.116 100.552,221.478 100.620 C 221.883 100.697,222.317 100.428,222.114 100.225 C 222.051 100.162,222.000 100.199,222.000 100.306 M238.232 101.403 C 238.183 101.532,238.169 101.851,238.202 102.111 C 238.251 102.496,238.277 102.453,238.344 101.875 C 238.428 101.146,238.391 100.989,238.232 101.403 " stroke="none" fill="#9bc689" fill-rule="evenodd"></path><path id="path3" d="M201.458 24.284 C 201.665 24.324,202.002 24.324,202.208 24.284 C 202.415 24.245,202.246 24.212,201.833 24.212 C 201.421 24.212,201.252 24.245,201.458 24.284 M176.734 33.667 C 176.734 35.087,176.759 35.669,176.791 34.958 C 176.822 34.248,176.822 33.085,176.791 32.375 C 176.759 31.665,176.734 32.246,176.734 33.667 M219.334 32.416 C 219.119 32.645,218.975 32.860,219.013 32.894 C 219.052 32.928,219.258 32.741,219.471 32.478 C 219.948 31.890,219.864 31.852,219.334 32.416 M223.240 37.917 C 223.240 40.392,223.263 41.427,223.291 40.218 C 223.320 39.009,223.320 36.984,223.291 35.718 C 223.263 34.452,223.240 35.442,223.240 37.917 M218.733 36.917 C 218.734 38.292,218.759 38.832,218.791 38.117 C 218.822 37.403,218.822 36.278,218.790 35.617 C 218.759 34.957,218.733 35.542,218.733 36.917 M195.167 39.885 C 195.167 39.914,195.410 40.158,195.708 40.427 L 196.250 40.917 195.760 40.375 C 195.304 39.870,195.167 39.757,195.167 39.885 M196.244 49.500 C 196.244 54.221,196.265 56.152,196.292 53.792 C 196.318 51.431,196.318 47.569,196.292 45.208 C 196.265 42.848,196.244 44.779,196.244 49.500 M204.039 42.167 C 204.039 42.487,204.073 42.619,204.115 42.458 C 204.157 42.298,204.157 42.035,204.115 41.875 C 204.073 41.715,204.039 41.846,204.039 42.167 M191.545 44.667 C 191.545 45.079,191.578 45.248,191.618 45.042 C 191.657 44.835,191.657 44.498,191.618 44.292 C 191.578 44.085,191.545 44.254,191.545 44.667 M203.898 46.333 C 203.898 47.479,203.924 47.948,203.957 47.375 C 203.989 46.802,203.989 45.865,203.957 45.292 C 203.924 44.719,203.898 45.188,203.898 46.333 M223.052 46.750 C 223.053 47.300,223.084 47.505,223.121 47.205 C 223.158 46.906,223.157 46.456,223.119 46.205 C 223.081 45.955,223.051 46.200,223.052 46.750 M218.736 49.417 C 218.736 51.067,218.761 51.719,218.791 50.867 C 218.821 50.014,218.821 48.664,218.791 47.867 C 218.760 47.069,218.735 47.767,218.736 49.417 M176.714 48.750 C 176.716 49.208,176.748 49.376,176.786 49.123 C 176.825 48.869,176.824 48.494,176.784 48.289 C 176.744 48.084,176.713 48.292,176.714 48.750 M191.552 56.417 C 191.553 56.967,191.584 57.172,191.621 56.872 C 191.658 56.572,191.657 56.122,191.619 55.872 C 191.581 55.622,191.551 55.867,191.552 56.417 M203.892 58.250 C 203.892 59.075,203.920 59.434,203.955 59.047 C 203.990 58.660,203.990 57.985,203.956 57.547 C 203.922 57.109,203.893 57.425,203.892 58.250 M155.667 77.952 C 155.804 78.003,156.067 78.114,156.250 78.198 C 156.578 78.349,156.578 78.348,156.260 78.093 C 156.082 77.950,155.819 77.839,155.676 77.846 C 155.452 77.858,155.451 77.872,155.667 77.952 M162.013 78.265 C 161.731 78.502,161.505 78.821,161.511 78.973 C 161.519 79.187,161.552 79.173,161.659 78.911 C 161.837 78.470,162.199 78.177,162.781 78.003 C 163.170 77.886,163.188 77.860,162.888 77.848 C 162.689 77.840,162.295 78.028,162.013 78.265 M222.273 78.074 C 222.560 78.199,223.032 78.646,223.322 79.067 C 223.612 79.489,223.887 79.833,223.933 79.833 C 223.979 79.833,223.786 79.499,223.505 79.091 C 222.950 78.284,222.405 77.830,222.005 77.840 C 221.865 77.843,221.985 77.949,222.273 78.074 M229.830 78.019 C 230.057 78.110,230.361 78.274,230.505 78.384 C 230.649 78.494,230.590 78.415,230.374 78.208 C 230.158 78.002,229.854 77.838,229.699 77.844 C 229.511 77.851,229.555 77.910,229.830 78.019 M207.416 78.334 C 206.990 78.805,207.171 78.849,207.619 78.383 C 207.822 78.173,207.927 78.000,207.853 78.000 C 207.779 78.000,207.582 78.150,207.416 78.334 M209.125 78.319 C 209.331 78.517,209.500 78.802,209.500 78.951 C 209.500 79.100,209.544 79.178,209.599 79.124 C 209.781 78.941,209.480 78.334,209.114 78.146 C 208.751 77.959,208.751 77.960,209.125 78.319 M221.082 78.334 C 220.656 78.805,220.838 78.849,221.286 78.383 C 221.489 78.173,221.594 78.000,221.520 78.000 C 221.446 78.000,221.249 78.150,221.082 78.334 M228.167 79.167 C 227.971 79.442,227.848 79.667,227.894 79.667 C 227.940 79.667,228.138 79.442,228.333 79.167 C 228.529 78.892,228.652 78.667,228.606 78.667 C 228.560 78.667,228.362 78.892,228.167 79.167 M154.204 84.029 L 154.167 89.141 154.598 89.654 C 154.948 90.070,155.145 90.161,155.640 90.139 L 156.250 90.111 155.643 90.046 C 154.425 89.917,154.427 89.928,154.329 84.108 L 154.241 78.917 154.204 84.029 M207.037 84.116 C 207.000 89.304,207.001 89.316,207.375 89.707 C 207.581 89.923,207.637 89.957,207.500 89.783 C 207.294 89.522,207.234 88.531,207.162 84.191 L 207.074 78.917 207.037 84.116 M164.240 84.000 C 164.240 86.704,164.263 87.810,164.291 86.458 C 164.319 85.106,164.319 82.894,164.291 81.542 C 164.263 80.190,164.240 81.296,164.240 84.000 M220.833 79.567 C 220.833 79.726,221.823 81.167,221.933 81.167 C 221.979 81.167,221.775 80.810,221.481 80.375 C 220.828 79.409,220.833 79.416,220.833 79.567 M226.833 81.083 C 226.550 81.496,226.355 81.833,226.401 81.833 C 226.446 81.833,226.716 81.496,227.000 81.083 C 227.284 80.671,227.479 80.333,227.433 80.333 C 227.387 80.333,227.117 80.671,226.833 81.083 M225.000 81.500 C 225.196 81.775,225.394 82.000,225.439 82.000 C 225.485 82.000,225.362 81.775,225.167 81.500 C 224.971 81.225,224.773 81.000,224.727 81.000 C 224.681 81.000,224.804 81.225,225.000 81.500 M168.963 81.289 C 169.355 81.324,169.955 81.324,170.296 81.288 C 170.637 81.252,170.317 81.223,169.583 81.224 C 168.850 81.224,168.571 81.254,168.963 81.289 M180.208 81.286 C 180.460 81.324,180.873 81.324,181.125 81.286 C 181.377 81.248,181.171 81.217,180.667 81.217 C 180.162 81.217,179.956 81.248,180.208 81.286 M185.961 81.287 C 186.261 81.325,186.711 81.324,186.961 81.286 C 187.212 81.248,186.967 81.217,186.417 81.218 C 185.867 81.219,185.662 81.250,185.961 81.287 M191.938 81.299 C 191.893 81.371,192.114 81.400,192.428 81.364 C 192.743 81.327,193.000 81.268,193.000 81.232 C 193.000 81.106,192.019 81.168,191.938 81.299 M200.796 81.289 C 201.188 81.324,201.788 81.324,202.129 81.288 C 202.471 81.252,202.150 81.223,201.417 81.224 C 200.683 81.224,200.404 81.254,200.796 81.289 M212.127 81.285 C 212.334 81.324,212.634 81.323,212.794 81.281 C 212.953 81.239,212.783 81.207,212.417 81.209 C 212.050 81.211,211.920 81.245,212.127 81.285 M233.792 81.289 C 234.181 81.324,234.819 81.324,235.208 81.289 C 235.598 81.254,235.279 81.225,234.500 81.225 C 233.721 81.225,233.402 81.254,233.792 81.289 M240.833 81.232 C 240.833 81.268,241.091 81.327,241.405 81.364 C 241.719 81.400,241.940 81.371,241.895 81.299 C 241.814 81.168,240.833 81.106,240.833 81.232 M177.531 81.833 C 177.743 82.154,177.937 82.450,177.962 82.491 C 177.988 82.531,178.157 82.400,178.338 82.199 C 178.519 81.998,178.540 81.945,178.385 82.080 C 178.130 82.302,178.054 82.273,177.624 81.788 L 177.147 81.250 177.531 81.833 M166.704 81.759 C 166.500 81.902,166.333 82.104,166.333 82.208 C 166.333 82.312,166.427 82.280,166.542 82.136 C 166.656 81.992,166.900 81.793,167.083 81.692 C 167.267 81.592,167.340 81.508,167.245 81.505 C 167.151 81.502,166.907 81.617,166.704 81.759 M188.000 81.546 C 188.000 81.578,188.244 81.782,188.542 82.001 C 188.877 82.246,188.993 82.286,188.847 82.106 C 188.625 81.833,188.000 81.420,188.000 81.546 M203.962 81.834 C 204.670 82.265,204.902 82.265,204.250 81.833 C 203.975 81.651,203.675 81.502,203.583 81.502 C 203.492 81.501,203.662 81.651,203.962 81.834 M243.350 81.929 C 243.069 82.164,242.764 82.310,242.670 82.252 C 242.577 82.194,242.500 82.226,242.500 82.323 C 242.500 82.595,242.932 82.533,243.188 82.224 C 243.314 82.073,243.642 81.851,243.917 81.731 C 244.197 81.609,244.294 81.510,244.138 81.507 C 243.984 81.503,243.630 81.693,243.350 81.929 M172.167 81.713 C 172.167 81.745,172.410 81.949,172.708 82.167 C 173.044 82.413,173.160 82.453,173.014 82.273 C 172.792 81.999,172.167 81.586,172.167 81.713 M183.961 82.115 C 183.516 82.560,183.510 82.561,183.131 82.246 L 182.750 81.929 183.126 82.336 L 183.501 82.742 184.039 82.204 C 184.335 81.909,184.539 81.667,184.493 81.667 C 184.447 81.667,184.207 81.868,183.961 82.115 M194.423 82.025 C 194.044 82.323,193.940 82.344,193.804 82.150 C 193.666 81.952,193.651 81.953,193.706 82.156 C 193.809 82.538,194.047 82.517,194.583 82.078 C 195.198 81.575,195.055 81.528,194.423 82.025 M196.673 81.977 C 196.779 82.194,196.831 82.548,196.790 82.764 C 196.749 82.980,196.779 83.117,196.857 83.068 C 197.088 82.926,197.021 82.257,196.741 81.907 C 196.494 81.599,196.491 81.603,196.673 81.977 M198.261 81.988 C 198.101 82.164,198.006 82.445,198.049 82.613 C 198.122 82.894,198.129 82.893,198.147 82.596 C 198.158 82.420,198.291 82.139,198.442 81.971 C 198.594 81.804,198.681 81.667,198.635 81.667 C 198.589 81.667,198.421 81.811,198.261 81.988 M210.184 82.098 C 209.872 82.319,209.728 82.500,209.863 82.500 C 209.998 82.500,210.285 82.313,210.500 82.083 C 210.978 81.574,210.917 81.577,210.184 82.098 M214.167 81.719 C 214.167 81.748,214.410 81.991,214.708 82.260 L 215.250 82.750 214.760 82.208 C 214.304 81.703,214.167 81.590,214.167 81.719 M191.238 85.750 C 191.238 87.767,191.262 88.569,191.291 87.532 C 191.320 86.496,191.320 84.846,191.291 83.866 C 191.262 82.885,191.238 83.733,191.238 85.750 M228.500 82.917 C 228.216 83.329,228.021 83.667,228.067 83.667 C 228.113 83.667,228.383 83.329,228.667 82.917 C 228.950 82.504,229.145 82.167,229.099 82.167 C 229.054 82.167,228.784 82.504,228.500 82.917 M223.000 82.833 C 223.196 83.108,223.394 83.333,223.439 83.333 C 223.485 83.333,223.362 83.108,223.167 82.833 C 222.971 82.558,222.773 82.333,222.727 82.333 C 222.681 82.333,222.804 82.558,223.000 82.833 M245.465 82.964 L 245.180 83.583 245.507 83.190 C 245.686 82.973,245.833 82.692,245.833 82.565 C 245.833 82.222,245.779 82.281,245.465 82.964 M189.135 82.750 C 189.219 82.933,189.330 83.196,189.381 83.333 C 189.461 83.549,189.475 83.548,189.487 83.324 C 189.494 83.181,189.383 82.918,189.241 82.740 C 188.986 82.422,188.984 82.422,189.135 82.750 M170.052 83.503 C 170.310 83.580,170.614 83.705,170.727 83.780 C 170.840 83.855,170.789 83.785,170.614 83.625 C 170.439 83.465,170.136 83.340,169.940 83.348 C 169.651 83.359,169.672 83.389,170.052 83.503 M180.000 83.452 C 180.137 83.503,180.400 83.614,180.583 83.698 C 180.911 83.849,180.911 83.848,180.593 83.593 C 180.415 83.450,180.153 83.339,180.010 83.346 C 179.785 83.358,179.784 83.372,180.000 83.452 M186.606 83.917 C 186.992 84.575,187.000 84.585,187.000 84.380 C 187.000 84.283,186.846 84.027,186.657 83.810 L 186.314 83.417 186.606 83.917 M210.460 83.846 C 210.301 83.938,210.090 84.180,209.991 84.382 L 209.811 84.750 210.114 84.397 C 210.280 84.202,210.567 83.961,210.750 83.860 C 210.933 83.759,211.008 83.677,210.917 83.677 C 210.825 83.677,210.620 83.753,210.460 83.846 M173.667 86.644 C 173.667 89.066,173.637 89.329,173.317 89.769 L 172.967 90.250 173.400 89.782 C 173.804 89.347,174.127 84.000,173.750 84.000 C 173.704 84.000,173.667 85.190,173.667 86.644 M202.820 84.625 C 202.900 85.200,202.911 85.212,202.966 84.771 C 202.999 84.508,202.960 84.227,202.880 84.147 C 202.796 84.063,202.771 84.267,202.820 84.625 M243.012 84.439 C 242.822 84.681,242.669 84.962,242.672 85.064 C 242.675 85.166,242.760 85.100,242.862 84.917 C 242.963 84.733,243.160 84.452,243.299 84.292 C 243.438 84.131,243.508 84.000,243.455 84.000 C 243.401 84.000,243.202 84.198,243.012 84.439 M194.093 84.704 C 193.950 84.907,193.840 85.226,193.848 85.412 C 193.858 85.665,193.898 85.632,194.003 85.281 C 194.080 85.023,194.233 84.704,194.342 84.573 C 194.451 84.441,194.498 84.333,194.447 84.333 C 194.395 84.333,194.235 84.500,194.093 84.704 M227.259 84.704 C 227.052 85.000,227.007 85.511,227.032 87.245 L 227.065 89.417 227.157 87.150 C 227.221 85.590,227.321 84.797,227.479 84.608 C 227.605 84.457,227.665 84.333,227.613 84.333 C 227.561 84.333,227.402 84.500,227.259 84.704 M238.566 86.667 C 238.566 87.996,238.592 88.540,238.624 87.875 C 238.655 87.210,238.655 86.123,238.624 85.458 C 238.592 84.794,238.566 85.337,238.566 86.667 M205.566 86.750 C 205.566 88.033,205.592 88.536,205.624 87.868 C 205.656 87.199,205.655 86.149,205.623 85.534 C 205.591 84.920,205.565 85.467,205.566 86.750 M168.627 84.785 C 168.834 84.824,169.134 84.823,169.294 84.781 C 169.453 84.739,169.283 84.707,168.917 84.709 C 168.550 84.711,168.420 84.745,168.627 84.785 M177.899 86.917 C 177.899 88.200,177.926 88.703,177.957 88.034 C 177.989 87.366,177.989 86.316,177.957 85.701 C 177.925 85.086,177.899 85.633,177.899 86.917 M200.294 84.785 C 200.501 84.824,200.801 84.823,200.960 84.781 C 201.120 84.739,200.950 84.707,200.583 84.709 C 200.217 84.711,200.086 84.745,200.294 84.785 M233.460 84.785 C 233.668 84.824,233.968 84.823,234.127 84.781 C 234.286 84.739,234.117 84.707,233.750 84.709 C 233.383 84.711,233.253 84.745,233.460 84.785 M181.232 87.083 C 181.233 88.367,181.259 88.870,181.291 88.201 C 181.322 87.532,181.322 86.482,181.290 85.868 C 181.258 85.253,181.232 85.800,181.232 87.083 M187.066 87.083 C 187.066 88.367,187.092 88.870,187.124 88.201 C 187.156 87.532,187.155 86.482,187.123 85.868 C 187.091 85.253,187.065 85.800,187.066 87.083 M198.750 85.140 C 198.475 85.308,198.140 85.589,198.005 85.765 C 197.818 86.008,197.858 85.996,198.173 85.717 C 198.400 85.516,198.848 85.238,199.168 85.099 C 199.488 84.960,199.637 84.844,199.500 84.840 C 199.362 84.837,199.025 84.972,198.750 85.140 M157.109 85.125 C 157.067 85.194,158.030 85.250,159.250 85.250 C 160.470 85.250,161.433 85.194,161.391 85.125 C 161.348 85.056,160.385 85.000,159.250 85.000 C 158.115 85.000,157.152 85.056,157.109 85.125 M183.732 87.167 C 183.732 88.404,183.758 88.910,183.790 88.292 C 183.822 87.673,183.822 86.660,183.790 86.042 C 183.758 85.423,183.732 85.929,183.732 87.167 M213.065 87.250 C 213.065 88.442,213.092 88.907,213.124 88.285 C 213.156 87.662,213.156 86.687,213.123 86.118 C 213.091 85.549,213.064 86.058,213.065 87.250 M224.562 87.250 C 224.563 88.258,224.590 88.649,224.623 88.119 C 224.657 87.588,224.656 86.763,224.623 86.286 C 224.589 85.808,224.562 86.242,224.562 87.250 M242.564 87.417 C 242.564 88.517,242.591 88.945,242.624 88.368 C 242.656 87.792,242.656 86.892,242.623 86.368 C 242.590 85.845,242.563 86.317,242.564 87.417 M201.208 86.282 C 201.369 86.323,201.631 86.323,201.792 86.282 C 201.952 86.240,201.821 86.205,201.500 86.205 C 201.179 86.205,201.048 86.240,201.208 86.282 M234.208 86.282 C 234.369 86.323,234.631 86.323,234.792 86.282 C 234.952 86.240,234.821 86.205,234.500 86.205 C 234.179 86.205,234.048 86.240,234.208 86.282 M200.249 86.668 C 199.823 87.138,200.004 87.182,200.452 86.717 C 200.655 86.506,200.761 86.333,200.687 86.333 C 200.612 86.333,200.415 86.484,200.249 86.668 M168.329 86.842 C 168.228 87.030,168.169 87.297,168.198 87.436 C 168.227 87.574,168.333 87.421,168.433 87.094 C 168.640 86.426,168.601 86.333,168.329 86.842 M170.922 86.638 C 170.985 86.760,171.096 87.060,171.170 87.305 C 171.278 87.662,171.308 87.682,171.319 87.407 C 171.327 87.218,171.215 86.918,171.071 86.740 C 170.927 86.562,170.860 86.516,170.922 86.638 M233.023 87.363 C 232.996 87.881,233.673 88.509,234.231 88.485 C 234.486 88.474,234.440 88.428,234.063 88.319 C 233.453 88.142,233.227 87.906,233.122 87.333 L 233.045 86.917 233.023 87.363 M235.875 87.708 C 235.696 88.198,235.700 88.219,235.922 87.926 C 236.134 87.647,236.259 87.167,236.120 87.167 C 236.094 87.167,235.984 87.410,235.875 87.708 M200.013 87.516 C 200.006 87.662,200.169 87.925,200.375 88.099 C 200.747 88.414,200.748 88.414,200.480 88.083 C 200.332 87.900,200.169 87.638,200.118 87.500 C 200.040 87.288,200.024 87.290,200.013 87.516 M165.674 88.100 C 165.665 88.549,166.295 89.475,166.833 89.803 C 167.121 89.978,167.080 89.906,166.700 89.570 C 166.398 89.302,166.045 88.783,165.916 88.417 C 165.770 88.003,165.679 87.883,165.674 88.100 M168.719 88.208 C 168.894 88.369,169.197 88.494,169.393 88.486 C 169.683 88.474,169.661 88.445,169.281 88.331 C 169.023 88.253,168.720 88.128,168.606 88.053 C 168.493 87.978,168.544 88.048,168.719 88.208 M170.500 88.187 C 170.179 88.359,170.040 88.500,170.190 88.500 C 170.340 88.500,170.640 88.352,170.857 88.172 C 171.333 87.775,171.263 87.778,170.500 88.187 M197.511 88.377 C 197.505 88.539,197.744 88.918,198.042 89.218 C 198.340 89.519,198.419 89.574,198.218 89.341 C 198.017 89.108,197.778 88.729,197.687 88.500 C 197.569 88.205,197.518 88.169,197.511 88.377 M201.125 88.451 C 201.331 88.491,201.669 88.491,201.875 88.451 C 202.081 88.411,201.912 88.379,201.500 88.379 C 201.088 88.379,200.919 88.411,201.125 88.451 M156.846 89.154 C 156.839 89.284,156.705 89.546,156.548 89.737 C 156.279 90.064,156.285 90.063,156.651 89.726 C 156.865 89.529,156.999 89.266,156.950 89.142 C 156.877 88.960,156.857 88.962,156.846 89.154 M189.375 89.542 C 189.196 90.031,189.200 90.052,189.422 89.760 C 189.634 89.480,189.759 89.000,189.620 89.000 C 189.594 89.000,189.484 89.244,189.375 89.542 M193.680 89.208 C 193.673 89.369,193.517 89.650,193.333 89.833 C 193.150 90.017,193.073 90.167,193.163 90.167 C 193.407 90.167,193.877 89.375,193.779 89.130 C 193.725 88.996,193.688 89.025,193.680 89.208 M215.513 89.208 C 215.506 89.369,215.350 89.650,215.167 89.833 C 214.983 90.017,214.907 90.167,214.996 90.167 C 215.240 90.167,215.711 89.375,215.612 89.130 C 215.558 88.996,215.521 89.025,215.513 89.208 M170.417 89.667 C 170.142 89.849,169.976 89.998,170.048 89.999 C 170.120 90.000,170.366 89.877,170.595 89.727 C 170.990 89.468,171.033 89.473,171.392 89.810 C 171.601 90.006,171.829 90.167,171.899 90.167 C 171.968 90.167,171.803 89.979,171.530 89.750 C 170.939 89.252,171.032 89.259,170.417 89.667 M202.167 89.684 L 201.750 90.028 202.287 89.731 C 202.818 89.437,202.830 89.439,203.287 89.842 L 203.750 90.250 203.346 89.792 C 202.865 89.246,202.715 89.232,202.167 89.684 M235.681 89.375 C 235.719 89.398,235.975 89.604,236.250 89.833 L 236.750 90.250 236.346 89.792 C 236.124 89.540,235.867 89.333,235.777 89.333 C 235.686 89.333,235.642 89.352,235.681 89.375 M205.049 89.851 C 204.947 89.953,204.614 90.095,204.307 90.167 C 203.808 90.285,203.796 90.301,204.190 90.316 C 204.540 90.330,205.663 89.693,205.325 89.672 C 205.275 89.669,205.150 89.750,205.049 89.851 M162.542 90.115 C 162.702 90.157,162.965 90.157,163.125 90.115 C 163.285 90.073,163.154 90.039,162.833 90.039 C 162.512 90.039,162.381 90.073,162.542 90.115 M168.294 90.285 C 168.501 90.324,168.801 90.323,168.960 90.281 C 169.120 90.239,168.950 90.207,168.583 90.209 C 168.217 90.211,168.086 90.245,168.294 90.285 M200.127 90.285 C 200.334 90.324,200.634 90.323,200.794 90.281 C 200.953 90.239,200.783 90.207,200.417 90.209 C 200.050 90.211,199.920 90.245,200.127 90.285 M232.958 90.284 C 233.165 90.324,233.502 90.324,233.708 90.284 C 233.915 90.245,233.746 90.212,233.333 90.212 C 232.921 90.212,232.752 90.245,232.958 90.284 M158.181 95.542 C 158.219 95.565,158.475 95.771,158.750 96.000 L 159.250 96.417 158.846 95.958 C 158.624 95.706,158.367 95.500,158.277 95.500 C 158.186 95.500,158.142 95.519,158.181 95.542 M224.145 95.777 C 223.937 96.029,223.949 96.034,224.278 95.828 C 224.584 95.638,224.687 95.640,224.945 95.843 C 225.224 96.063,225.231 96.059,225.021 95.792 C 224.734 95.426,224.440 95.421,224.145 95.777 M229.145 96.277 C 228.936 96.530,228.949 96.534,229.302 96.318 C 229.647 96.108,229.712 96.117,229.927 96.407 C 230.059 96.585,230.167 96.656,230.167 96.565 C 230.167 96.046,229.493 95.856,229.145 96.277 M214.233 98.583 C 214.234 99.958,214.259 100.499,214.291 99.784 C 214.322 99.069,214.322 97.944,214.290 97.284 C 214.259 96.624,214.233 97.208,214.233 98.583 M159.478 96.931 C 160.048 97.795,160.239 97.884,160.600 97.458 L 160.917 97.083 160.563 97.381 C 160.217 97.673,160.198 97.666,159.674 97.048 C 159.264 96.565,159.218 96.537,159.478 96.931 M200.186 96.783 C 200.175 96.985,200.035 97.227,199.875 97.320 C 199.715 97.413,199.668 97.492,199.771 97.495 C 200.068 97.503,200.368 97.045,200.283 96.716 C 200.221 96.476,200.202 96.489,200.186 96.783 M228.846 96.820 C 228.839 96.950,228.705 97.213,228.548 97.404 C 228.279 97.730,228.285 97.730,228.651 97.392 C 228.865 97.196,228.999 96.933,228.950 96.809 C 228.877 96.626,228.857 96.628,228.846 96.820 M164.794 97.285 C 165.001 97.324,165.301 97.323,165.460 97.281 C 165.620 97.239,165.450 97.207,165.083 97.209 C 164.717 97.211,164.586 97.245,164.794 97.285 M168.792 97.339 C 168.998 97.421,169.167 97.579,169.167 97.689 C 169.167 97.799,169.215 97.841,169.274 97.782 C 169.436 97.619,168.996 97.165,168.688 97.177 C 168.504 97.184,168.538 97.237,168.792 97.339 M171.792 97.339 C 172.134 97.476,172.170 97.610,172.200 98.870 L 172.234 100.250 172.291 98.943 C 172.350 97.588,172.203 97.157,171.688 97.177 C 171.504 97.184,171.538 97.237,171.792 97.339 M173.367 97.367 C 173.144 97.589,173.076 101.257,173.292 101.391 C 173.360 101.434,173.393 100.575,173.365 99.483 C 173.315 97.541,173.322 97.493,173.699 97.342 C 173.928 97.250,173.979 97.184,173.825 97.177 C 173.683 97.171,173.477 97.257,173.367 97.367 M178.645 97.443 C 178.437 97.696,178.449 97.700,178.782 97.493 C 179.102 97.293,179.191 97.304,179.495 97.578 C 179.770 97.827,179.883 97.850,180.046 97.686 C 180.207 97.523,180.195 97.501,179.985 97.581 C 179.839 97.636,179.624 97.566,179.506 97.424 C 179.230 97.091,178.931 97.097,178.645 97.443 M183.542 97.282 C 183.702 97.323,183.965 97.323,184.125 97.282 C 184.285 97.240,184.154 97.205,183.833 97.205 C 183.512 97.205,183.381 97.240,183.542 97.282 M186.812 97.443 C 186.603 97.696,186.615 97.700,186.949 97.493 C 187.269 97.293,187.358 97.304,187.661 97.578 C 187.936 97.827,188.050 97.850,188.212 97.686 C 188.374 97.523,188.361 97.501,188.152 97.581 C 188.006 97.636,187.791 97.566,187.673 97.424 C 187.396 97.091,187.098 97.097,186.812 97.443 M191.875 97.282 C 192.035 97.323,192.298 97.323,192.458 97.282 C 192.619 97.240,192.487 97.205,192.167 97.205 C 191.846 97.205,191.715 97.240,191.875 97.282 M196.627 97.285 C 196.834 97.324,197.134 97.323,197.294 97.281 C 197.453 97.239,197.283 97.207,196.917 97.209 C 196.550 97.211,196.420 97.245,196.627 97.285 M204.794 97.285 C 205.001 97.324,205.301 97.323,205.460 97.281 C 205.620 97.239,205.450 97.207,205.083 97.209 C 204.717 97.211,204.586 97.245,204.794 97.285 M211.500 97.338 C 211.912 97.408,212.438 97.514,212.667 97.575 C 212.929 97.644,212.875 97.589,212.523 97.426 C 212.214 97.283,211.689 97.177,211.356 97.189 C 210.759 97.211,210.761 97.213,211.500 97.338 M216.875 97.282 C 217.035 97.323,217.298 97.323,217.458 97.282 C 217.619 97.240,217.487 97.205,217.167 97.205 C 216.846 97.205,216.715 97.240,216.875 97.282 M220.574 97.429 C 220.396 97.573,220.362 97.632,220.500 97.558 C 220.637 97.485,221.088 97.377,221.500 97.318 L 222.250 97.211 221.574 97.189 C 221.176 97.176,220.764 97.275,220.574 97.429 M226.201 97.917 C 225.464 98.754,225.390 98.791,225.282 98.375 C 225.224 98.156,225.201 98.176,225.186 98.458 C 225.156 99.042,225.537 98.904,226.223 98.083 C 226.919 97.250,227.269 97.147,227.495 97.708 C 227.587 97.938,227.650 97.983,227.656 97.825 C 227.669 97.520,227.351 97.167,227.064 97.167 C 226.953 97.167,226.565 97.504,226.201 97.917 M233.627 97.285 C 233.834 97.324,234.134 97.323,234.294 97.281 C 234.453 97.239,234.283 97.207,233.917 97.209 C 233.550 97.211,233.420 97.245,233.627 97.285 M239.375 97.282 C 239.535 97.323,239.798 97.323,239.958 97.282 C 240.119 97.240,239.987 97.205,239.667 97.205 C 239.346 97.205,239.215 97.240,239.375 97.282 M174.312 97.532 C 174.486 97.763,174.600 97.781,174.930 97.630 C 175.153 97.529,175.303 97.414,175.265 97.376 C 175.227 97.338,175.050 97.384,174.873 97.479 C 174.643 97.602,174.487 97.594,174.325 97.451 C 174.137 97.283,174.135 97.297,174.312 97.532 M175.662 97.443 C 175.756 97.490,175.833 97.665,175.833 97.833 C 175.833 98.001,175.756 98.177,175.662 98.224 C 175.569 98.270,175.587 98.289,175.704 98.265 C 175.821 98.242,175.917 98.047,175.917 97.833 C 175.917 97.619,175.821 97.425,175.704 97.401 C 175.587 97.378,175.569 97.396,175.662 97.443 M180.988 97.542 C 181.170 97.783,181.170 97.884,180.988 98.125 C 180.779 98.403,180.783 98.403,181.087 98.125 C 181.400 97.838,181.400 97.829,181.087 97.542 C 180.783 97.264,180.779 97.264,180.988 97.542 M203.703 97.593 C 202.656 98.327,202.529 99.858,203.438 100.794 L 204.042 101.417 203.521 100.786 C 202.673 99.760,202.892 98.174,203.960 97.594 C 204.211 97.458,204.340 97.344,204.245 97.340 C 204.151 97.336,203.907 97.450,203.703 97.593 M206.389 97.878 C 206.679 98.178,206.949 98.402,206.988 98.376 C 207.083 98.314,206.138 97.333,205.983 97.333 C 205.916 97.333,206.099 97.578,206.389 97.878 M218.205 97.593 C 218.455 97.729,218.771 98.045,218.907 98.295 C 219.042 98.545,219.156 98.650,219.160 98.529 C 219.169 98.242,218.258 97.331,217.971 97.340 C 217.850 97.344,217.955 97.458,218.205 97.593 M230.783 97.660 C 230.843 97.887,230.790 98.098,230.649 98.196 C 230.456 98.331,230.459 98.347,230.667 98.291 C 230.975 98.207,231.093 97.693,230.858 97.458 C 230.739 97.339,230.716 97.401,230.783 97.660 M232.459 97.708 C 232.244 97.915,232.183 98.000,232.325 97.898 C 232.467 97.797,232.733 97.630,232.917 97.528 C 233.100 97.427,233.160 97.341,233.051 97.338 C 232.941 97.336,232.675 97.502,232.459 97.708 M234.917 97.528 C 235.100 97.630,235.366 97.797,235.508 97.898 C 235.650 98.000,235.590 97.915,235.374 97.708 C 235.158 97.502,234.892 97.336,234.782 97.338 C 234.673 97.341,234.733 97.427,234.917 97.528 M240.347 97.375 C 240.385 97.398,240.642 97.604,240.917 97.833 L 241.417 98.250 241.013 97.792 C 240.790 97.540,240.534 97.333,240.443 97.333 C 240.352 97.333,240.309 97.352,240.347 97.375 M166.595 98.016 C 166.864 98.345,167.117 98.587,167.158 98.552 C 167.199 98.518,166.980 98.248,166.670 97.953 L 166.108 97.417 166.595 98.016 M182.167 97.916 C 181.952 98.145,181.808 98.360,181.847 98.394 C 181.885 98.428,182.091 98.241,182.304 97.978 C 182.782 97.390,182.697 97.352,182.167 97.916 M215.431 98.013 C 215.194 98.295,215.002 98.614,215.005 98.721 C 215.008 98.829,215.093 98.767,215.194 98.583 C 215.296 98.400,215.532 98.081,215.718 97.875 C 215.905 97.669,216.014 97.500,215.961 97.500 C 215.907 97.500,215.669 97.731,215.431 98.013 M171.033 98.780 C 170.989 100.397,170.259 101.081,169.593 100.130 C 169.450 99.926,169.333 99.839,169.333 99.937 C 169.333 100.309,169.978 100.708,170.405 100.601 C 171.010 100.449,171.189 99.976,171.124 98.705 L 171.065 97.583 171.033 98.780 M199.500 97.795 C 199.500 97.879,199.650 98.084,199.833 98.250 C 200.094 98.486,200.174 98.790,200.199 99.651 L 200.231 100.750 200.290 99.700 C 200.343 98.771,200.301 98.593,199.925 98.146 C 199.691 97.868,199.500 97.710,199.500 97.795 M219.937 97.923 C 219.880 98.072,219.842 98.394,219.852 98.639 C 219.867 98.972,219.904 98.916,220.002 98.417 C 220.140 97.708,220.109 97.475,219.937 97.923 M236.900 100.167 C 236.900 101.496,236.925 102.040,236.957 101.375 C 236.989 100.710,236.989 99.623,236.957 98.958 C 236.925 98.294,236.900 98.837,236.900 100.167 M168.052 98.917 C 168.053 99.467,168.084 99.672,168.121 99.372 C 168.158 99.072,168.157 98.622,168.119 98.372 C 168.081 98.122,168.051 98.367,168.052 98.917 M198.675 98.000 C 198.673 98.046,198.780 98.383,198.912 98.750 C 199.044 99.117,199.153 99.267,199.153 99.083 C 199.155 98.806,198.686 97.744,198.675 98.000 M221.037 98.196 C 220.823 98.411,221.054 98.833,221.386 98.833 C 221.484 98.833,221.418 98.726,221.240 98.595 C 220.973 98.399,220.960 98.343,221.167 98.275 C 221.304 98.230,221.529 98.156,221.667 98.110 C 221.835 98.053,221.806 98.022,221.575 98.013 C 221.387 98.006,221.145 98.088,221.037 98.196 M159.273 98.583 C 159.658 99.241,159.667 99.251,159.667 99.046 C 159.667 98.949,159.512 98.693,159.323 98.477 L 158.980 98.083 159.273 98.583 M184.334 98.366 C 184.631 98.725,184.512 98.833,183.792 98.861 L 183.083 98.889 183.730 98.956 C 184.518 99.037,184.864 98.777,184.452 98.415 C 184.296 98.278,184.243 98.256,184.334 98.366 M188.095 98.488 C 187.935 98.664,187.839 98.945,187.883 99.113 C 187.951 99.378,187.964 99.373,187.981 99.075 C 188.019 98.398,188.819 98.082,189.334 98.542 C 189.532 98.719,189.534 98.706,189.347 98.458 C 189.055 98.074,188.457 98.087,188.095 98.488 M204.327 98.424 C 204.013 98.803,204.339 99.032,205.103 98.970 C 205.745 98.917,206.083 98.345,205.537 98.235 C 205.421 98.211,205.402 98.230,205.496 98.276 C 205.940 98.497,205.641 98.833,205.000 98.833 C 204.311 98.833,204.189 98.711,204.533 98.367 C 204.643 98.257,204.690 98.167,204.637 98.167 C 204.584 98.167,204.445 98.282,204.327 98.424 M217.667 98.366 C 217.970 98.731,217.842 98.833,217.042 98.862 L 216.250 98.892 216.981 98.956 C 217.845 99.033,218.210 98.788,217.785 98.415 C 217.629 98.278,217.576 98.256,217.667 98.366 M227.054 98.542 C 226.868 98.748,226.657 99.029,226.584 99.167 C 226.443 99.432,226.481 99.396,227.157 98.625 C 227.377 98.373,227.521 98.167,227.475 98.167 C 227.429 98.167,227.240 98.335,227.054 98.542 M238.401 98.542 C 238.086 98.914,238.086 98.914,238.417 98.639 C 238.600 98.486,238.975 98.329,239.250 98.289 L 239.750 98.217 239.234 98.192 C 238.883 98.175,238.617 98.287,238.401 98.542 M165.737 98.662 C 166.093 99.220,166.068 99.765,165.667 100.167 C 165.483 100.350,165.404 100.500,165.491 100.500 C 166.103 100.500,166.330 99.222,165.820 98.643 L 165.473 98.250 165.737 98.662 M228.887 99.333 C 228.887 99.929,228.917 100.173,228.954 99.875 C 228.991 99.577,228.991 99.090,228.954 98.792 C 228.917 98.494,228.887 98.737,228.887 99.333 M233.095 98.595 C 232.951 98.739,232.839 98.983,232.846 99.137 C 232.857 99.365,232.876 99.371,232.952 99.167 C 233.002 99.029,233.158 98.785,233.298 98.625 C 233.613 98.262,233.452 98.239,233.095 98.595 M193.720 99.667 C 193.720 100.263,193.750 100.506,193.787 100.208 C 193.824 99.910,193.824 99.423,193.787 99.125 C 193.750 98.827,193.720 99.071,193.720 99.667 M201.379 99.333 C 201.379 99.746,201.411 99.915,201.451 99.708 C 201.491 99.502,201.491 99.165,201.451 98.958 C 201.411 98.752,201.379 98.921,201.379 99.333 M207.019 99.035 C 207.000 99.480,206.982 99.487,205.708 99.543 L 204.417 99.600 205.714 99.633 C 207.075 99.668,207.290 99.554,207.117 98.885 C 207.065 98.685,207.032 98.735,207.019 99.035 M209.545 99.333 C 209.545 99.746,209.578 99.915,209.618 99.708 C 209.657 99.502,209.657 99.165,209.618 98.958 C 209.578 98.752,209.545 98.921,209.545 99.333 M162.709 99.417 C 162.711 99.783,162.745 99.914,162.785 99.706 C 162.824 99.499,162.823 99.199,162.781 99.040 C 162.739 98.880,162.707 99.050,162.709 99.417 M167.209 99.417 C 167.211 99.783,167.245 99.914,167.285 99.706 C 167.324 99.499,167.323 99.199,167.281 99.040 C 167.239 98.880,167.207 99.050,167.209 99.417 M189.533 99.938 C 189.506 100.897,189.556 101.170,189.792 101.355 C 190.047 101.555,190.059 101.552,189.883 101.326 C 189.773 101.185,189.657 100.548,189.624 99.910 L 189.565 98.750 189.533 99.938 M241.542 99.417 C 241.544 99.783,241.578 99.914,241.618 99.706 C 241.658 99.499,241.656 99.199,241.615 99.040 C 241.573 98.880,241.540 99.050,241.542 99.417 M179.717 99.833 C 179.717 100.337,179.748 100.544,179.786 100.292 C 179.824 100.040,179.824 99.627,179.786 99.375 C 179.748 99.123,179.717 99.329,179.717 99.833 M185.779 99.235 C 185.709 99.418,185.354 99.501,184.466 99.543 L 183.250 99.600 184.438 99.634 C 185.543 99.664,186.281 99.392,185.961 99.072 C 185.913 99.025,185.831 99.098,185.779 99.235 M160.665 100.284 C 160.620 100.945,160.643 101.424,160.717 101.351 C 160.790 101.277,160.827 100.736,160.798 100.150 L 160.746 99.083 160.665 100.284 M174.385 100.083 C 174.386 100.633,174.417 100.838,174.454 100.539 C 174.491 100.239,174.490 99.789,174.452 99.539 C 174.414 99.288,174.384 99.533,174.385 100.083 M190.665 100.284 C 190.620 100.945,190.643 101.424,190.717 101.351 C 190.790 101.277,190.827 100.736,190.798 100.150 L 190.746 99.083 190.665 100.284 M218.000 99.450 C 216.168 99.538,215.739 99.790,216.458 100.355 C 216.721 100.561,216.728 100.555,216.527 100.299 C 216.156 99.825,216.461 99.667,217.750 99.667 C 218.427 99.667,219.027 99.592,219.083 99.500 C 219.140 99.408,219.163 99.348,219.135 99.365 C 219.107 99.383,218.596 99.421,218.000 99.450 M199.000 99.828 C 199.000 100.008,198.765 100.439,198.479 100.786 L 197.958 101.417 198.562 100.794 C 199.069 100.272,199.380 99.500,199.083 99.500 C 199.037 99.500,199.000 99.647,199.000 99.828 M232.846 99.683 C 232.839 99.829,233.002 100.091,233.208 100.266 C 233.580 100.581,233.581 100.580,233.313 100.250 C 233.165 100.067,233.002 99.804,232.952 99.667 C 232.874 99.454,232.858 99.457,232.846 99.683 M225.167 99.861 C 225.167 99.968,225.217 100.005,225.279 99.943 C 225.341 99.881,225.585 100.000,225.821 100.207 L 226.250 100.583 225.846 100.125 C 225.417 99.639,225.167 99.541,225.167 99.861 M234.548 100.117 C 234.345 100.327,234.239 100.500,234.313 100.500 C 234.476 100.500,235.082 99.852,234.985 99.782 C 234.947 99.755,234.751 99.906,234.548 100.117 M212.778 100.069 C 212.726 100.207,212.435 100.391,212.133 100.478 C 211.746 100.590,211.689 100.641,211.940 100.652 C 212.328 100.668,213.148 100.094,212.979 99.924 C 212.921 99.866,212.831 99.932,212.778 100.069 M194.672 100.116 C 194.669 100.225,194.835 100.491,195.042 100.707 C 195.248 100.923,195.333 100.983,195.232 100.842 C 195.130 100.700,194.963 100.433,194.862 100.250 C 194.760 100.067,194.675 100.006,194.672 100.116 M238.401 100.292 C 238.575 100.498,238.838 100.661,238.984 100.654 C 239.210 100.642,239.212 100.626,239.000 100.548 C 238.862 100.498,238.600 100.335,238.417 100.187 C 238.086 99.919,238.086 99.920,238.401 100.292 M209.672 100.282 C 209.669 100.392,209.835 100.658,210.042 100.874 C 210.248 101.090,210.333 101.150,210.232 101.008 C 210.130 100.866,209.963 100.600,209.862 100.417 C 209.760 100.233,209.675 100.173,209.672 100.282 M241.037 100.799 L 240.658 101.417 241.079 100.949 C 241.311 100.692,241.500 100.411,241.500 100.324 C 241.500 100.079,241.444 100.137,241.037 100.799 M219.993 100.592 C 219.815 100.806,219.831 100.898,220.089 101.133 C 220.383 101.403,220.387 101.401,220.164 101.107 C 219.958 100.835,219.968 100.769,220.246 100.565 C 220.421 100.438,220.484 100.333,220.386 100.333 C 220.288 100.333,220.111 100.450,219.993 100.592 M223.180 100.530 C 223.173 100.683,222.969 100.965,222.728 101.155 C 222.486 101.345,222.360 101.500,222.448 101.500 C 222.726 101.500,223.373 100.700,223.281 100.470 C 223.221 100.319,223.189 100.338,223.180 100.530 M163.536 101.042 C 163.794 101.294,164.098 101.498,164.211 101.495 C 164.324 101.492,164.267 101.407,164.083 101.306 C 163.900 101.204,163.596 101.000,163.409 100.852 C 163.221 100.704,163.278 100.790,163.536 101.042 M166.742 100.680 C 166.680 100.779,166.395 101.004,166.107 101.180 C 165.819 101.355,165.676 101.499,165.789 101.499 C 166.002 101.500,167.172 100.514,166.968 100.505 C 166.905 100.502,166.803 100.581,166.742 100.680 M184.975 100.622 C 185.444 100.679,185.518 100.745,185.442 101.036 C 185.378 101.283,185.403 101.330,185.531 101.202 C 185.861 100.872,185.547 100.498,184.964 100.527 L 184.417 100.553 184.975 100.622 M202.069 100.707 C 202.264 100.857,202.347 101.058,202.282 101.226 C 202.129 101.625,201.087 101.587,200.667 101.167 C 200.483 100.983,200.333 100.904,200.333 100.991 C 200.333 101.560,201.941 101.889,202.345 101.403 C 202.589 101.109,202.403 100.656,201.988 100.532 C 201.857 100.494,201.893 100.572,202.069 100.707 M205.667 100.565 C 205.667 100.601,205.924 100.660,206.238 100.697 C 206.553 100.734,206.773 100.704,206.728 100.632 C 206.648 100.501,205.667 100.440,205.667 100.565 M218.308 100.622 C 218.777 100.679,218.852 100.745,218.776 101.036 C 218.711 101.283,218.737 101.330,218.865 101.202 C 219.194 100.872,218.880 100.498,218.297 100.527 L 217.750 100.553 218.308 100.622 M227.458 100.858 C 227.520 101.094,227.447 101.293,227.244 101.442 C 227.075 101.565,227.011 101.667,227.101 101.667 C 227.541 101.667,227.870 100.812,227.516 100.593 C 227.432 100.542,227.407 100.661,227.458 100.858 M230.986 101.000 C 230.925 101.366,230.833 101.417,230.224 101.417 C 229.843 101.417,229.566 101.473,229.609 101.542 C 229.925 102.051,231.260 101.470,231.125 100.883 C 231.073 100.655,231.040 100.683,230.986 101.000 M170.426 101.255 C 170.249 101.390,170.177 101.500,170.268 101.500 C 170.359 101.500,170.515 101.418,170.616 101.318 C 170.747 101.186,170.919 101.215,171.237 101.424 C 171.479 101.582,171.718 101.671,171.768 101.621 C 171.818 101.571,171.703 101.481,171.513 101.421 C 171.322 101.360,171.167 101.241,171.167 101.155 C 171.167 100.926,170.796 100.976,170.426 101.255 M238.167 101.139 C 238.167 101.215,238.260 101.281,238.375 101.286 C 238.490 101.290,238.733 101.345,238.917 101.408 C 239.139 101.485,239.111 101.438,238.833 101.267 C 238.358 100.976,238.167 100.939,238.167 101.139 M183.708 101.615 C 183.869 101.657,184.131 101.657,184.292 101.615 C 184.452 101.573,184.321 101.539,184.000 101.539 C 183.679 101.539,183.548 101.573,183.708 101.615 M205.042 101.615 C 205.202 101.657,205.465 101.657,205.625 101.615 C 205.785 101.573,205.654 101.539,205.333 101.539 C 205.012 101.539,204.881 101.573,205.042 101.615 M217.042 101.615 C 217.202 101.657,217.465 101.657,217.625 101.615 C 217.785 101.573,217.654 101.539,217.333 101.539 C 217.012 101.539,216.881 101.573,217.042 101.615 " stroke="none" fill="#8cbc6c" fill-rule="evenodd"></path><path id="path4" d="M181.394 35.250 C 181.395 36.167,181.423 36.520,181.456 36.036 C 181.490 35.552,181.490 34.802,181.456 34.369 C 181.421 33.937,181.394 34.333,181.394 35.250 M176.408 42.083 C 176.408 45.108,176.430 46.369,176.458 44.886 C 176.486 43.402,176.486 40.927,176.458 39.386 C 176.431 37.844,176.408 39.058,176.408 42.083 M195.333 39.719 C 195.333 39.748,195.577 39.991,195.875 40.260 L 196.417 40.750 195.927 40.208 C 195.471 39.703,195.333 39.590,195.333 39.719 M208.562 42.750 C 208.563 43.758,208.590 44.149,208.623 43.619 C 208.657 43.088,208.656 42.263,208.623 41.786 C 208.589 41.308,208.562 41.742,208.562 42.750 M223.381 44.750 C 223.382 45.208,223.415 45.376,223.453 45.123 C 223.491 44.869,223.490 44.494,223.451 44.289 C 223.411 44.084,223.380 44.292,223.381 44.750 M203.552 50.250 C 203.553 50.800,203.584 51.005,203.621 50.705 C 203.658 50.406,203.657 49.956,203.619 49.705 C 203.581 49.455,203.551 49.700,203.552 50.250 M208.563 53.833 C 208.563 54.887,208.590 55.319,208.623 54.792 C 208.656 54.265,208.656 53.402,208.623 52.875 C 208.590 52.348,208.563 52.779,208.563 53.833 M203.550 55.333 C 203.550 55.837,203.581 56.044,203.619 55.792 C 203.658 55.540,203.658 55.127,203.619 54.875 C 203.581 54.623,203.550 54.829,203.550 55.333 M154.074 84.083 C 154.074 86.833,154.097 87.982,154.125 86.635 C 154.153 85.289,154.153 83.039,154.125 81.635 C 154.097 80.232,154.074 81.333,154.074 84.083 M206.907 84.083 C 206.907 86.833,206.930 87.982,206.958 86.635 C 206.986 85.289,206.986 83.039,206.958 81.635 C 206.930 80.232,206.907 81.333,206.907 84.083 M191.071 85.750 C 191.071 87.675,191.095 88.440,191.124 87.449 C 191.154 86.459,191.154 84.884,191.124 83.949 C 191.095 83.015,191.070 83.825,191.071 85.750 M238.731 86.750 C 238.732 87.942,238.758 88.407,238.790 87.785 C 238.823 87.162,238.822 86.187,238.790 85.618 C 238.757 85.049,238.731 85.558,238.731 86.750 M178.064 87.083 C 178.064 88.183,178.091 88.612,178.124 88.035 C 178.156 87.459,178.156 86.559,178.123 86.035 C 178.090 85.512,178.063 85.983,178.064 87.083 M170.885 98.750 C 170.886 99.300,170.917 99.505,170.954 99.205 C 170.991 98.906,170.990 98.456,170.952 98.205 C 170.914 97.955,170.884 98.200,170.885 98.750 M200.050 99.500 C 200.050 100.004,200.081 100.210,200.119 99.958 C 200.158 99.706,200.158 99.294,200.119 99.042 C 200.081 98.790,200.050 98.996,200.050 99.500 M189.385 99.917 C 189.386 100.467,189.417 100.672,189.454 100.372 C 189.491 100.072,189.490 99.622,189.452 99.372 C 189.414 99.122,189.384 99.367,189.385 99.917 M174.548 100.250 C 174.549 100.708,174.581 100.876,174.620 100.623 C 174.658 100.369,174.657 99.994,174.617 99.789 C 174.578 99.584,174.546 99.792,174.548 100.250 " stroke="none" fill="#b5ccb0" fill-rule="evenodd"></path><path id="path5" d="M176.387 35.667 C 176.387 36.262,176.417 36.506,176.454 36.208 C 176.491 35.910,176.491 35.423,176.454 35.125 C 176.417 34.827,176.387 35.071,176.387 35.667 M181.390 38.083 C 181.391 38.817,181.420 39.096,181.456 38.704 C 181.491 38.312,181.490 37.712,181.454 37.371 C 181.419 37.029,181.390 37.350,181.390 38.083 M208.542 40.417 C 208.544 40.783,208.578 40.914,208.618 40.706 C 208.658 40.499,208.656 40.199,208.615 40.040 C 208.573 39.880,208.540 40.050,208.542 40.417 M196.576 48.250 C 196.576 52.192,196.598 53.780,196.625 51.780 C 196.651 49.780,196.651 46.555,196.625 44.614 C 196.598 42.672,196.576 44.308,196.576 48.250 M181.400 49.500 C 181.400 50.921,181.426 51.502,181.457 50.792 C 181.488 50.081,181.488 48.919,181.457 48.208 C 181.426 47.498,181.400 48.079,181.400 49.500 M203.556 48.167 C 203.556 48.854,203.585 49.135,203.621 48.792 C 203.657 48.448,203.657 47.885,203.621 47.542 C 203.585 47.198,203.556 47.479,203.556 48.167 M218.390 50.750 C 218.391 51.483,218.420 51.763,218.456 51.371 C 218.491 50.979,218.490 50.379,218.454 50.037 C 218.419 49.696,218.390 50.017,218.390 50.750 M191.232 54.333 C 191.232 55.571,191.258 56.077,191.290 55.458 C 191.322 54.840,191.322 53.827,191.290 53.208 C 191.258 52.590,191.232 53.096,191.232 54.333 M208.548 56.417 C 208.549 56.875,208.581 57.043,208.620 56.789 C 208.658 56.536,208.657 56.161,208.617 55.956 C 208.578 55.751,208.546 55.958,208.548 56.417 M203.550 57.000 C 203.550 57.504,203.581 57.710,203.619 57.458 C 203.658 57.206,203.658 56.794,203.619 56.542 C 203.581 56.290,203.550 56.496,203.550 57.000 M164.407 84.083 C 164.407 86.833,164.430 87.982,164.458 86.635 C 164.486 85.289,164.486 83.039,164.458 81.635 C 164.430 80.232,164.407 81.333,164.407 84.083 M205.733 86.667 C 205.733 87.996,205.759 88.540,205.790 87.875 C 205.822 87.210,205.822 86.123,205.790 85.458 C 205.759 84.794,205.733 85.337,205.733 86.667 M224.398 87.167 C 224.398 88.313,224.424 88.781,224.457 88.208 C 224.489 87.635,224.489 86.698,224.457 86.125 C 224.424 85.552,224.398 86.021,224.398 87.167 M214.401 98.583 C 214.401 100.050,214.427 100.628,214.457 99.867 C 214.488 99.106,214.488 97.906,214.457 97.200 C 214.426 96.494,214.401 97.117,214.401 98.583 M225.387 97.333 C 225.387 97.929,225.417 98.173,225.454 97.875 C 225.491 97.577,225.491 97.090,225.454 96.792 C 225.417 96.494,225.387 96.737,225.387 97.333 M167.890 98.917 C 167.891 99.650,167.920 99.929,167.956 99.537 C 167.991 99.145,167.990 98.545,167.954 98.204 C 167.919 97.863,167.890 98.183,167.890 98.917 M236.733 100.083 C 236.734 101.458,236.759 101.999,236.791 101.284 C 236.822 100.569,236.822 99.444,236.790 98.784 C 236.759 98.124,236.733 98.708,236.733 100.083 M186.392 99.417 C 186.392 100.242,186.420 100.600,186.455 100.213 C 186.490 99.827,186.490 99.152,186.456 98.713 C 186.422 98.275,186.393 98.592,186.392 99.417 M193.889 99.833 C 193.889 100.521,193.919 100.802,193.955 100.458 C 193.991 100.115,193.991 99.552,193.955 99.208 C 193.919 98.865,193.889 99.146,193.889 99.833 M228.718 99.583 C 228.719 100.133,228.750 100.338,228.787 100.039 C 228.825 99.739,228.824 99.289,228.786 99.039 C 228.748 98.788,228.717 99.033,228.718 99.583 M179.881 100.083 C 179.882 100.542,179.915 100.709,179.953 100.456 C 179.991 100.203,179.990 99.828,179.951 99.623 C 179.911 99.418,179.880 99.625,179.881 100.083 M223.709 100.250 C 223.711 100.617,223.745 100.747,223.785 100.540 C 223.824 100.332,223.823 100.032,223.781 99.873 C 223.739 99.714,223.707 99.883,223.709 100.250 M225.353 100.542 C 225.367 100.827,225.390 100.846,225.449 100.623 C 225.491 100.461,225.606 100.379,225.705 100.440 C 225.812 100.506,225.837 100.473,225.766 100.359 C 225.568 100.039,225.332 100.143,225.353 100.542 " stroke="none" fill="#bed6b7" fill-rule="evenodd"></path><path id="path6" d="M223.217 32.667 C 223.217 33.171,223.248 33.377,223.286 33.125 C 223.324 32.873,223.324 32.460,223.286 32.208 C 223.248 31.956,223.217 32.162,223.217 32.667 M181.220 34.833 C 181.220 35.429,181.250 35.673,181.287 35.375 C 181.324 35.077,181.324 34.590,181.287 34.292 C 181.250 33.994,181.220 34.237,181.220 34.833 M176.572 43.083 C 176.572 45.283,176.596 46.160,176.625 45.032 C 176.653 43.904,176.653 42.104,176.624 41.032 C 176.595 39.960,176.572 40.883,176.572 43.083 M208.396 43.500 C 208.396 44.554,208.423 44.985,208.456 44.458 C 208.490 43.931,208.490 43.069,208.456 42.542 C 208.423 42.015,208.396 42.446,208.396 43.500 M223.226 43.750 C 223.225 44.575,223.254 44.934,223.288 44.547 C 223.323 44.160,223.324 43.485,223.289 43.047 C 223.255 42.609,223.226 42.925,223.226 43.750 M191.545 43.333 C 191.545 43.746,191.578 43.915,191.618 43.708 C 191.657 43.502,191.657 43.165,191.618 42.958 C 191.578 42.752,191.545 42.921,191.545 43.333 M203.879 43.667 C 203.879 44.079,203.911 44.248,203.951 44.042 C 203.991 43.835,203.991 43.498,203.951 43.292 C 203.911 43.085,203.879 43.254,203.879 43.667 M223.050 48.500 C 223.050 49.004,223.081 49.210,223.119 48.958 C 223.158 48.706,223.158 48.294,223.119 48.042 C 223.081 47.790,223.050 47.996,223.050 48.500 M203.737 52.750 C 203.737 54.583,203.761 55.356,203.791 54.467 C 203.821 53.578,203.821 52.078,203.791 51.134 C 203.761 50.189,203.737 50.917,203.737 52.750 M208.387 52.833 C 208.387 53.429,208.417 53.673,208.454 53.375 C 208.491 53.077,208.491 52.590,208.454 52.292 C 208.417 51.994,208.387 52.237,208.387 52.833 M196.205 58.500 C 196.205 58.821,196.240 58.952,196.282 58.792 C 196.323 58.631,196.323 58.369,196.282 58.208 C 196.240 58.048,196.205 58.179,196.205 58.500 M175.236 85.833 C 175.236 87.621,175.261 88.352,175.291 87.458 C 175.321 86.565,175.321 85.102,175.291 84.208 C 175.261 83.315,175.236 84.046,175.236 85.833 M225.220 97.167 C 225.220 97.763,225.250 98.006,225.287 97.708 C 225.324 97.410,225.324 96.923,225.287 96.625 C 225.250 96.327,225.220 96.571,225.220 97.167 M223.899 98.583 C 223.899 99.867,223.926 100.370,223.957 99.701 C 223.989 99.032,223.989 97.982,223.957 97.368 C 223.925 96.753,223.899 97.300,223.899 98.583 M178.393 99.333 C 178.393 100.204,178.422 100.560,178.456 100.125 C 178.490 99.690,178.490 98.977,178.456 98.542 C 178.422 98.106,178.393 98.462,178.393 99.333 M186.561 99.417 C 186.561 100.333,186.589 100.687,186.623 100.203 C 186.657 99.718,186.656 98.968,186.622 98.536 C 186.588 98.104,186.560 98.500,186.561 99.417 M187.881 100.083 C 187.882 100.542,187.915 100.709,187.953 100.456 C 187.991 100.203,187.990 99.828,187.951 99.623 C 187.911 99.418,187.880 99.625,187.881 100.083 M225.205 100.500 C 225.205 100.821,225.240 100.952,225.282 100.792 C 225.323 100.631,225.323 100.369,225.282 100.208 C 225.240 100.048,225.205 100.179,225.205 100.500 " stroke="none" fill="#84bc74" fill-rule="evenodd"></path><path id="path7" d="M198.333 10.139 C 197.737 10.394,195.188 11.732,192.667 13.113 C 187.117 16.152,182.894 18.429,177.583 21.247 C 175.383 22.415,173.472 23.476,173.335 23.606 C 172.780 24.134,172.577 52.564,173.125 53.029 C 173.285 53.165,175.067 54.162,177.083 55.245 C 179.100 56.327,183.450 58.676,186.750 60.463 C 201.085 68.229,200.130 67.882,202.833 66.304 C 203.704 65.795,206.629 64.159,209.333 62.667 C 212.037 61.176,216.313 58.813,218.833 57.417 C 221.354 56.021,224.167 54.482,225.083 53.998 C 226.000 53.514,226.844 53.002,226.958 52.860 C 227.335 52.395,227.254 23.624,226.875 23.310 C 226.715 23.176,225.796 22.666,224.833 22.175 C 222.200 20.831,215.263 17.151,209.000 13.775 C 200.903 9.411,201.439 9.666,200.355 9.671 C 199.707 9.674,199.081 9.819,198.333 10.139 M201.815 14.241 C 203.128 14.902,203.876 15.677,203.800 16.298 C 203.748 16.736,203.612 16.838,202.685 17.139 C 202.015 17.356,199.335 18.868,199.334 19.029 C 199.334 19.090,200.627 19.826,202.208 20.663 C 205.717 22.520,205.752 22.550,205.083 23.103 C 202.685 25.088,201.608 25.057,197.323 22.878 L 194.527 21.455 193.064 22.246 C 189.713 24.058,189.663 23.716,193.583 25.792 C 198.500 28.395,200.130 29.170,200.451 29.054 C 200.615 28.995,202.877 27.789,205.477 26.375 C 214.224 21.616,215.089 21.276,216.597 22.006 C 219.469 23.397,219.065 24.567,215.031 26.541 C 213.868 27.110,211.979 28.092,210.833 28.724 C 199.332 35.066,200.282 34.820,195.989 32.563 C 194.666 31.867,191.303 30.100,188.515 28.637 C 179.922 24.126,179.886 24.080,183.397 22.196 C 184.416 21.649,187.762 19.853,190.833 18.205 C 200.408 13.067,199.869 13.261,201.815 14.241 M179.320 31.143 C 181.458 32.322,181.401 32.181,181.500 36.499 C 181.599 40.844,181.420 40.494,184.329 42.036 C 185.385 42.596,187.239 43.604,188.448 44.277 C 191.377 45.907,191.333 45.916,191.333 43.665 C 191.333 38.178,192.565 36.994,195.440 39.717 L 196.583 40.801 196.631 47.085 C 196.657 50.541,196.612 54.894,196.531 56.758 C 196.326 61.480,196.264 61.553,193.635 60.208 C 191.369 59.049,191.316 58.929,191.205 54.643 C 191.129 51.755,191.078 51.265,190.813 50.929 C 190.569 50.619,186.992 48.625,182.513 46.302 C 181.565 45.811,181.501 45.987,181.491 49.145 C 181.476 53.471,181.343 53.636,178.891 52.389 C 176.222 51.032,176.251 51.190,176.379 38.927 C 176.483 28.861,176.259 29.455,179.320 31.143 M223.188 30.776 C 223.499 31.152,223.502 49.026,223.191 50.116 C 222.951 50.959,222.220 51.610,220.603 52.423 C 218.500 53.480,218.403 53.355,218.460 49.654 C 218.508 46.542,218.389 45.909,217.792 46.093 C 217.048 46.322,209.738 50.259,209.250 50.694 L 208.750 51.139 208.647 54.611 C 208.591 56.521,208.465 58.281,208.367 58.523 C 208.049 59.308,204.345 61.411,203.958 61.025 C 203.369 60.437,203.393 42.014,203.985 40.457 C 204.167 39.978,207.210 38.333,207.914 38.333 C 208.491 38.333,208.545 38.633,208.628 42.292 C 208.670 44.148,208.746 45.667,208.795 45.667 C 208.974 45.667,215.444 42.290,216.725 41.528 C 218.411 40.525,218.361 40.662,218.451 36.848 C 218.493 35.053,218.601 33.343,218.691 33.050 C 219.121 31.641,222.493 29.936,223.188 30.776 M157.229 80.583 C 157.229 81.592,157.257 81.983,157.290 81.452 C 157.323 80.922,157.323 80.097,157.289 79.619 C 157.256 79.141,157.229 79.575,157.229 80.583 M161.229 80.583 C 161.229 81.592,161.257 81.983,161.290 81.452 C 161.323 80.922,161.323 80.097,161.289 79.619 C 161.256 79.141,161.229 79.575,161.229 80.583 M209.860 80.375 C 209.845 81.269,209.890 82.000,209.958 82.000 C 210.027 82.001,210.063 81.494,210.037 80.875 C 209.957 78.898,209.887 78.703,209.860 80.375 M193.706 81.582 C 194.086 81.990,194.197 82.033,194.373 81.844 C 194.543 81.661,194.541 81.642,194.363 81.743 C 194.230 81.819,193.965 81.714,193.696 81.480 L 193.250 81.093 193.706 81.582 M175.071 85.750 C 175.071 87.767,175.095 88.569,175.125 87.532 C 175.154 86.496,175.154 84.846,175.124 83.866 C 175.095 82.885,175.071 83.733,175.071 85.750 M239.738 85.750 C 239.738 87.767,239.762 88.569,239.791 87.532 C 239.820 86.496,239.820 84.846,239.791 83.866 C 239.762 82.885,239.738 83.733,239.738 85.750 M158.298 82.624 C 158.875 82.656,159.775 82.656,160.298 82.623 C 160.822 82.590,160.350 82.563,159.250 82.564 C 158.150 82.564,157.722 82.591,158.298 82.624 M168.625 83.618 C 168.831 83.657,169.169 83.657,169.375 83.618 C 169.581 83.578,169.412 83.545,169.000 83.545 C 168.587 83.545,168.419 83.578,168.625 83.618 M200.377 83.620 C 200.631 83.658,201.006 83.657,201.211 83.617 C 201.416 83.578,201.208 83.546,200.750 83.548 C 200.292 83.549,200.124 83.581,200.377 83.620 M233.377 83.620 C 233.631 83.658,234.006 83.657,234.211 83.617 C 234.416 83.578,234.208 83.546,233.750 83.548 C 233.292 83.549,233.124 83.581,233.377 83.620 M189.901 86.667 C 189.901 88.179,189.926 88.798,189.957 88.042 C 189.988 87.285,189.988 86.048,189.957 85.292 C 189.926 84.535,189.901 85.154,189.901 86.667 M215.901 86.750 C 215.901 88.217,215.927 88.794,215.957 88.034 C 215.988 87.273,215.988 86.073,215.957 85.367 C 215.926 84.661,215.901 85.283,215.901 86.750 M180.898 86.750 C 180.898 87.942,180.925 88.407,180.957 87.785 C 180.989 87.162,180.989 86.187,180.957 85.618 C 180.924 85.049,180.898 85.558,180.898 86.750 M184.065 87.000 C 184.065 88.237,184.092 88.744,184.124 88.125 C 184.156 87.506,184.156 86.494,184.124 85.875 C 184.092 85.256,184.065 85.763,184.065 87.000 M230.906 85.542 L 230.417 86.083 230.958 85.594 C 231.463 85.138,231.577 85.000,231.448 85.000 C 231.419 85.000,231.175 85.244,230.906 85.542 M157.239 85.553 C 157.192 85.674,157.176 86.555,157.203 87.511 L 157.252 89.250 157.334 87.291 C 157.416 85.355,157.403 85.124,157.239 85.553 M161.166 87.299 L 161.248 89.250 161.297 87.431 C 161.323 86.430,161.286 85.553,161.214 85.480 C 161.142 85.408,161.120 86.226,161.166 87.299 M209.897 87.417 C 209.897 88.517,209.924 88.945,209.957 88.368 C 209.990 87.792,209.989 86.892,209.956 86.368 C 209.923 85.845,209.897 86.317,209.897 87.417 M194.063 87.500 C 194.063 88.554,194.090 88.985,194.123 88.458 C 194.156 87.931,194.156 87.069,194.123 86.542 C 194.090 86.015,194.063 86.446,194.063 87.500 M165.379 87.500 C 165.379 87.912,165.411 88.081,165.451 87.875 C 165.491 87.669,165.491 87.331,165.451 87.125 C 165.411 86.919,165.379 87.087,165.379 87.500 M223.667 97.760 C 223.667 98.819,223.610 99.652,223.542 99.609 C 223.473 99.567,223.417 99.855,223.417 100.250 C 223.417 100.645,223.473 100.933,223.542 100.891 C 223.610 100.848,223.667 100.926,223.667 101.064 C 223.667 101.201,223.741 101.360,223.833 101.416 C 223.940 101.483,223.948 101.383,223.854 101.135 C 223.775 100.923,223.748 99.644,223.794 98.292 C 223.841 96.940,223.831 95.833,223.773 95.833 C 223.715 95.833,223.667 96.700,223.667 97.760 M212.659 96.621 C 212.613 97.008,212.639 97.261,212.716 97.184 C 212.794 97.106,212.832 96.789,212.800 96.480 C 212.743 95.931,212.740 95.934,212.659 96.621 M230.346 96.689 C 230.339 96.839,230.540 97.087,230.792 97.241 C 231.242 97.515,231.244 97.514,230.901 97.212 C 230.709 97.043,230.508 96.795,230.456 96.661 C 230.378 96.462,230.357 96.467,230.346 96.689 M185.389 97.711 C 185.679 98.011,185.949 98.235,185.988 98.210 C 186.083 98.148,185.138 97.167,184.983 97.167 C 184.916 97.167,185.099 97.412,185.389 97.711 M178.196 99.365 C 178.180 100.437,178.223 101.349,178.292 101.391 C 178.360 101.434,178.396 100.857,178.372 100.110 C 178.291 97.660,178.225 97.383,178.196 99.365 M227.610 98.208 C 227.193 98.865,227.190 98.884,227.563 98.469 C 227.785 98.223,227.995 98.050,228.030 98.086 C 228.066 98.122,228.095 98.004,228.095 97.825 C 228.095 97.413,228.134 97.382,227.610 98.208 M169.555 98.750 C 169.555 99.392,169.586 99.634,169.622 99.288 C 169.658 98.942,169.657 98.417,169.620 98.121 C 169.583 97.825,169.554 98.108,169.555 98.750 M172.562 99.417 C 172.563 100.425,172.590 100.816,172.623 100.286 C 172.657 99.755,172.656 98.930,172.623 98.452 C 172.589 97.974,172.562 98.408,172.562 99.417 M172.896 99.417 C 172.896 100.425,172.924 100.816,172.957 100.286 C 172.990 99.755,172.990 98.930,172.956 98.452 C 172.922 97.974,172.895 98.408,172.896 99.417 M219.450 98.390 C 219.343 98.670,219.861 99.667,220.115 99.667 C 220.166 99.667,220.114 99.554,219.999 99.416 C 219.885 99.278,219.741 98.921,219.680 98.624 C 219.590 98.187,219.546 98.142,219.450 98.390 M183.443 98.458 C 183.401 98.527,183.581 98.591,183.845 98.601 C 184.108 98.610,184.283 98.554,184.235 98.476 C 184.126 98.300,183.548 98.287,183.443 98.458 M204.694 98.479 C 204.547 98.573,204.639 98.614,204.970 98.602 C 205.243 98.592,205.433 98.527,205.390 98.458 C 205.289 98.294,204.972 98.304,204.694 98.479 M211.263 98.652 C 211.082 98.852,211.001 99.146,211.046 99.444 C 211.116 99.910,211.117 99.909,211.142 99.384 C 211.158 99.043,211.299 98.759,211.537 98.593 C 211.741 98.450,211.827 98.333,211.730 98.333 C 211.632 98.333,211.422 98.477,211.263 98.652 M201.778 98.611 C 201.625 98.764,201.637 100.129,201.792 100.224 C 201.860 100.267,201.917 99.896,201.917 99.401 C 201.917 98.905,201.910 98.500,201.903 98.500 C 201.895 98.500,201.839 98.550,201.778 98.611 M230.400 98.734 C 230.350 98.863,230.336 99.219,230.368 99.526 C 230.419 100.015,230.436 99.986,230.506 99.292 C 230.588 98.480,230.558 98.322,230.400 98.734 M161.069 99.060 C 161.021 99.185,161.006 99.729,161.035 100.269 L 161.088 101.250 161.169 100.041 C 161.250 98.828,161.231 98.639,161.069 99.060 M181.375 99.417 C 181.377 99.783,181.411 99.914,181.451 99.706 C 181.491 99.499,181.490 99.199,181.448 99.040 C 181.406 98.880,181.374 99.050,181.375 99.417 M191.056 100.000 C 191.056 100.688,191.085 100.969,191.121 100.625 C 191.157 100.281,191.157 99.719,191.121 99.375 C 191.085 99.031,191.056 99.313,191.056 100.000 M212.705 99.333 C 212.705 99.654,212.740 99.785,212.782 99.625 C 212.823 99.465,212.823 99.202,212.782 99.042 C 212.740 98.881,212.705 99.013,212.705 99.333 M192.221 100.083 C 192.222 100.725,192.252 100.967,192.288 100.621 C 192.324 100.275,192.324 99.750,192.287 99.455 C 192.250 99.159,192.221 99.442,192.221 100.083 M159.387 100.167 C 159.387 100.763,159.417 101.006,159.454 100.708 C 159.491 100.410,159.491 99.923,159.454 99.625 C 159.417 99.327,159.387 99.571,159.387 100.167 M187.998 100.367 C 187.953 100.982,187.977 101.424,188.051 101.350 C 188.124 101.276,188.161 100.773,188.132 100.233 L 188.079 99.250 187.998 100.367 M183.333 99.990 C 183.333 100.076,183.420 100.201,183.526 100.266 C 183.642 100.338,183.673 100.312,183.604 100.200 C 183.526 100.074,183.847 99.997,184.620 99.957 L 185.750 99.899 184.542 99.866 C 183.875 99.848,183.333 99.904,183.333 99.990 M204.500 99.990 C 204.500 100.076,204.587 100.201,204.692 100.266 C 204.809 100.338,204.840 100.312,204.771 100.200 C 204.693 100.074,205.014 99.997,205.787 99.957 L 206.917 99.899 205.708 99.866 C 205.041 99.848,204.500 99.904,204.500 99.990 M217.121 99.954 C 217.417 99.990,217.942 99.991,218.288 99.955 C 218.634 99.919,218.392 99.889,217.750 99.888 C 217.108 99.887,216.825 99.917,217.121 99.954 M218.417 100.287 C 218.600 100.332,218.862 100.455,219.000 100.560 C 219.217 100.725,219.220 100.712,219.021 100.458 C 218.895 100.298,218.633 100.175,218.438 100.186 C 218.101 100.204,218.100 100.209,218.417 100.287 M238.358 102.125 C 238.381 102.692,238.390 102.704,238.457 102.251 C 238.497 101.976,238.617 101.696,238.723 101.628 C 238.849 101.548,238.814 101.504,238.625 101.503 C 238.394 101.501,238.339 101.631,238.358 102.125 " stroke="none" fill="#c4d7c4" fill-rule="evenodd"></path><path id="path8" d="M176.548 31.583 C 176.549 32.042,176.581 32.209,176.620 31.956 C 176.658 31.703,176.657 31.328,176.617 31.123 C 176.578 30.918,176.546 31.125,176.548 31.583 M223.408 38.167 C 223.408 41.421,223.431 42.752,223.458 41.125 C 223.485 39.498,223.485 36.835,223.458 35.208 C 223.431 33.581,223.408 34.912,223.408 38.167 M218.550 34.833 C 218.550 35.337,218.581 35.544,218.619 35.292 C 218.658 35.040,218.658 34.627,218.619 34.375 C 218.581 34.123,218.550 34.329,218.550 34.833 M191.379 43.833 C 191.379 44.246,191.411 44.415,191.451 44.208 C 191.491 44.002,191.491 43.665,191.451 43.458 C 191.411 43.252,191.379 43.421,191.379 43.833 M203.721 44.583 C 203.722 45.225,203.752 45.467,203.788 45.121 C 203.824 44.775,203.824 44.250,203.787 43.955 C 203.750 43.659,203.721 43.942,203.721 44.583 M208.542 45.083 C 208.544 45.450,208.578 45.580,208.618 45.373 C 208.658 45.166,208.656 44.866,208.615 44.706 C 208.573 44.547,208.540 44.717,208.542 45.083 M218.550 47.833 C 218.550 48.337,218.581 48.544,218.619 48.292 C 218.658 48.040,218.658 47.627,218.619 47.375 C 218.581 47.123,218.550 47.329,218.550 47.833 M223.217 47.833 C 223.217 48.337,223.248 48.544,223.286 48.292 C 223.324 48.040,223.324 47.627,223.286 47.375 C 223.248 47.123,223.217 47.329,223.217 47.833 M203.562 52.833 C 203.562 53.796,203.589 54.190,203.623 53.708 C 203.657 53.227,203.657 52.440,203.623 51.958 C 203.589 51.477,203.562 51.871,203.562 52.833 M196.375 58.083 C 196.377 58.450,196.411 58.580,196.451 58.373 C 196.491 58.166,196.490 57.866,196.448 57.706 C 196.406 57.547,196.374 57.717,196.375 58.083 M203.712 59.500 C 203.712 59.913,203.745 60.081,203.784 59.875 C 203.824 59.669,203.824 59.331,203.784 59.125 C 203.745 58.919,203.712 59.087,203.712 59.500 M173.899 86.750 C 173.899 88.033,173.926 88.536,173.957 87.868 C 173.989 87.199,173.989 86.149,173.957 85.534 C 173.925 84.920,173.899 85.467,173.899 86.750 M186.898 87.000 C 186.898 88.146,186.924 88.615,186.957 88.042 C 186.989 87.469,186.989 86.531,186.957 85.958 C 186.924 85.385,186.898 85.854,186.898 87.000 M158.298 85.290 C 158.875 85.323,159.775 85.323,160.298 85.290 C 160.822 85.257,160.350 85.230,159.250 85.230 C 158.150 85.231,157.722 85.258,158.298 85.290 M181.064 87.167 C 181.064 88.313,181.091 88.781,181.123 88.208 C 181.156 87.635,181.156 86.698,181.123 86.125 C 181.091 85.552,181.064 86.021,181.064 87.167 M227.230 87.083 C 227.231 88.183,227.258 88.612,227.290 88.035 C 227.323 87.459,227.323 86.559,227.290 86.035 C 227.257 85.512,227.230 85.983,227.230 87.083 M212.896 87.083 C 212.896 88.092,212.924 88.483,212.957 87.952 C 212.990 87.422,212.990 86.597,212.956 86.119 C 212.922 85.641,212.895 86.075,212.896 87.083 M242.728 87.333 C 242.728 88.296,242.756 88.690,242.790 88.208 C 242.823 87.727,242.823 86.940,242.790 86.458 C 242.756 85.977,242.728 86.371,242.728 87.333 " stroke="none" fill="#acccac" fill-rule="evenodd"></path></g></svg>